<?xml version="1.0" encoding="utf-8"?>
<!-- Generator: Adobe Illustrator 26.5.0, SVG Export Plug-In . SVG Version: 6.00 Build 0)  -->
<svg version="1.1" id="Layer_1" xmlns="http://www.w3.org/2000/svg" xmlns:xlink="http://www.w3.org/1999/xlink" x="0px" y="0px"
	 viewBox="0 0 261.5 118" style="enable-background:new 0 0 261.5 118;" xml:space="preserve">
<style type="text/css">
	.st0{fill:#6F2033;}
	.st1{fill:none;stroke:#DAA573;stroke-linecap:round;stroke-miterlimit:10;stroke-dasharray:0.1,1.5;}
	.st2{fill:#B71F38;}
</style>
<g>
	<polygon class="st0" points="0.62,44.67 0.62,117.21 90.5,117.21 90.5,44.67 45.56,19.36 	"/>
	<polygon class="st0" points="164.68,39.57 164.68,117.21 260.88,117.21 260.88,39.57 212.78,12.48 	"/>
	<g>
		<path class="st0" d="M164.63,48.91c-0.29,0-0.53-0.24-0.53-0.53V37.52c0-4.93-0.97-9.72-2.87-14.22
			c-1.84-4.35-4.47-8.26-7.83-11.61c-3.36-3.36-7.26-5.99-11.61-7.83c-4.51-1.91-9.29-2.87-14.22-2.87c-4.93,0-9.72,0.97-14.22,2.87
			c-4.35,1.84-8.26,4.47-11.61,7.83c-3.36,3.36-5.99,7.26-7.83,11.61c-1.91,4.51-2.87,9.29-2.87,14.22v10.87
			c0,0.29-0.24,0.53-0.53,0.53s-0.53-0.24-0.53-0.53V37.52c0-5.07,0.99-10,2.95-14.63c1.89-4.48,4.6-8.5,8.05-11.95
			c3.45-3.45,7.47-6.16,11.95-8.05c4.64-1.96,9.56-2.95,14.63-2.95c5.07,0,10,0.99,14.63,2.95c4.48,1.89,8.5,4.6,11.95,8.05
			s6.16,7.47,8.05,11.95c1.96,4.64,2.95,9.56,2.95,14.63v10.87C165.16,48.68,164.92,48.91,164.63,48.91z"/>
	</g>
	<g>
		<g>
			<path class="st0" d="M163.04,117.73H150.3c-0.29,0-0.53-0.24-0.53-0.53V37.52c0-12.24-9.96-22.21-22.21-22.21
				s-22.21,9.96-22.21,22.21v79.69c0,0.29-0.24,0.53-0.53,0.53H92.09c-0.29,0-0.53-0.24-0.53-0.53V37.52c0-19.85,16.15-36,36-36
				s36,16.15,36,36v79.69C163.57,117.5,163.33,117.73,163.04,117.73z M150.82,116.68h11.69V37.52c0-19.27-15.68-34.95-34.95-34.95
				S92.62,18.25,92.62,37.52v79.16h11.69V37.52c0-12.82,10.43-23.26,23.26-23.26s23.26,10.43,23.26,23.26V116.68z"/>
		</g>
		<g>
			<path class="st0" d="M163.04,56.18H150.3c-0.29,0-0.53-0.24-0.53-0.53c0-0.29,0.24-0.53,0.53-0.53h12.74
				c0.29,0,0.53,0.24,0.53,0.53C163.57,55.95,163.33,56.18,163.04,56.18z"/>
		</g>
		<g>
			<path class="st0" d="M104.83,56.18H92.09c-0.29,0-0.53-0.24-0.53-0.53c0-0.29,0.24-0.53,0.53-0.53h12.74
				c0.29,0,0.53,0.24,0.53,0.53C105.36,55.95,105.12,56.18,104.83,56.18z"/>
		</g>
		<g>
			<path class="st0" d="M163.04,45.23H150.3c-0.29,0-0.53-0.24-0.53-0.53c0-0.29,0.24-0.53,0.53-0.53h12.74
				c0.29,0,0.53,0.24,0.53,0.53C163.57,44.99,163.33,45.23,163.04,45.23z"/>
		</g>
		<g>
			<path class="st0" d="M104.83,45.23H92.09c-0.29,0-0.53-0.24-0.53-0.53c0-0.29,0.24-0.53,0.53-0.53h12.74
				c0.29,0,0.53,0.24,0.53,0.53C105.36,44.99,105.12,45.23,104.83,45.23z"/>
		</g>
		<g>
			<path class="st0" d="M92.09,56.18c-0.15,0-0.29-0.06-0.4-0.18c-0.19-0.22-0.16-0.55,0.06-0.74l12.18-10.47l-12.09-6.81
				c-0.17-0.1-0.28-0.29-0.27-0.49c0.01-0.2,0.13-0.38,0.32-0.46l12.91-5.62L96.42,20.1c-0.12-0.17-0.14-0.39-0.03-0.58
				c0.1-0.18,0.31-0.28,0.51-0.26l13.99,1.59l-1.59-14c-0.02-0.21,0.08-0.41,0.26-0.51c0.18-0.1,0.41-0.09,0.58,0.03l11.32,8.37
				l5.62-12.91c0.12-0.27,0.43-0.39,0.69-0.27c0.27,0.12,0.39,0.43,0.27,0.69l-5.88,13.51c-0.06,0.15-0.19,0.26-0.35,0.3
				c-0.15,0.04-0.32,0.01-0.45-0.09l-10.88-8.05l1.53,13.46c0.02,0.16-0.04,0.32-0.15,0.43c-0.11,0.11-0.27,0.17-0.43,0.15
				l-13.45-1.53l8.04,10.88c0.1,0.13,0.13,0.29,0.09,0.45c-0.04,0.15-0.15,0.28-0.3,0.35l-12.55,5.46l11.82,6.66
				c0.15,0.08,0.25,0.24,0.27,0.41c0.02,0.17-0.05,0.34-0.18,0.45L92.43,56.06C92.33,56.14,92.21,56.18,92.09,56.18z"/>
		</g>
		<g>
			<path class="st0" d="M163.04,56.18c-0.12,0-0.24-0.04-0.34-0.13L149.96,45.1c-0.13-0.11-0.2-0.28-0.18-0.45
				c0.02-0.17,0.12-0.32,0.27-0.41l11.82-6.66l-12.55-5.46c-0.15-0.06-0.26-0.19-0.3-0.35c-0.04-0.15-0.01-0.32,0.09-0.45
				l8.04-10.88l-13.45,1.53c-0.16,0.02-0.32-0.04-0.43-0.15c-0.11-0.11-0.17-0.27-0.15-0.43l1.53-13.46l-10.88,8.05
				c-0.13,0.1-0.29,0.13-0.45,0.09c-0.15-0.04-0.28-0.15-0.35-0.3l-5.88-13.51c-0.12-0.27,0.01-0.58,0.27-0.69
				c0.27-0.12,0.58,0.01,0.69,0.27l5.62,12.91l11.32-8.37c0.17-0.12,0.39-0.14,0.58-0.03c0.18,0.1,0.28,0.31,0.26,0.51l-1.59,14
				l13.99-1.59c0.21-0.02,0.41,0.08,0.51,0.26c0.1,0.18,0.09,0.41-0.03,0.58l-8.37,11.32l12.91,5.62c0.18,0.08,0.3,0.26,0.32,0.46
				c0.01,0.2-0.09,0.39-0.27,0.49l-12.09,6.81l12.18,10.47c0.22,0.19,0.25,0.52,0.06,0.74C163.34,56.12,163.19,56.18,163.04,56.18z"
				/>
		</g>
	</g>
	<polygon class="st0" points="38.98,48.39 38.98,117.21 90.5,117.21 90.5,48.39 64.74,33.88 	"/>
	<polygon class="st0" points="164.63,44.02 164.63,117.21 214.31,117.21 214.31,44.02 189.47,30.03 	"/>
	<polygon class="st1" points="38.98,48.39 38.98,117.21 90.5,117.21 90.5,48.39 64.74,33.88 	"/>
	<polygon class="st1" points="164.63,44.02 164.63,117.21 214.31,117.21 214.31,44.02 189.47,30.03 	"/>
	<path class="st2" d="M9.63,66.42c0-6.21,5.04-11.25,11.25-11.25s11.25,5.04,11.25,11.25H9.63z"/>
	<path class="st2" d="M227.86,66.42c0-6.21,5.04-11.25,11.25-11.25s11.25,5.04,11.25,11.25H227.86z"/>
	<path class="st1" d="M9.63,66.42c0-6.21,5.04-11.25,11.25-11.25s11.25,5.04,11.25,11.25H9.63z"/>
	<path class="st1" d="M227.86,66.42c0-6.21,5.04-11.25,11.25-11.25s11.25,5.04,11.25,11.25H227.86z"/>
	<g>
		<path class="st1" d="M127.57,2.05c-19.59,0-35.48,15.88-35.48,35.48v79.69h12.74V37.52c0-12.55,10.18-22.73,22.73-22.73
			s22.73,10.18,22.73,22.73v79.69h12.74V37.52C163.04,17.93,147.16,2.05,127.57,2.05z"/>
		<line class="st1" x1="150.3" y1="55.66" x2="163.04" y2="55.66"/>
		<line class="st1" x1="92.09" y1="55.66" x2="104.83" y2="55.66"/>
		<line class="st1" x1="150.3" y1="44.7" x2="163.04" y2="44.7"/>
		<line class="st1" x1="92.09" y1="44.7" x2="104.83" y2="44.7"/>
		<polyline class="st1" points="127.57,2.05 121.68,15.56 109.83,6.79 111.49,21.45 96.84,19.78 105.6,31.64 92.09,37.52 
			104.83,44.7 92.09,55.66 		"/>
		<polyline class="st1" points="127.57,2.05 133.45,15.56 145.3,6.79 143.64,21.45 158.29,19.78 149.53,31.64 163.04,37.52 
			150.3,44.7 163.04,55.66 		"/>
	</g>
</g>
</svg>
