<?xml version="1.0" encoding="utf-8"?>
<!-- Generator: Adobe Illustrator 26.5.0, SVG Export Plug-In . SVG Version: 6.00 Build 0)  -->
<svg version="1.1" id="Layer_1" xmlns="http://www.w3.org/2000/svg" xmlns:xlink="http://www.w3.org/1999/xlink" x="0px" y="0px"
	 viewBox="0 0 5461 257" style="enable-background:new 0 0 5461 257;" xml:space="preserve">
<style type="text/css">
	
		.st0{clip-path:url(#SVGID_00000077299868112664972880000003392772144834526136_);fill:url(#SVGID_00000078013847189721312850000008692780463408324509_);}
	
		.st1{clip-path:url(#SVGID_00000031176319174345312700000018336925237020044939_);fill:url(#SVGID_00000062193750974204123910000011351540104306408879_);}
	
		.st2{clip-path:url(#SVGID_00000147198050284736324680000011483484240432272540_);fill:url(#SVGID_00000131330714470615661460000007781167386586893962_);}
	
		.st3{clip-path:url(#SVGID_00000093170173146196555290000016715210103822292631_);fill:url(#SVGID_00000049913001747721602830000018121476147994225585_);}
	
		.st4{clip-path:url(#SVGID_00000139982234358358557000000014266315472217204139_);fill:url(#SVGID_00000142163910221308122850000012919243112035220926_);}
	
		.st5{clip-path:url(#SVGID_00000060750140182484351100000012277187790272285852_);fill:url(#SVGID_00000042706092402732267290000016777810016445188022_);}
	
		.st6{clip-path:url(#SVGID_00000085956571608182971820000015376713959066503559_);fill:url(#SVGID_00000073701373678822393990000008098025079344505789_);}
	
		.st7{clip-path:url(#SVGID_00000163794655148337890690000007249087368502080163_);fill:url(#SVGID_00000092428059723483626680000005189265397435625649_);}
	
		.st8{clip-path:url(#SVGID_00000070811094195988277500000010693692441606334105_);fill:url(#SVGID_00000103978684225948736470000002262150936202211739_);}
	
		.st9{clip-path:url(#SVGID_00000016760650782064231220000007851724872922831505_);fill:url(#SVGID_00000018203081111622106210000017857421646765139368_);}
	
		.st10{clip-path:url(#SVGID_00000063627937525185525990000003767434882193660596_);fill:url(#SVGID_00000048496535095921454380000016285760417325813405_);}
	
		.st11{clip-path:url(#SVGID_00000148642882740960152840000001002296676073625473_);fill:url(#SVGID_00000034780776177041829500000001990766361859887504_);}
	
		.st12{clip-path:url(#SVGID_00000049902455224071506210000018340021731372838588_);fill:url(#SVGID_00000098216936314679290540000011472304259676676779_);}
	
		.st13{clip-path:url(#SVGID_00000088100767704674356370000009115743334733773205_);fill:url(#SVGID_00000000192752043016946930000004221639078239985803_);}
	
		.st14{clip-path:url(#SVGID_00000097496994311161487880000010279659933740452011_);fill:url(#SVGID_00000025413642764566131950000012803839431916208258_);}
	
		.st15{clip-path:url(#SVGID_00000099663875073707717470000008887102367758068609_);fill:url(#SVGID_00000124136238298214696950000016317158042325712830_);}
	
		.st16{clip-path:url(#SVGID_00000119107010478073226120000005533786662374555064_);fill:url(#SVGID_00000181088598764301222170000009933318119555717256_);}
</style>
<g>
	<g>
		<defs>
			<rect id="SVGID_1_" y="-0.5" width="5455" height="257.5"/>
		</defs>
		<clipPath id="SVGID_00000155142839760747253110000014806940942979928745_">
			<use xlink:href="#SVGID_1_"  style="overflow:visible;"/>
		</clipPath>
		
			<linearGradient id="SVGID_00000104692701266187079750000012434564397342722961_" gradientUnits="userSpaceOnUse" x1="5644.3389" y1="-11.6053" x2="5644.3389" y2="296.925" gradientTransform="matrix(1 0 0 -1 0 258)">
			<stop  offset="0.0251" style="stop-color:#36171C"/>
			<stop  offset="0.377" style="stop-color:#621C28"/>
			<stop  offset="0.6283" style="stop-color:#A02C3C"/>
			<stop  offset="0.8794" style="stop-color:#D93A4F"/>
			<stop  offset="1" style="stop-color:#EF4056"/>
		</linearGradient>
		
			<path style="clip-path:url(#SVGID_00000155142839760747253110000014806940942979928745_);fill:url(#SVGID_00000104692701266187079750000012434564397342722961_);" d="
			M5978.08,250.55h-0.02c-0.01-0.96-0.07-1.96-0.2-3c-2.5-19.64-25-22.5-25-22.5s8.21-6.79,0.36-13.93
			c-7.86-7.14-30.71-0.36-30.71-0.36s11.43-10,4.28-25.35c-7.14-15.36-28.92-13.93-32.85-6.43c0,0-2.14-21.43-27.14-12.14
			c0,0,11.32-11.4-3.44-21.86c-14.76-10.45-35.05-6.56-46.12,2.25c0,0-0.82-8.2-12.91-11.89c-8.13-2.48-15.03,0.42-18.14,5.38
			c-3.14-20.2-12.57-34.78-23.95-39.22c-14.64-5.71-18.93,7.5-18.93,7.5c-7.86-33.57-45.71-26.07-45.71-26.07s8.26-13.64-1.07-25.71
			c-14.64-18.93-42.49-1.43-42.49-1.43c-3.21-6.78-13.21-11.43-28.03-7.73c-25.67,6.41-37.3,27.46-37.3,27.46
			c1.84-9.22-7.58-17.42-19.68-13.73s-12.91,11.89-12.91,11.89c-11.07-8.81-31.36-12.71-46.12-2.25
			c-14.76,10.45-3.44,21.86-3.44,21.86c-25-9.28-27.14,12.14-27.14,12.14c-3.93-7.5-25.71-8.93-32.85,6.43s4.28,25.35,4.28,25.35
			s-22.85-6.78-30.71,0.36c-5.91,5.38-2.72,10.55-0.78,12.78c-0.29,0.5-0.54,1-0.74,1.49c-5.45,1.19-21.06,5.98-23.12,22.15
			c-0.05,0.42-0.09,0.83-0.12,1.24c-0.51,1.71-0.64,2.92-0.64,2.92c-3.93-7.5-25.71-8.93-32.85,6.43s4.28,25.35,4.28,25.35
			s-22.85-6.78-30.71,0.36s0.36,13.93,0.36,13.93s-22.5,2.86-25,22.5c-0.13,1.04-0.19,2.04-0.21,3h-0.01v26.56h667.47v-25.73
			H5978.08z"/>
	</g>
	<g>
		<defs>
			<rect id="SVGID_00000023976579277806935740000015219141464675717026_" y="-0.5" width="5455" height="257.5"/>
		</defs>
		<clipPath id="SVGID_00000179607641473509834040000015276313366777375383_">
			<use xlink:href="#SVGID_00000023976579277806935740000015219141464675717026_"  style="overflow:visible;"/>
		</clipPath>
		
			<linearGradient id="SVGID_00000152943739499034434870000012186396277898027649_" gradientUnits="userSpaceOnUse" x1="4772.083" y1="-11.6053" x2="4772.083" y2="296.925" gradientTransform="matrix(1 0 0 -1 0 258)">
			<stop  offset="0.0251" style="stop-color:#36171C"/>
			<stop  offset="0.377" style="stop-color:#621C28"/>
			<stop  offset="0.6283" style="stop-color:#A02C3C"/>
			<stop  offset="0.8794" style="stop-color:#D93A4F"/>
			<stop  offset="1" style="stop-color:#EF4056"/>
		</linearGradient>
		
			<path style="clip-path:url(#SVGID_00000179607641473509834040000015276313366777375383_);fill:url(#SVGID_00000152943739499034434870000012186396277898027649_);" d="
			M5105.81,250.55h-0.02c-0.01-0.96-0.07-1.96-0.21-3c-2.5-19.64-25-22.5-25-22.5s8.21-6.79,0.36-13.93
			c-7.86-7.14-30.71-0.36-30.71-0.36s11.43-10,4.29-25.35c-7.14-15.36-28.92-13.93-32.85-6.43c0,0-2.14-21.43-27.14-12.14
			c0,0,11.32-11.4-3.44-21.86c-14.76-10.45-35.05-6.56-46.12,2.25c0,0-0.82-8.2-12.91-11.89c-8.13-2.48-15.03,0.42-18.14,5.38
			c-3.14-20.2-12.57-34.78-23.95-39.22c-14.64-5.71-18.93,7.5-18.93,7.5c-7.86-33.57-45.71-26.07-45.71-26.07s8.26-13.64-1.07-25.71
			c-14.64-18.93-42.49-1.43-42.49-1.43c-3.21-6.78-13.21-11.43-28.03-7.73c-25.67,6.41-37.3,27.46-37.3,27.46
			c1.84-9.22-7.58-17.42-19.68-13.73c-12.09,3.69-12.91,11.89-12.91,11.89c-11.07-8.81-31.36-12.71-46.12-2.25
			c-14.76,10.45-3.44,21.86-3.44,21.86c-25-9.28-27.14,12.14-27.14,12.14c-3.93-7.5-25.71-8.93-32.85,6.43s4.29,25.35,4.29,25.35
			s-22.85-6.78-30.71,0.36c-5.91,5.38-2.72,10.55-0.78,12.78c-0.29,0.5-0.54,1-0.74,1.49c-5.45,1.19-21.06,5.98-23.12,22.15
			c-0.05,0.42-0.09,0.83-0.12,1.24c-0.51,1.71-0.64,2.92-0.64,2.92c-3.93-7.5-25.71-8.93-32.85,6.43s4.29,25.35,4.29,25.35
			s-22.85-6.78-30.71,0.36s0.36,13.93,0.36,13.93s-22.5,2.86-25,22.5c-0.13,1.04-0.19,2.04-0.2,3h-0.02v26.56h667.47L5105.81,250.55
			L5105.81,250.55z"/>
	</g>
	<g>
		<defs>
			<rect id="SVGID_00000075849023183250189500000015201217280295822524_" y="-0.5" width="5455" height="257.5"/>
		</defs>
		<clipPath id="SVGID_00000005987603516234142020000017389630381501840785_">
			<use xlink:href="#SVGID_00000075849023183250189500000015201217280295822524_"  style="overflow:visible;"/>
		</clipPath>
		
			<linearGradient id="SVGID_00000173154813234977243070000018287196073885054636_" gradientUnits="userSpaceOnUse" x1="3909.9651" y1="-26.6033" x2="3909.9651" y2="281.927" gradientTransform="matrix(1 0 0 -1 0 258)">
			<stop  offset="0.0251" style="stop-color:#36171C"/>
			<stop  offset="0.377" style="stop-color:#621C28"/>
			<stop  offset="0.6283" style="stop-color:#A02C3C"/>
			<stop  offset="0.8794" style="stop-color:#D93A4F"/>
			<stop  offset="1" style="stop-color:#EF4056"/>
		</linearGradient>
		
			<path style="clip-path:url(#SVGID_00000005987603516234142020000017389630381501840785_);fill:url(#SVGID_00000173154813234977243070000018287196073885054636_);" d="
			M4243.7,265.55h-0.02c-0.01-0.96-0.07-1.96-0.2-3c-2.5-19.64-25-22.5-25-22.5s8.21-6.79,0.36-13.93
			c-7.86-7.14-30.71-0.36-30.71-0.36s11.43-10,4.29-25.35c-7.14-15.36-28.92-13.93-32.85-6.43c0,0-2.14-21.43-27.14-12.14
			c0,0,11.32-11.4-3.44-21.86c-14.76-10.45-35.05-6.56-46.12,2.25c0,0-0.82-8.2-12.91-11.89c-8.13-2.48-15.03,0.42-18.14,5.38
			c-3.14-20.2-12.57-34.78-23.95-39.22c-14.64-5.71-18.93,7.5-18.93,7.5c-7.86-33.57-45.71-26.07-45.71-26.07s8.26-13.64-1.07-25.71
			c-14.64-18.93-42.49-1.43-42.49-1.43c-3.21-6.78-13.21-11.43-28.03-7.73c-25.67,6.41-37.3,27.46-37.3,27.46
			c1.84-9.22-7.58-17.42-19.68-13.73c-12.09,3.69-12.91,11.89-12.91,11.89c-11.07-8.81-31.36-12.71-46.12-2.25
			c-14.76,10.45-3.44,21.86-3.44,21.86c-25-9.28-27.14,12.14-27.14,12.14c-3.93-7.5-25.71-8.93-32.85,6.43
			c-7.14,15.36,4.28,25.35,4.28,25.35s-22.85-6.78-30.71,0.36c-5.91,5.38-2.72,10.55-0.78,12.78c-0.29,0.5-0.54,1-0.74,1.49
			c-5.45,1.19-21.06,5.98-23.12,22.15c-0.05,0.42-0.09,0.83-0.12,1.24c-0.51,1.71-0.64,2.92-0.64,2.92
			c-3.93-7.5-25.71-8.93-32.85,6.43c-7.14,15.36,4.28,25.35,4.28,25.35s-22.85-6.78-30.71,0.36c-7.86,7.14,0.36,13.93,0.36,13.93
			s-22.5,2.86-25,22.5c-0.13,1.04-0.19,2.04-0.21,3h-0.01v26.56h667.47V265.55z"/>
	</g>
	<g>
		<defs>
			<rect id="SVGID_00000074410986874519483920000008749244257024771212_" y="-0.5" width="5455" height="257.5"/>
		</defs>
		<clipPath id="SVGID_00000117666996997725154010000017555343865495268226_">
			<use xlink:href="#SVGID_00000074410986874519483920000008749244257024771212_"  style="overflow:visible;"/>
		</clipPath>
		
			<linearGradient id="SVGID_00000010281502081038326380000001035449825687875239_" gradientUnits="userSpaceOnUse" x1="3090.2954" y1="-11.6053" x2="3090.2954" y2="296.925" gradientTransform="matrix(1 0 0 -1 0 258)">
			<stop  offset="0.0251" style="stop-color:#36171C"/>
			<stop  offset="0.377" style="stop-color:#621C28"/>
			<stop  offset="0.6283" style="stop-color:#A02C3C"/>
			<stop  offset="0.8794" style="stop-color:#D93A4F"/>
			<stop  offset="1" style="stop-color:#EF4056"/>
		</linearGradient>
		
			<path style="clip-path:url(#SVGID_00000117666996997725154010000017555343865495268226_);fill:url(#SVGID_00000010281502081038326380000001035449825687875239_);" d="
			M3424.03,250.55h-0.02c-0.01-0.96-0.07-1.96-0.2-3c-2.5-19.64-25-22.5-25-22.5s8.21-6.79,0.36-13.93
			c-7.86-7.14-30.71-0.36-30.71-0.36s11.43-10,4.28-25.35s-28.92-13.93-32.85-6.43c0,0-2.14-21.43-27.14-12.14
			c0,0,11.32-11.4-3.44-21.86c-14.76-10.45-35.05-6.56-46.12,2.25c0,0-0.82-8.2-12.91-11.89c-8.13-2.48-15.03,0.42-18.14,5.38
			c-3.14-20.2-12.57-34.78-23.95-39.22c-14.64-5.71-18.93,7.5-18.93,7.5c-7.86-33.57-45.71-26.07-45.71-26.07s8.26-13.64-1.07-25.71
			c-14.64-18.93-42.49-1.43-42.49-1.43c-3.21-6.78-13.21-11.43-28.03-7.73c-25.67,6.41-37.3,27.46-37.3,27.46
			c1.84-9.22-7.58-17.42-19.68-13.73c-12.09,3.69-12.91,11.89-12.91,11.89c-11.07-8.81-31.36-12.71-46.12-2.25
			c-14.76,10.45-3.44,21.86-3.44,21.86c-25-9.28-27.14,12.14-27.14,12.14c-3.93-7.5-25.71-8.93-32.85,6.43
			c-7.14,15.36,4.28,25.35,4.28,25.35s-22.85-6.78-30.71,0.36c-5.91,5.38-2.72,10.55-0.78,12.78c-0.29,0.5-0.54,1-0.74,1.49
			c-5.45,1.19-21.06,5.98-23.12,22.15c-0.05,0.42-0.09,0.83-0.12,1.24c-0.51,1.71-0.64,2.92-0.64,2.92
			c-3.93-7.5-25.71-8.93-32.85,6.43c-7.14,15.36,4.28,25.35,4.28,25.35s-22.85-6.78-30.71,0.36c-7.86,7.14,0.36,13.93,0.36,13.93
			s-22.5,2.86-25,22.5c-0.13,1.04-0.19,2.04-0.2,3h-0.01v26.56h667.47L3424.03,250.55L3424.03,250.55z"/>
	</g>
	<g>
		<defs>
			<rect id="SVGID_00000173150321786566739040000001282485736173867171_" y="-0.5" width="5455" height="257.5"/>
		</defs>
		<clipPath id="SVGID_00000042713860479844637790000013511486340596554650_">
			<use xlink:href="#SVGID_00000173150321786566739040000001282485736173867171_"  style="overflow:visible;"/>
		</clipPath>
		
			<linearGradient id="SVGID_00000181067281894614685490000010151136039217065897_" gradientUnits="userSpaceOnUse" x1="2316.6956" y1="-43.379" x2="2316.6956" y2="265.1513" gradientTransform="matrix(1 0 0 -1 0 258)">
			<stop  offset="0.0251" style="stop-color:#36171C"/>
			<stop  offset="0.377" style="stop-color:#621C28"/>
			<stop  offset="0.6283" style="stop-color:#A02C3C"/>
			<stop  offset="0.8794" style="stop-color:#D93A4F"/>
			<stop  offset="1" style="stop-color:#EF4056"/>
		</linearGradient>
		
			<path style="clip-path:url(#SVGID_00000042713860479844637790000013511486340596554650_);fill:url(#SVGID_00000181067281894614685490000010151136039217065897_);" d="
			M2650.41,282.32h-0.01c-0.01-0.96-0.07-1.96-0.2-3c-2.5-19.64-25-22.5-25-22.5s8.21-6.79,0.36-13.93
			c-7.86-7.14-30.71-0.36-30.71-0.36s11.43-10,4.29-25.35s-28.92-13.93-32.85-6.43c0,0-2.14-21.43-27.14-12.14
			c0,0,11.32-11.4-3.44-21.86c-14.76-10.45-35.05-6.56-46.12,2.25c0,0-0.82-8.2-12.91-11.89c-8.13-2.48-15.03,0.42-18.14,5.38
			c-3.14-20.2-12.57-34.78-23.95-39.22c-14.64-5.71-18.93,7.5-18.93,7.5c-7.86-33.57-45.71-26.07-45.71-26.07s8.26-13.64-1.07-25.71
			c-14.64-18.93-42.49-1.43-42.49-1.43c-3.21-6.79-13.21-11.43-28.03-7.73c-25.67,6.41-37.3,27.46-37.3,27.46
			c1.84-9.22-7.58-17.42-19.68-13.73c-12.09,3.69-12.91,11.89-12.91,11.89c-11.07-8.81-31.36-12.71-46.12-2.25
			c-14.76,10.45-3.44,21.86-3.44,21.86c-25-9.28-27.14,12.14-27.14,12.14c-3.93-7.5-25.71-8.93-32.85,6.43
			c-7.14,15.36,4.28,25.35,4.28,25.35s-22.85-6.78-30.71,0.36c-5.91,5.38-2.72,10.55-0.78,12.78c-0.29,0.5-0.54,1-0.74,1.49
			c-5.45,1.19-21.06,5.98-23.12,22.15c-0.05,0.42-0.09,0.83-0.12,1.24c-0.51,1.71-0.64,2.92-0.64,2.92
			c-3.93-7.5-25.71-8.93-32.85,6.43s4.29,25.35,4.29,25.35s-22.85-6.78-30.71,0.36s0.36,13.93,0.36,13.93s-22.5,2.86-25,22.5
			c-0.13,1.04-0.19,2.04-0.2,3h-0.02v26.56h667.47v-25.73H2650.41z"/>
	</g>
	<g>
		<defs>
			<rect id="SVGID_00000000919957465099616530000012828130535794378917_" y="-0.5" width="5455" height="257.5"/>
		</defs>
		<clipPath id="SVGID_00000170251824016588492790000013821403868342208699_">
			<use xlink:href="#SVGID_00000000919957465099616530000012828130535794378917_"  style="overflow:visible;"/>
		</clipPath>
		
			<linearGradient id="SVGID_00000106826879894310060640000012876530331731474342_" gradientUnits="userSpaceOnUse" x1="1475.0453" y1="-94.1329" x2="1475.0453" y2="214.3974" gradientTransform="matrix(1 0 0 -1 0 258)">
			<stop  offset="0.0251" style="stop-color:#36171C"/>
			<stop  offset="0.377" style="stop-color:#621C28"/>
			<stop  offset="0.6283" style="stop-color:#A02C3C"/>
			<stop  offset="0.8794" style="stop-color:#D93A4F"/>
			<stop  offset="1" style="stop-color:#EF4056"/>
		</linearGradient>
		
			<path style="clip-path:url(#SVGID_00000170251824016588492790000013821403868342208699_);fill:url(#SVGID_00000106826879894310060640000012876530331731474342_);" d="
			M1808.76,333.08h-0.02c-0.01-0.96-0.07-1.96-0.2-3c-2.5-19.64-25-22.5-25-22.5s8.21-6.79,0.36-13.93
			c-7.86-7.14-30.71-0.36-30.71-0.36s11.43-10,4.29-25.35s-28.92-13.93-32.85-6.43c0,0-2.14-21.43-27.14-12.14
			c0,0,11.32-11.4-3.44-21.86c-14.76-10.45-35.05-6.56-46.12,2.25c0,0-0.82-8.2-12.91-11.89c-8.13-2.48-15.03,0.42-18.14,5.38
			c-3.14-20.2-12.57-34.78-23.95-39.22c-14.64-5.71-18.93,7.5-18.93,7.5c-7.86-33.57-45.71-26.07-45.71-26.07s8.26-13.64-1.07-25.71
			c-14.64-18.93-42.49-1.43-42.49-1.43c-3.21-6.79-13.21-11.43-28.03-7.73c-25.67,6.41-37.3,27.46-37.3,27.46
			c1.84-9.22-7.58-17.42-19.68-13.73c-12.09,3.69-12.91,11.89-12.91,11.89c-11.07-8.81-31.36-12.71-46.12-2.25
			c-14.76,10.45-3.44,21.86-3.44,21.86c-25-9.28-27.14,12.14-27.14,12.14c-3.93-7.5-25.71-8.93-32.85,6.43s4.29,25.35,4.29,25.35
			s-22.85-6.78-30.71,0.36c-5.91,5.38-2.72,10.55-0.78,12.78c-0.29,0.5-0.54,1-0.74,1.49c-5.45,1.19-21.06,5.98-23.12,22.15
			c-0.05,0.42-0.09,0.83-0.12,1.24c-0.51,1.71-0.64,2.92-0.64,2.92c-3.93-7.5-25.71-8.93-32.85,6.43s4.29,25.35,4.29,25.35
			s-22.85-6.78-30.71,0.36c-7.86,7.14,0.36,13.93,0.36,13.93s-22.5,2.86-25,22.5c-0.13,1.04-0.19,2.04-0.2,3h-0.02v26.56h667.47
			v-25.73H1808.76z"/>
	</g>
	<g>
		<defs>
			<rect id="SVGID_00000070826307549187973250000004548374968894251402_" y="-0.5" width="5455" height="257.5"/>
		</defs>
		<clipPath id="SVGID_00000104689785921061690380000008248710578940526260_">
			<use xlink:href="#SVGID_00000070826307549187973250000004548374968894251402_"  style="overflow:visible;"/>
		</clipPath>
		
			<linearGradient id="SVGID_00000146487274635532896040000005939446898621031579_" gradientUnits="userSpaceOnUse" x1="-461.525" y1="-11.6053" x2="-461.525" y2="296.925" gradientTransform="matrix(1 0 0 -1 0 258)">
			<stop  offset="0.0251" style="stop-color:#36171C"/>
			<stop  offset="0.377" style="stop-color:#621C28"/>
			<stop  offset="0.6283" style="stop-color:#A02C3C"/>
			<stop  offset="0.8794" style="stop-color:#D93A4F"/>
			<stop  offset="1" style="stop-color:#EF4056"/>
		</linearGradient>
		
			<path style="clip-path:url(#SVGID_00000104689785921061690380000008248710578940526260_);fill:url(#SVGID_00000146487274635532896040000005939446898621031579_);" d="
			M-127.8,250.55h-0.02c-0.01-0.96-0.07-1.96-0.2-3c-2.5-19.64-25-22.5-25-22.5s8.21-6.79,0.36-13.93
			c-7.86-7.14-30.71-0.36-30.71-0.36s11.43-10,4.29-25.35c-7.14-15.36-28.92-13.93-32.85-6.43c0,0-2.14-21.43-27.14-12.14
			c0,0,11.32-11.4-3.44-21.86c-14.76-10.45-35.05-6.56-46.12,2.25c0,0-0.82-8.2-12.91-11.89c-8.13-2.48-15.03,0.42-18.14,5.38
			c-3.14-20.2-12.57-34.78-23.95-39.22c-14.64-5.71-18.93,7.5-18.93,7.5c-7.86-33.57-45.71-26.07-45.71-26.07s8.26-13.64-1.07-25.71
			c-14.64-18.93-42.49-1.43-42.49-1.43c-3.21-6.78-13.21-11.43-28.03-7.73c-25.67,6.41-37.3,27.46-37.3,27.46
			c1.84-9.22-7.58-17.42-19.68-13.73c-12.09,3.69-12.91,11.89-12.91,11.89c-11.07-8.81-31.36-12.71-46.12-2.25
			c-14.76,10.45-3.44,21.86-3.44,21.86c-25-9.28-27.14,12.14-27.14,12.14c-3.93-7.5-25.71-8.93-32.85,6.43
			c-7.14,15.36,4.29,25.35,4.29,25.35s-22.85-6.78-30.71,0.36c-5.91,5.38-2.72,10.55-0.78,12.78c-0.29,0.5-0.54,1-0.74,1.49
			c-5.45,1.19-21.06,5.98-23.12,22.15c-0.05,0.42-0.09,0.83-0.12,1.24c-0.51,1.71-0.64,2.92-0.64,2.92
			c-3.93-7.5-25.71-8.93-32.85,6.43c-7.14,15.36,4.28,25.35,4.28,25.35s-22.85-6.78-30.71,0.36c-7.86,7.14,0.36,13.93,0.36,13.93
			s-22.5,2.86-25,22.5c-0.13,1.04-0.19,2.04-0.2,3h-0.02v26.56h667.47L-127.8,250.55L-127.8,250.55z"/>
	</g>
	<g>
		<defs>
			<rect id="SVGID_00000057128444909851656970000006255029110635349903_" y="-0.5" width="5455" height="257.5"/>
		</defs>
		<clipPath id="SVGID_00000021119821265077134660000004391530413769752484_">
			<use xlink:href="#SVGID_00000057128444909851656970000006255029110635349903_"  style="overflow:visible;"/>
		</clipPath>
		
			<linearGradient id="SVGID_00000025411256493910562800000012069215880770938253_" gradientUnits="userSpaceOnUse" x1="384.605" y1="-35.8714" x2="384.605" y2="272.6589" gradientTransform="matrix(1 0 0 -1 0 258)">
			<stop  offset="0.0251" style="stop-color:#36171C"/>
			<stop  offset="0.377" style="stop-color:#621C28"/>
			<stop  offset="0.6283" style="stop-color:#A02C3C"/>
			<stop  offset="0.8794" style="stop-color:#D93A4F"/>
			<stop  offset="1" style="stop-color:#EF4056"/>
		</linearGradient>
		
			<path style="clip-path:url(#SVGID_00000021119821265077134660000004391530413769752484_);fill:url(#SVGID_00000025411256493910562800000012069215880770938253_);" d="
			M718.31,274.81h-0.02c-0.01-0.96-0.07-1.96-0.2-3c-2.5-19.64-25-22.5-25-22.5s8.21-6.79,0.36-13.93
			c-7.86-7.14-30.71-0.36-30.71-0.36s11.43-10,4.29-25.35s-28.92-13.93-32.85-6.43c0,0-2.14-21.43-27.14-12.14
			c0,0,11.32-11.4-3.44-21.86c-14.76-10.45-35.05-6.56-46.12,2.25c0,0-0.82-8.2-12.91-11.89c-8.13-2.48-15.03,0.42-18.14,5.38
			c-3.14-20.2-12.57-34.78-23.95-39.22c-14.64-5.71-18.93,7.5-18.93,7.5c-7.86-33.57-45.71-26.07-45.71-26.07s8.26-13.64-1.07-25.71
			c-14.64-18.93-42.49-1.43-42.49-1.43c-3.21-6.79-13.21-11.43-28.03-7.73c-25.67,6.41-37.3,27.46-37.3,27.46
			c1.84-9.22-7.58-17.42-19.68-13.73c-12.09,3.69-12.91,11.89-12.91,11.89c-11.07-8.81-31.36-12.71-46.12-2.25
			c-14.76,10.45-3.44,21.86-3.44,21.86c-25-9.28-27.14,12.14-27.14,12.14c-3.93-7.5-25.71-8.93-32.85,6.43
			c-7.14,15.36,4.29,25.35,4.29,25.35s-22.85-6.78-30.71,0.36c-5.91,5.38-2.72,10.55-0.78,12.78c-0.29,0.5-0.54,1-0.74,1.49
			c-5.45,1.19-21.06,5.98-23.12,22.15c-0.05,0.42-0.09,0.83-0.12,1.24c-0.51,1.71-0.64,2.92-0.64,2.92
			c-3.93-7.5-25.71-8.93-32.85,6.43s4.29,25.35,4.29,25.35s-22.85-6.78-30.71,0.36s0.36,13.93,0.36,13.93s-22.5,2.86-25,22.5
			c-0.13,1.04-0.19,2.04-0.2,3h-0.01v26.56h667.47v-25.73H718.31z"/>
	</g>
	<g>
		<defs>
			<rect id="SVGID_00000117675827271944448700000000954573003737165247_" y="-0.5" width="5455" height="257.5"/>
		</defs>
		<clipPath id="SVGID_00000171680375673451377350000004833576891955465382_">
			<use xlink:href="#SVGID_00000117675827271944448700000000954573003737165247_"  style="overflow:visible;"/>
		</clipPath>
		
			<linearGradient id="SVGID_00000065043406308937082810000010909776866721539213_" gradientUnits="userSpaceOnUse" x1="834.2151" y1="-24.1509" x2="834.2151" y2="284.3794" gradientTransform="matrix(1 0 0 -1 0 258)">
			<stop  offset="0.0251" style="stop-color:#36171C"/>
			<stop  offset="0.377" style="stop-color:#621C28"/>
			<stop  offset="0.6283" style="stop-color:#A02C3C"/>
			<stop  offset="0.8794" style="stop-color:#D93A4F"/>
			<stop  offset="1" style="stop-color:#EF4056"/>
		</linearGradient>
		
			<path style="clip-path:url(#SVGID_00000171680375673451377350000004833576891955465382_);fill:url(#SVGID_00000065043406308937082810000010909776866721539213_);" d="
			M1167.92,263.09h-0.02c-0.01-0.96-0.07-1.96-0.2-3c-2.5-19.64-25-22.5-25-22.5s8.21-6.79,0.36-13.93
			c-7.86-7.14-30.71-0.36-30.71-0.36s11.43-10,4.29-25.35s-28.92-13.93-32.85-6.43c0,0-2.14-21.43-27.14-12.14
			c0,0,11.32-11.4-3.44-21.86s-35.05-6.56-46.12,2.25c0,0-0.82-8.2-12.91-11.89c-8.13-2.48-15.03,0.42-18.14,5.38
			c-3.14-20.2-12.57-34.78-23.95-39.22c-14.64-5.71-18.93,7.5-18.93,7.5c-7.86-33.57-45.71-26.07-45.71-26.07s8.26-13.64-1.07-25.71
			c-14.64-18.93-42.49-1.43-42.49-1.43c-3.21-6.78-13.21-11.43-28.03-7.73c-25.67,6.41-37.3,27.46-37.3,27.46
			c1.84-9.22-7.58-17.42-19.68-13.73c-12.09,3.69-12.91,11.89-12.91,11.89c-11.07-8.81-31.36-12.71-46.12-2.25
			c-14.76,10.45-3.44,21.86-3.44,21.86c-25-9.28-27.14,12.14-27.14,12.14c-3.93-7.5-25.71-8.93-32.85,6.43
			c-7.14,15.36,4.29,25.35,4.29,25.35s-22.85-6.78-30.71,0.36c-5.91,5.38-2.72,10.55-0.78,12.78c-0.29,0.5-0.54,1-0.74,1.49
			c-5.45,1.19-21.06,5.98-23.12,22.15c-0.05,0.42-0.09,0.83-0.12,1.24c-0.51,1.71-0.64,2.92-0.64,2.92
			c-3.93-7.5-25.71-8.93-32.85,6.43c-7.14,15.36,4.29,25.35,4.29,25.35s-22.85-6.78-30.71,0.36c-7.86,7.14,0.36,13.93,0.36,13.93
			s-22.5,2.86-25,22.5c-0.13,1.04-0.19,2.04-0.2,3h-0.01v26.56h667.47v-25.73H1167.92z"/>
	</g>
	<g>
		<defs>
			<rect id="SVGID_00000126304126512575192200000009995340816796592825_" y="-0.5" width="5455" height="257.5"/>
		</defs>
		<clipPath id="SVGID_00000154423737989484479130000006068494804870359684_">
			<use xlink:href="#SVGID_00000126304126512575192200000009995340816796592825_"  style="overflow:visible;"/>
		</clipPath>
		
			<linearGradient id="SVGID_00000147922810604514820490000016202451785958292112_" gradientUnits="userSpaceOnUse" x1="-12.36" y1="-235.0731" x2="-12.36" y2="349.6792" gradientTransform="matrix(1 0 0 -1 0 258)">
			<stop  offset="0.0251" style="stop-color:#36171C"/>
			<stop  offset="0.377" style="stop-color:#621C28"/>
			<stop  offset="0.6283" style="stop-color:#A02C3C"/>
			<stop  offset="0.8794" style="stop-color:#D93A4F"/>
			<stop  offset="1" style="stop-color:#EF4056"/>
		</linearGradient>
		
			<path style="clip-path:url(#SVGID_00000154423737989484479130000006068494804870359684_);fill:url(#SVGID_00000147922810604514820490000016202451785958292112_);" d="
			M620.15,456.95h-0.03c-0.03-1.83-0.14-3.71-0.39-5.69c-4.74-37.22-47.38-42.64-47.38-42.64s15.57-12.86,0.68-26.39
			c-14.89-13.54-58.2-0.68-58.2-0.68s21.66-18.95,8.12-48.05c-13.54-29.1-54.82-26.39-62.26-12.18c0,0-4.06-40.61-51.44-23.01
			c0,0,21.45-21.61-6.52-41.42s-66.43-12.43-87.4,4.27c0,0-1.55-15.54-24.47-22.53c-15.4-4.7-28.49,0.8-34.38,10.2
			c-5.94-38.28-23.83-65.92-45.4-74.34c-27.75-10.83-35.87,14.21-35.87,14.21c-14.89-63.62-86.63-49.41-86.63-49.41
			s15.66-25.86-2.03-48.73C58.8,54.71,6.01,87.87,6.01,87.87c-6.09-12.86-25.04-21.66-53.13-14.64
			c-48.65,12.15-70.7,52.05-70.7,52.05c3.5-17.48-14.37-33.02-37.29-26.03c-22.92,6.99-24.47,22.53-24.47,22.53
			c-20.98-16.7-59.43-24.08-87.4-4.27s-6.52,41.42-6.52,41.42c-47.38-17.6-51.44,23.01-51.44,23.01
			c-7.44-14.21-48.73-16.92-62.26,12.18c-13.54,29.1,8.12,48.05,8.12,48.05s-43.31-12.86-58.2,0.68
			c-11.21,10.19-5.16,19.99-1.48,24.22c-0.55,0.95-1.02,1.9-1.4,2.83c-10.33,2.25-39.91,11.33-43.81,41.98
			c-0.1,0.8-0.17,1.58-0.23,2.35c-0.98,3.24-1.21,5.53-1.21,5.53c-7.44-14.21-48.73-16.92-62.26,12.18
			c-13.54,29.1,8.12,48.05,8.12,48.05s-43.31-12.86-58.2,0.68c-14.89,13.54,0.68,26.39,0.68,26.39s-42.64,5.41-47.38,42.64
			c-0.25,1.98-0.36,3.86-0.39,5.69h-0.03v50.34H620.15V456.95z"/>
	</g>
	<g>
		<defs>
			<rect id="SVGID_00000049196703359784182460000012721643684610920075_" y="-0.5" width="5455" height="257.5"/>
		</defs>
		<clipPath id="SVGID_00000139289762714397724130000016860764244997768110_">
			<use xlink:href="#SVGID_00000049196703359784182460000012721643684610920075_"  style="overflow:visible;"/>
		</clipPath>
		
			<linearGradient id="SVGID_00000067946915057546456790000010253115817733115303_" gradientUnits="userSpaceOnUse" x1="737.8701" y1="-325.8589" x2="737.8701" y2="258.8935" gradientTransform="matrix(1 0 0 -1 0 258)">
			<stop  offset="0.0251" style="stop-color:#36171C"/>
			<stop  offset="0.377" style="stop-color:#621C28"/>
			<stop  offset="0.6283" style="stop-color:#A02C3C"/>
			<stop  offset="0.8794" style="stop-color:#D93A4F"/>
			<stop  offset="1" style="stop-color:#EF4056"/>
		</linearGradient>
		
			<path style="clip-path:url(#SVGID_00000139289762714397724130000016860764244997768110_);fill:url(#SVGID_00000067946915057546456790000010253115817733115303_);" d="
			M1370.37,547.74h-0.03c-0.03-1.83-0.14-3.71-0.39-5.69c-4.74-37.22-47.38-42.64-47.38-42.64s15.57-12.86,0.68-26.39
			c-14.89-13.54-58.2-0.68-58.2-0.68s21.66-18.95,8.12-48.05c-13.54-29.1-54.82-26.39-62.26-12.18c0,0-4.06-40.61-51.44-23.01
			c0,0,21.45-21.61-6.52-41.42s-66.43-12.43-87.4,4.27c0,0-1.55-15.54-24.47-22.53c-15.4-4.7-28.49,0.8-34.38,10.2
			c-5.94-38.28-23.83-65.92-45.4-74.34c-27.75-10.83-35.87,14.21-35.87,14.21c-14.89-63.62-86.63-49.41-86.63-49.41
			s15.66-25.86-2.03-48.73c-27.75-35.87-80.54-2.71-80.54-2.71c-6.09-12.86-25.04-21.66-53.13-14.64
			c-48.65,12.15-70.7,52.05-70.7,52.05c3.5-17.48-14.37-33.02-37.29-26.03s-24.47,22.53-24.47,22.53
			c-20.98-16.7-59.43-24.08-87.4-4.27s-6.52,41.42-6.52,41.42c-47.38-17.6-51.44,23.01-51.44,23.01
			c-7.44-14.21-48.73-16.92-62.26,12.18c-13.54,29.1,8.12,48.05,8.12,48.05s-43.31-12.86-58.2,0.68
			c-11.21,10.19-5.16,19.99-1.48,24.22c-0.55,0.95-1.02,1.9-1.4,2.83c-10.33,2.25-39.91,11.33-43.81,41.98
			c-0.1,0.8-0.17,1.58-0.23,2.35c-0.98,3.24-1.21,5.53-1.21,5.53c-7.44-14.21-48.73-16.92-62.26,12.18
			c-13.54,29.1,8.12,48.05,8.12,48.05s-43.31-12.86-58.2,0.68c-14.89,13.54,0.68,26.39,0.68,26.39s-42.64,5.41-47.38,42.64
			c-0.25,1.98-0.36,3.86-0.39,5.69h-0.03v50.34h1265.04v-48.76H1370.37z"/>
	</g>
	<g>
		<defs>
			<rect id="SVGID_00000119826504043275823690000013782988544989037225_" y="-0.5" width="5455" height="257.5"/>
		</defs>
		<clipPath id="SVGID_00000000925106407450885100000003471931752101618321_">
			<use xlink:href="#SVGID_00000119826504043275823690000013782988544989037225_"  style="overflow:visible;"/>
		</clipPath>
		
			<linearGradient id="SVGID_00000155826931806043579460000009291229616729081247_" gradientUnits="userSpaceOnUse" x1="1080.505" y1="-138.2094" x2="1080.505" y2="237.1899" gradientTransform="matrix(1 0 0 -1 0 258)">
			<stop  offset="0.0251" style="stop-color:#36171C"/>
			<stop  offset="0.377" style="stop-color:#621C28"/>
			<stop  offset="0.6283" style="stop-color:#A02C3C"/>
			<stop  offset="0.8794" style="stop-color:#D93A4F"/>
			<stop  offset="1" style="stop-color:#EF4056"/>
		</linearGradient>
		
			<path style="clip-path:url(#SVGID_00000000925106407450885100000003471931752101618321_);fill:url(#SVGID_00000155826931806043579460000009291229616729081247_);" d="
			M1486.56,373.02h-0.02c-0.02-1.17-0.09-2.38-0.25-3.65c-3.04-23.9-30.41-27.37-30.41-27.37s9.99-8.26,0.43-16.94
			c-9.56-8.69-37.37-0.43-37.37-0.43s13.9-12.17,5.21-30.85c-8.69-18.68-35.19-16.94-39.97-7.82c0,0-2.61-26.07-33.02-14.77
			c0,0,13.77-13.87-4.18-26.59c-17.96-12.72-42.64-7.98-56.11,2.74c0,0-1-9.98-15.71-14.46c-9.89-3.02-18.29,0.51-22.07,6.55
			c-3.82-24.57-15.3-42.32-29.14-47.72c-17.81-6.95-23.03,9.12-23.03,9.12c-9.56-40.84-55.61-31.72-55.61-31.72
			s10.05-16.6-1.3-31.28c-17.81-23.03-51.7-1.74-51.7-1.74c-3.91-8.26-16.08-13.9-34.11-9.4c-31.23,7.8-45.39,33.42-45.39,33.42
			c2.24-11.22-9.23-21.2-23.94-16.71s-15.71,14.46-15.71,14.46c-13.47-10.72-38.16-15.46-56.11-2.74
			c-17.96,12.72-4.18,26.59-4.18,26.59c-30.41-11.3-33.02,14.77-33.02,14.77c-4.78-9.12-31.28-10.86-39.97,7.82
			s5.21,30.85,5.21,30.85s-27.81-8.25-37.37,0.43c-7.2,6.54-3.31,12.84-0.95,15.55c-0.35,0.61-0.65,1.22-0.9,1.82
			c-6.63,1.45-25.62,7.27-28.13,26.95c-0.07,0.51-0.11,1.01-0.14,1.51c-0.63,2.08-0.78,3.55-0.78,3.55
			c-4.78-9.12-31.28-10.86-39.97,7.82c-8.69,18.68,5.21,30.85,5.21,30.85s-27.81-8.25-37.37,0.43c-9.56,8.69,0.43,16.94,0.43,16.94
			s-27.37,3.48-30.41,27.37c-0.16,1.27-0.23,2.48-0.25,3.65h-0.02v32.32h812.13v-31.32H1486.56z"/>
	</g>
	<g>
		<defs>
			<rect id="SVGID_00000137813366196210363880000015546758919328766649_" y="-0.5" width="5455" height="257.5"/>
		</defs>
		<clipPath id="SVGID_00000136413836978746469640000014295655806035818130_">
			<use xlink:href="#SVGID_00000137813366196210363880000015546758919328766649_"  style="overflow:visible;"/>
		</clipPath>
		
			<linearGradient id="SVGID_00000110445620417413847470000017755015567411714484_" gradientUnits="userSpaceOnUse" x1="1876.5908" y1="-236.4033" x2="1876.5908" y2="348.3491" gradientTransform="matrix(1 0 0 -1 0 258)">
			<stop  offset="0.0251" style="stop-color:#36171C"/>
			<stop  offset="0.377" style="stop-color:#621C28"/>
			<stop  offset="0.6283" style="stop-color:#A02C3C"/>
			<stop  offset="0.8794" style="stop-color:#D93A4F"/>
			<stop  offset="1" style="stop-color:#EF4056"/>
		</linearGradient>
		
			<path style="clip-path:url(#SVGID_00000136413836978746469640000014295655806035818130_);fill:url(#SVGID_00000110445620417413847470000017755015567411714484_);" d="
			M2509.09,458.29h-0.03c-0.03-1.83-0.14-3.71-0.39-5.69c-4.74-37.22-47.38-42.64-47.38-42.64s15.57-12.86,0.68-26.39
			c-14.89-13.54-58.2-0.68-58.2-0.68s21.66-18.95,8.12-48.05s-54.82-26.39-62.26-12.18c0,0-4.06-40.61-51.44-23.01
			c0,0,21.45-21.61-6.52-41.42s-66.43-12.43-87.4,4.27c0,0-1.55-15.54-24.47-22.53c-15.4-4.7-28.49,0.8-34.38,10.2
			c-5.94-38.28-23.83-65.92-45.4-74.34c-27.75-10.83-35.87,14.21-35.87,14.21c-14.89-63.62-86.63-49.41-86.63-49.41
			s15.66-25.86-2.03-48.73c-27.75-35.87-80.54-2.71-80.54-2.71c-6.09-12.86-25.04-21.66-53.13-14.64
			c-48.65,12.15-70.7,52.05-70.7,52.05c3.5-17.48-14.37-33.02-37.29-26.03c-22.92,6.99-24.47,22.53-24.47,22.53
			c-20.98-16.7-59.43-24.08-87.4-4.27s-6.52,41.42-6.52,41.42c-47.38-17.6-51.44,23.01-51.44,23.01
			c-7.44-14.21-48.73-16.92-62.26,12.18c-13.54,29.1,8.12,48.05,8.12,48.05s-43.31-12.86-58.2,0.68
			c-11.21,10.19-5.16,19.99-1.48,24.22c-0.55,0.95-1.02,1.9-1.4,2.83c-10.33,2.25-39.91,11.33-43.81,41.98
			c-0.1,0.8-0.17,1.58-0.23,2.35c-0.98,3.24-1.21,5.53-1.21,5.53c-7.44-14.21-48.73-16.92-62.26,12.18
			c-13.54,29.1,8.12,48.05,8.12,48.05s-43.31-12.86-58.2,0.68c-14.89,13.54,0.68,26.39,0.68,26.39s-42.64,5.41-47.38,42.64
			c-0.25,1.98-0.36,3.86-0.39,5.69h-0.03v50.34h1265.04v-48.76H2509.09z"/>
	</g>
	<g>
		<defs>
			<rect id="SVGID_00000010289261908018500830000013937188390263747473_" y="-0.5" width="5455" height="257.5"/>
		</defs>
		<clipPath id="SVGID_00000172399716173710916960000016914158354456009368_">
			<use xlink:href="#SVGID_00000010289261908018500830000013937188390263747473_"  style="overflow:visible;"/>
		</clipPath>
		
			<linearGradient id="SVGID_00000059989038091583392380000015556643638455153067_" gradientUnits="userSpaceOnUse" x1="2641.1113" y1="-246.4033" x2="2641.1113" y2="338.3491" gradientTransform="matrix(1 0 0 -1 0 258)">
			<stop  offset="0.0251" style="stop-color:#36171C"/>
			<stop  offset="0.377" style="stop-color:#621C28"/>
			<stop  offset="0.6283" style="stop-color:#A02C3C"/>
			<stop  offset="0.8794" style="stop-color:#D93A4F"/>
			<stop  offset="1" style="stop-color:#EF4056"/>
		</linearGradient>
		
			<path style="clip-path:url(#SVGID_00000172399716173710916960000016914158354456009368_);fill:url(#SVGID_00000059989038091583392380000015556643638455153067_);" d="
			M3273.61,468.29h-0.03c-0.03-1.83-0.14-3.71-0.39-5.69c-4.74-37.22-47.38-42.64-47.38-42.64s15.57-12.86,0.68-26.39
			c-14.89-13.54-58.2-0.68-58.2-0.68s21.66-18.95,8.12-48.05c-13.54-29.1-54.82-26.39-62.26-12.18c0,0-4.06-40.61-51.44-23.01
			c0,0,21.45-21.61-6.52-41.42s-66.43-12.43-87.4,4.27c0,0-1.55-15.54-24.47-22.53c-15.4-4.7-28.49,0.8-34.38,10.2
			c-5.94-38.28-23.83-65.92-45.4-74.34c-27.75-10.83-35.87,14.21-35.87,14.21c-14.89-63.62-86.63-49.41-86.63-49.41
			s15.66-25.86-2.03-48.73c-27.75-35.87-80.54-2.71-80.54-2.71c-6.09-12.86-25.04-21.66-53.13-14.64
			c-48.65,12.15-70.7,52.05-70.7,52.05c3.5-17.48-14.37-33.02-37.29-26.03c-22.92,6.99-24.47,22.53-24.47,22.53
			c-20.98-16.7-59.43-24.08-87.4-4.27s-6.52,41.42-6.52,41.42c-47.38-17.6-51.44,23.01-51.44,23.01
			c-7.44-14.21-48.73-16.92-62.26,12.18c-13.54,29.1,8.12,48.05,8.12,48.05s-43.31-12.86-58.2,0.68
			c-11.21,10.19-5.16,19.99-1.48,24.22c-0.55,0.95-1.02,1.9-1.4,2.83c-10.33,2.25-39.91,11.33-43.81,41.98
			c-0.1,0.8-0.17,1.58-0.23,2.35c-0.98,3.24-1.21,5.53-1.21,5.53c-7.44-14.21-48.73-16.92-62.26,12.18
			c-13.54,29.1,8.12,48.05,8.12,48.05s-43.31-12.86-58.2,0.68c-14.89,13.54,0.68,26.39,0.68,26.39s-42.64,5.41-47.38,42.64
			c-0.25,1.98-0.36,3.86-0.39,5.69h-0.03v50.34h1265.04v-48.76H3273.61z"/>
	</g>
	<g>
		<defs>
			<rect id="SVGID_00000062896578943440841220000015850644893268077988_" y="-0.5" width="5455" height="257.5"/>
		</defs>
		<clipPath id="SVGID_00000070802015877876194980000012356977951406675352_">
			<use xlink:href="#SVGID_00000062896578943440841220000015850644893268077988_"  style="overflow:visible;"/>
		</clipPath>
		
			<linearGradient id="SVGID_00000128451201772024416630000011170034925778093236_" gradientUnits="userSpaceOnUse" x1="3513.3813" y1="-236.4033" x2="3513.3813" y2="348.3491" gradientTransform="matrix(1 0 0 -1 0 258)">
			<stop  offset="0.0251" style="stop-color:#36171C"/>
			<stop  offset="0.377" style="stop-color:#621C28"/>
			<stop  offset="0.6283" style="stop-color:#A02C3C"/>
			<stop  offset="0.8794" style="stop-color:#D93A4F"/>
			<stop  offset="1" style="stop-color:#EF4056"/>
		</linearGradient>
		
			<path style="clip-path:url(#SVGID_00000070802015877876194980000012356977951406675352_);fill:url(#SVGID_00000128451201772024416630000011170034925778093236_);" d="
			M4145.88,458.29h-0.03c-0.03-1.83-0.14-3.71-0.39-5.69c-4.74-37.22-47.38-42.64-47.38-42.64s15.57-12.86,0.68-26.39
			c-14.89-13.54-58.2-0.68-58.2-0.68s21.66-18.95,8.12-48.05s-54.82-26.39-62.26-12.18c0,0-4.06-40.61-51.44-23.01
			c0,0,21.45-21.61-6.52-41.42s-66.43-12.43-87.4,4.27c0,0-1.55-15.54-24.47-22.53c-15.4-4.7-28.49,0.8-34.38,10.2
			c-5.94-38.28-23.83-65.92-45.4-74.34c-27.75-10.83-35.87,14.21-35.87,14.21c-14.89-63.62-86.63-49.41-86.63-49.41
			s15.66-25.86-2.03-48.73c-27.75-35.87-80.54-2.71-80.54-2.71c-6.09-12.86-25.04-21.66-53.13-14.64
			c-48.65,12.15-70.7,52.05-70.7,52.05c3.5-17.48-14.37-33.02-37.29-26.03c-22.92,6.99-24.47,22.53-24.47,22.53
			c-20.98-16.7-59.43-24.08-87.4-4.27s-6.52,41.42-6.52,41.42c-47.38-17.6-51.44,23.01-51.44,23.01
			c-7.44-14.21-48.73-16.92-62.26,12.18c-13.54,29.1,8.12,48.05,8.12,48.05s-43.31-12.86-58.2,0.68
			c-11.21,10.19-5.16,19.99-1.48,24.22c-0.55,0.95-1.02,1.9-1.4,2.83c-10.33,2.25-39.91,11.33-43.81,41.98
			c-0.1,0.8-0.17,1.58-0.23,2.35c-0.98,3.24-1.21,5.53-1.21,5.53c-7.44-14.21-48.73-16.92-62.26,12.18
			c-13.54,29.1,8.12,48.05,8.12,48.05s-43.31-12.86-58.2,0.68c-14.89,13.54,0.68,26.39,0.68,26.39s-42.64,5.41-47.38,42.64
			c-0.25,1.98-0.36,3.86-0.39,5.69h-0.03v50.34H4145.9v-48.76H4145.88z"/>
	</g>
	<g>
		<defs>
			<rect id="SVGID_00000039118389455869178280000003135577994898899886_" y="-0.5" width="5455" height="257.5"/>
		</defs>
		<clipPath id="SVGID_00000060737337344490225280000007489069785417020557_">
			<use xlink:href="#SVGID_00000039118389455869178280000003135577994898899886_"  style="overflow:visible;"/>
		</clipPath>
		
			<linearGradient id="SVGID_00000101099972891981095160000001489152182104978318_" gradientUnits="userSpaceOnUse" x1="4385.6411" y1="-236.4033" x2="4385.6411" y2="348.3491" gradientTransform="matrix(1 0 0 -1 0 258)">
			<stop  offset="0.0251" style="stop-color:#36171C"/>
			<stop  offset="0.377" style="stop-color:#621C28"/>
			<stop  offset="0.6283" style="stop-color:#A02C3C"/>
			<stop  offset="0.8794" style="stop-color:#D93A4F"/>
			<stop  offset="1" style="stop-color:#EF4056"/>
		</linearGradient>
		
			<path style="clip-path:url(#SVGID_00000060737337344490225280000007489069785417020557_);fill:url(#SVGID_00000101099972891981095160000001489152182104978318_);" d="
			M5018.15,458.29h-0.03c-0.03-1.83-0.14-3.71-0.39-5.69c-4.74-37.22-47.38-42.64-47.38-42.64s15.57-12.86,0.68-26.39
			c-14.89-13.54-58.2-0.68-58.2-0.68s21.66-18.95,8.12-48.05c-13.54-29.1-54.82-26.39-62.27-12.18c0,0-4.06-40.61-51.44-23.01
			c0,0,21.45-21.61-6.52-41.42s-66.43-12.43-87.4,4.27c0,0-1.55-15.54-24.47-22.53c-15.4-4.7-28.49,0.8-34.38,10.2
			c-5.94-38.28-23.83-65.92-45.4-74.34c-27.75-10.83-35.87,14.21-35.87,14.21c-14.89-63.62-86.63-49.41-86.63-49.41
			s15.66-25.86-2.03-48.73c-27.75-35.87-80.54-2.71-80.54-2.71c-6.09-12.86-25.04-21.66-53.13-14.64
			c-48.65,12.15-70.7,52.05-70.7,52.05c3.5-17.48-14.37-33.02-37.29-26.03s-24.47,22.53-24.47,22.53
			c-20.98-16.7-59.43-24.08-87.4-4.27c-27.97,19.81-6.52,41.42-6.52,41.42c-47.38-17.6-51.44,23.01-51.44,23.01
			c-7.44-14.21-48.73-16.92-62.26,12.18c-13.54,29.1,8.12,48.05,8.12,48.05s-43.31-12.86-58.2,0.68
			c-11.21,10.19-5.16,19.99-1.48,24.22c-0.55,0.95-1.02,1.9-1.4,2.83c-10.33,2.25-39.91,11.33-43.81,41.98
			c-0.1,0.8-0.17,1.58-0.23,2.35c-0.98,3.24-1.21,5.53-1.21,5.53c-7.44-14.21-48.73-16.92-62.26,12.18
			c-13.54,29.1,8.12,48.05,8.12,48.05s-43.31-12.86-58.2,0.68c-14.89,13.54,0.68,26.39,0.68,26.39s-42.64,5.41-47.38,42.64
			c-0.25,1.98-0.36,3.86-0.39,5.69h-0.03v50.34h1265.04v-48.76H5018.15z"/>
	</g>
	<g>
		<defs>
			<rect id="SVGID_00000088826471488539400790000015224500189259959687_" y="-0.5" width="5455" height="257.5"/>
		</defs>
		<clipPath id="SVGID_00000018946193577352180240000006878720413797822391_">
			<use xlink:href="#SVGID_00000088826471488539400790000015224500189259959687_"  style="overflow:visible;"/>
		</clipPath>
		
			<linearGradient id="SVGID_00000133487250994170286000000000076592538118309017_" gradientUnits="userSpaceOnUse" x1="5257.9214" y1="-236.4033" x2="5257.9214" y2="348.3491" gradientTransform="matrix(1 0 0 -1 0 258)">
			<stop  offset="0.0251" style="stop-color:#36171C"/>
			<stop  offset="0.377" style="stop-color:#621C28"/>
			<stop  offset="0.6283" style="stop-color:#A02C3C"/>
			<stop  offset="0.8794" style="stop-color:#D93A4F"/>
			<stop  offset="1" style="stop-color:#EF4056"/>
		</linearGradient>
		
			<path style="clip-path:url(#SVGID_00000018946193577352180240000006878720413797822391_);fill:url(#SVGID_00000133487250994170286000000000076592538118309017_);" d="
			M5890.42,458.29h-0.03c-0.03-1.83-0.14-3.71-0.39-5.69c-4.74-37.22-47.38-42.64-47.38-42.64s15.57-12.86,0.68-26.39
			c-14.89-13.54-58.2-0.68-58.2-0.68s21.66-18.95,8.12-48.05c-13.54-29.1-54.82-26.39-62.26-12.18c0,0-4.06-40.61-51.44-23.01
			c0,0,21.45-21.61-6.52-41.42s-66.43-12.43-87.4,4.27c0,0-1.55-15.54-24.47-22.53c-15.4-4.7-28.49,0.8-34.38,10.2
			c-5.94-38.28-23.83-65.92-45.4-74.34c-27.75-10.83-35.87,14.21-35.87,14.21c-14.89-63.62-86.63-49.41-86.63-49.41
			s15.66-25.86-2.03-48.73c-27.75-35.87-80.54-2.71-80.54-2.71c-6.09-12.86-25.04-21.66-53.13-14.64
			c-48.65,12.15-70.7,52.05-70.7,52.05c3.5-17.48-14.37-33.02-37.29-26.03s-24.47,22.53-24.47,22.53
			c-20.98-16.7-59.43-24.08-87.4-4.27c-27.97,19.81-6.52,41.42-6.52,41.42c-47.38-17.6-51.44,23.01-51.44,23.01
			c-7.44-14.21-48.73-16.92-62.26,12.18c-13.54,29.1,8.12,48.05,8.12,48.05s-43.31-12.86-58.2,0.68
			c-11.21,10.19-5.16,19.99-1.48,24.22c-0.55,0.95-1.02,1.9-1.4,2.83c-10.33,2.25-39.91,11.33-43.81,41.98
			c-0.1,0.8-0.17,1.58-0.23,2.35c-0.98,3.24-1.21,5.53-1.21,5.53c-7.44-14.21-48.73-16.92-62.26,12.18s8.12,48.05,8.12,48.05
			s-43.31-12.86-58.2,0.68s0.68,26.39,0.68,26.39s-42.64,5.41-47.38,42.64c-0.25,1.98-0.36,3.86-0.39,5.69h-0.03v50.34h1265.04
			v-48.76H5890.42z"/>
	</g>
</g>
</svg>
