<?xml version="1.0" encoding="utf-8"?>
<!-- Generator: Adobe Illustrator 26.5.0, SVG Export Plug-In . SVG Version: 6.00 Build 0)  -->
<svg version="1.1" id="Layer_1" xmlns="http://www.w3.org/2000/svg" xmlns:xlink="http://www.w3.org/1999/xlink" x="0px" y="0px"
	 viewBox="0 0 350 193.5" style="enable-background:new 0 0 350 193.5;" xml:space="preserve">
<style type="text/css">
	.st0{fill:#6F2033;}
	.st1{fill:none;stroke:#DAA573;stroke-linecap:round;stroke-miterlimit:10;stroke-dasharray:0.1,1.5;}
</style>
<g>
	<path class="st0" d="M348.27,192.05H1.3v-60.83l0.13-1.84c1.91-21.21,20.15-38.49,43.94-42.57V44.4
		C46.26,21.34,65.23,2.92,88.5,2.92s42.24,18.41,43.14,41.48h0.01c0.89-23.07,19.86-41.48,43.14-41.48
		c23.27,0,42.24,18.41,43.14,41.48l0,0l0,0c0.89-23.05,19.86-41.48,43.14-41.48c23.27,0,42.24,18.41,43.14,41.48v42.41
		c23.79,4.08,42.03,21.36,43.94,42.57h0.13v62.67H348.27z"/>
	<path class="st1" d="M23.87,159.72c0-17.86,14.48-32.34,32.34-32.34s32.34,14.48,32.34,32.34"/>
	<path class="st1" d="M34.65,159.72c0-11.91,9.65-21.56,21.56-21.56s21.56,9.65,21.56,21.56"/>
	<path class="st1" d="M45.43,159.72c0-5.95,4.83-10.77,10.77-10.77s10.77,4.83,10.77,10.77"/>
	<path class="st1" d="M50.82,159.72c0-2.97,2.42-5.39,5.39-5.39c2.97,0,5.39,2.42,5.39,5.39"/>
	<rect x="23.87" y="127.36" class="st1" width="64.69" height="64.69"/>
	<line class="st1" x1="88.56" y1="159.72" x2="23.87" y2="159.72"/>
	<line class="st1" x1="23.87" y1="159.72" x2="23.87" y2="192.13"/>
	<line class="st1" x1="34.65" y1="159.72" x2="34.65" y2="192.13"/>
	<line class="st1" x1="45.43" y1="159.72" x2="45.43" y2="192.13"/>
	<line class="st1" x1="56.22" y1="127.41" x2="56.22" y2="192.13"/>
	<line class="st1" x1="110.09" y1="127.41" x2="110.09" y2="192.13"/>
	<line class="st1" x1="66.99" y1="159.72" x2="66.99" y2="192.13"/>
	<line class="st1" x1="77.78" y1="159.72" x2="77.78" y2="192.13"/>
	<line class="st1" x1="88.56" y1="159.72" x2="88.56" y2="192.13"/>
	<line class="st1" x1="88.56" y1="159.72" x2="23.87" y2="159.72"/>
	<line class="st1" x1="88.56" y1="170.49" x2="23.87" y2="170.49"/>
	<line class="st1" x1="88.56" y1="181.28" x2="23.87" y2="181.28"/>
	<path class="st1" d="M23.87,159.72c0-17.86-5.06-31.48-11.29-30.41C6.35,130.37,1.3,144.84,1.3,161.66"/>
	<path class="st1" d="M20.1,160.04c0-11.8-3.37-20.86-7.52-20.28c-4.16,0.6-7.52,10.25-7.52,21.56"/>
	<path class="st1" d="M16.34,160.36c0-5.83-1.69-10.38-3.76-10.13c-2.07,0.23-3.76,5.06-3.76,10.77"/>
	<polygon class="st1" points="1.3,192.05 23.87,192.05 23.87,127.36 1.3,131.23 	"/>
	<line class="st1" x1="1.3" y1="161.64" x2="23.87" y2="159.72"/>
	<line class="st1" x1="23.87" y1="159.72" x2="23.87" y2="192.13"/>
	<line class="st1" x1="20.1" y1="160.04" x2="20.1" y2="192.13"/>
	<line class="st1" x1="16.34" y1="160.36" x2="16.34" y2="192.13"/>
	<line class="st1" x1="12.58" y1="129.33" x2="12.58" y2="192.13"/>
	<line class="st1" x1="8.82" y1="161" x2="8.82" y2="192.13"/>
	<line class="st1" x1="5.06" y1="161.32" x2="5.06" y2="192.13"/>
	<line class="st1" x1="1.3" y1="161.64" x2="1.3" y2="192.13"/>
	<line class="st1" x1="1.3" y1="161.64" x2="23.87" y2="159.72"/>
	<line class="st1" x1="1.3" y1="171.79" x2="23.87" y2="170.49"/>
	<line class="st1" x1="1.3" y1="181.92" x2="23.87" y2="181.28"/>
	<rect x="88.53" y="127.36" class="st1" width="43.13" height="64.69"/>
	<path class="st1" d="M88.53,148.93c0-11.91,9.65-21.56,21.56-21.56s21.56,9.65,21.56,21.56"/>
	<path class="st1" d="M99.3,148.93c0-5.95,4.83-10.77,10.77-10.77c5.95,0,10.77,4.83,10.77,10.77"/>
	<line class="st1" x1="99.3" y1="148.93" x2="99.3" y2="192.07"/>
	<line class="st1" x1="120.87" y1="148.93" x2="120.87" y2="192.07"/>
	<line class="st1" x1="110.09" y1="85.9" x2="110.09" y2="127.41"/>
	<line class="st1" x1="131.66" y1="159.72" x2="88.53" y2="159.72"/>
	<line class="st1" x1="131.66" y1="170.49" x2="88.53" y2="170.49"/>
	<line class="st1" x1="131.66" y1="181.28" x2="88.53" y2="181.28"/>
	<line class="st1" x1="174.8" y1="127.41" x2="174.8" y2="159.61"/>
	<rect x="153.23" y="127.36" class="st1" width="43.13" height="64.69"/>
	<path class="st1" d="M153.23,148.93c0-11.91,9.65-21.56,21.56-21.56c11.91,0,21.56,9.65,21.56,21.56"/>
	<path class="st1" d="M164.01,148.93c0-5.95,4.83-10.77,10.77-10.77s10.77,4.83,10.77,10.77"/>
	<line class="st1" x1="164.01" y1="148.93" x2="164.01" y2="159.77"/>
	<line class="st1" x1="185.57" y1="148.93" x2="185.57" y2="159.77"/>
	<line class="st1" x1="196.35" y1="159.72" x2="153.23" y2="159.72"/>
	<line class="st1" x1="88.53" y1="127.36" x2="88.53" y2="86.12"/>
	<line class="st1" x1="120.88" y1="85.9" x2="88.53" y2="85.9"/>
	<path class="st1" d="M120.84,41.94C119.2,20.02,105.35,2.92,88.51,2.92c-16.85,0-30.71,17.12-32.34,39.02
		C56.17,41.94,120.84,41.94,120.84,41.94z"/>
	<path class="st1" d="M120.87,58.14c0-8.94-7.25-16.17-16.17-16.17c-8.94,0-16.17,7.25-16.17,16.17"/>
	<path class="st1" d="M93.92,58.14c0-5.95,4.83-10.77,10.77-10.77c5.95,0,10.77,4.83,10.77,10.77"/>
	<line class="st1" x1="120.87" y1="41.94" x2="120.87" y2="85.9"/>
	<line class="st1" x1="120.88" y1="58.14" x2="88.53" y2="58.14"/>
	<line class="st1" x1="120.88" y1="71.75" x2="88.53" y2="71.75"/>
	<line class="st1" x1="88.53" y1="58.14" x2="88.53" y2="85.9"/>
	<line class="st1" x1="93.92" y1="58.14" x2="93.92" y2="85.9"/>
	<line class="st1" x1="104.7" y1="42.03" x2="104.7" y2="85.9"/>
	<line class="st1" x1="115.49" y1="58.14" x2="115.49" y2="85.9"/>
	<line class="st1" x1="88.53" y1="85.66" x2="88.53" y2="55.44"/>
	<path class="st1" d="M83.09,58.14c0-5.95-4.83-10.77-10.77-10.77c-5.95,0-10.79,4.83-10.79,10.77"/>
	<line class="st1" x1="56.12" y1="58.14" x2="88.48" y2="58.14"/>
	<line class="st1" x1="56.12" y1="71.75" x2="88.48" y2="71.75"/>
	<line class="st1" x1="83.09" y1="58.14" x2="83.09" y2="85.9"/>
	<line class="st1" x1="72.3" y1="42.03" x2="72.3" y2="85.9"/>
	<line class="st1" x1="61.53" y1="58.14" x2="61.53" y2="85.9"/>
	<path class="st1" d="M99.35,41.94C98.79,20.02,94.16,2.92,88.51,2.92c-5.64,0-10.29,17.12-10.83,39.02"/>
	<path class="st1" d="M56.12,58.14c0-8.94-2.41-15.08-5.38-13.75c-2.97,1.3-5.38,8.75-5.38,16.65"/>
	<path class="st1" d="M47.15,60.57c0-5.38,1.6-10.35,3.59-11.1c1.98-0.77,3.59,3.34,3.59,9.17"/>
	<line class="st1" x1="56.12" y1="58.14" x2="45.36" y2="61.04"/>
	<line class="st1" x1="56.12" y1="71.75" x2="45.36" y2="73.2"/>
	<line class="st1" x1="56.12" y1="85.9" x2="56.12" y2="58.14"/>
	<path class="st1" d="M45.36,86.77"/>
	<path class="st1" d="M45.36,44.39"/>
	<line class="st1" x1="47.15" y1="60.57" x2="47.15" y2="86.54"/>
	<line class="st1" x1="50.74" y1="44.39" x2="50.74" y2="86.17"/>
	<line class="st1" x1="54.32" y1="58.63" x2="54.32" y2="85.9"/>
	<path class="st1" d="M120.88,58.14c0-8.94,2.41-15.08,5.38-13.75c2.97,1.3,5.38,8.75,5.38,16.65"/>
	<path class="st1" d="M129.86,60.57c0-5.38-1.6-10.35-3.59-11.1c-1.98-0.77-3.59,3.34-3.59,9.17"/>
	<line class="st1" x1="120.88" y1="58.14" x2="131.66" y2="61.04"/>
	<line class="st1" x1="120.88" y1="71.75" x2="131.66" y2="73.2"/>
	<polyline class="st1" points="131.66,61.04 131.66,85.9 120.88,85.9 120.88,58.14 	"/>
	<line class="st1" x1="129.86" y1="60.57" x2="129.86" y2="85.9"/>
	<line class="st1" x1="126.28" y1="44.23" x2="126.28" y2="85.9"/>
	<line class="st1" x1="122.69" y1="58.63" x2="122.69" y2="85.9"/>
	<path class="st1" d="M120.87,85.9"/>
	<line class="st1" x1="131.66" y1="44.4" x2="120.87" y2="41.94"/>
	<path class="st1" d="M131.66,83.62"/>
	<line class="st1" x1="88.48" y1="85.9" x2="56.13" y2="85.9"/>
	<path class="st1" d="M56.13,58.14c0-8.94,7.25-16.17,16.17-16.17c8.94,0,16.17,7.25,16.17,16.17"/>
	<line class="st1" x1="45.36" y1="44.4" x2="56.17" y2="41.94"/>
	<path class="st1" d="M131.64,44.39"/>
	<path class="st1" d="M56.22,85.91c-17.45,0-31.67,18.43-32.34,41.5"/>
	<line class="st1" x1="131.66" y1="85.9" x2="131.66" y2="127.48"/>
	<line class="st1" x1="174.8" y1="85.9" x2="174.8" y2="127.48"/>
	<line class="st1" x1="217.9" y1="85.9" x2="217.9" y2="127.48"/>
	<line class="st1" x1="56.13" y1="41.94" x2="56.13" y2="85.9"/>
	<path class="st1" d="M56.22,85.91c-17.45,0-31.67,18.43-32.34,41.5"/>
	<path class="st1" d="M66.96,85.93c-11.65,0-21.14,18.41-21.59,41.48"/>
	<path class="st1" d="M77.71,85.93c-5.9,0-10.73,18.41-10.95,41.48"/>
	<path class="st1" d="M56.17,85.9c-25.68,0-46.6,19.6-47.59,44.1"/>
	<path class="st1" d="M56.17,85.9c-21.62,0-39.25,19.03-40.08,42.85"/>
	<line class="st1" x1="27.17" y1="109.92" x2="131.67" y2="109.92"/>
	<line class="st1" x1="25.51" y1="115.35" x2="131.67" y2="115.35"/>
	<line class="st1" x1="24.4" y1="121.31" x2="131.67" y2="121.31"/>
	<line class="st1" x1="29.35" y1="105.06" x2="131.67" y2="105.06"/>
	<line class="st1" x1="31.8" y1="100.71" x2="131.67" y2="100.71"/>
	<line class="st1" x1="34.64" y1="96.92" x2="131.67" y2="96.92"/>
	<line class="st1" x1="37.69" y1="93.67" x2="131.67" y2="93.67"/>
	<line class="st1" x1="41.08" y1="90.96" x2="131.67" y2="90.96"/>
	<line class="st1" x1="44.55" y1="88.78" x2="131.67" y2="88.78"/>
	<line class="st1" x1="48.48" y1="87.17" x2="131.67" y2="87.17"/>
	<line class="st1" x1="24.42" y1="121.31" x2="2.02" y2="125.18"/>
	<line class="st1" x1="25.56" y1="115.35" x2="3.66" y2="119.21"/>
	<line class="st1" x1="27.19" y1="109.92" x2="6.03" y2="113.79"/>
	<line class="st1" x1="29.35" y1="105.06" x2="8.98" y2="108.9"/>
	<line class="st1" x1="31.8" y1="100.71" x2="12.41" y2="104.57"/>
	<line class="st1" x1="34.64" y1="96.92" x2="16.11" y2="100.78"/>
	<line class="st1" x1="37.67" y1="93.67" x2="20.07" y2="97.53"/>
	<line class="st1" x1="41.06" y1="90.96" x2="24.01" y2="94.82"/>
	<line class="st1" x1="44.6" y1="88.78" x2="27.83" y2="92.65"/>
	<line class="st1" x1="48.45" y1="87.17" x2="31.26" y2="91.01"/>
	<line class="st1" x1="59.89" y1="25.62" x2="88.44" y2="25.62"/>
	<line class="st1" x1="58.16" y1="30.7" x2="88.44" y2="30.7"/>
	<line class="st1" x1="56.89" y1="36.28" x2="88.44" y2="36.28"/>
	<line class="st1" x1="62.05" y1="21.06" x2="88.44" y2="21.06"/>
	<line class="st1" x1="64.53" y1="16.99" x2="88.43" y2="16.99"/>
	<line class="st1" x1="67.27" y1="13.45" x2="88.43" y2="13.45"/>
	<line class="st1" x1="70.17" y1="10.4" x2="88.44" y2="10.4"/>
	<line class="st1" x1="73.44" y1="7.86" x2="88.44" y2="7.86"/>
	<line class="st1" x1="76.76" y1="5.84" x2="88.44" y2="5.84"/>
	<line class="st1" x1="80.23" y1="4.31" x2="88.44" y2="4.31"/>
	<line class="st1" x1="45.98" y1="38.73" x2="56.87" y2="36.25"/>
	<line class="st1" x1="47.25" y1="33.17" x2="58.14" y2="30.7"/>
	<line class="st1" x1="49.26" y1="28.1" x2="59.92" y2="25.62"/>
	<line class="st1" x1="51.64" y1="23.54" x2="62.09" y2="21.06"/>
	<line class="st1" x1="54.48" y1="19.47" x2="64.54" y2="16.99"/>
	<line class="st1" x1="57.65" y1="15.93" x2="67.31" y2="13.45"/>
	<line class="st1" x1="60.93" y1="12.88" x2="70.2" y2="10.4"/>
	<line class="st1" x1="64.24" y1="10.34" x2="73.42" y2="7.86"/>
	<line class="st1" x1="67.68" y1="8.32" x2="76.86" y2="5.84"/>
	<line class="st1" x1="117.02" y1="25.62" x2="88.44" y2="25.62"/>
	<line class="st1" x1="118.77" y1="30.7" x2="88.44" y2="30.7"/>
	<line class="st1" x1="120.04" y1="36.28" x2="88.44" y2="36.28"/>
	<line class="st1" x1="114.86" y1="21.06" x2="88.43" y2="21.06"/>
	<line class="st1" x1="112.38" y1="16.99" x2="88.44" y2="16.99"/>
	<line class="st1" x1="109.64" y1="13.45" x2="88.44" y2="13.45"/>
	<line class="st1" x1="106.72" y1="10.4" x2="88.43" y2="10.4"/>
	<line class="st1" x1="103.46" y1="7.86" x2="88.44" y2="7.86"/>
	<line class="st1" x1="100.13" y1="5.84" x2="88.44" y2="5.84"/>
	<line class="st1" x1="96.65" y1="4.31" x2="88.44" y2="4.31"/>
	<line class="st1" x1="130.96" y1="38.73" x2="120.05" y2="36.25"/>
	<line class="st1" x1="129.7" y1="33.17" x2="118.78" y2="30.7"/>
	<line class="st1" x1="127.68" y1="28.1" x2="117" y2="25.62"/>
	<line class="st1" x1="125.3" y1="23.54" x2="114.82" y2="21.06"/>
	<line class="st1" x1="122.46" y1="19.47" x2="112.37" y2="16.99"/>
	<line class="st1" x1="119.28" y1="15.93" x2="109.6" y2="13.45"/>
	<line class="st1" x1="116" y1="12.88" x2="106.69" y2="10.4"/>
	<line class="st1" x1="112.67" y1="10.34" x2="103.47" y2="7.86"/>
	<line class="st1" x1="109.22" y1="8.32" x2="100.03" y2="5.84"/>
	<path class="st1" d="M207.12,41.94c-1.63-21.91-15.48-39.02-32.34-39.02s-30.71,17.12-32.34,39.02H207.12z"/>
	<path class="st1" d="M207.15,58.14c0-8.94-7.25-16.17-16.17-16.17c-8.94,0-16.17,7.25-16.17,16.17"/>
	<path class="st1" d="M180.21,58.14c0-5.95,4.83-10.77,10.77-10.77s10.77,4.83,10.77,10.77"/>
	<line class="st1" x1="207.15" y1="41.94" x2="207.15" y2="85.9"/>
	<line class="st1" x1="207.17" y1="58.14" x2="174.81" y2="58.14"/>
	<line class="st1" x1="207.17" y1="71.75" x2="174.81" y2="71.75"/>
	<line class="st1" x1="174.81" y1="58.14" x2="174.81" y2="85.9"/>
	<line class="st1" x1="180.21" y1="58.14" x2="180.21" y2="85.9"/>
	<line class="st1" x1="190.98" y1="42.03" x2="190.98" y2="85.9"/>
	<line class="st1" x1="201.76" y1="58.14" x2="201.76" y2="85.9"/>
	<line class="st1" x1="174.81" y1="65.5" x2="174.81" y2="3.17"/>
	<path class="st1" d="M169.37,58.14c0-5.95-4.83-10.77-10.77-10.77c-5.95,0-10.77,4.83-10.77,10.77"/>
	<line class="st1" x1="142.4" y1="58.14" x2="174.77" y2="58.14"/>
	<line class="st1" x1="142.4" y1="71.75" x2="174.77" y2="71.75"/>
	<line class="st1" x1="174.76" y1="58.14" x2="174.76" y2="85.9"/>
	<line class="st1" x1="169.37" y1="58.14" x2="169.37" y2="85.9"/>
	<line class="st1" x1="158.59" y1="42.03" x2="158.59" y2="85.9"/>
	<line class="st1" x1="147.81" y1="58.14" x2="147.81" y2="85.9"/>
	<path class="st1" d="M185.63,41.94c-0.55-21.91-5.19-39.02-10.83-39.02c-5.64,0-10.29,17.12-10.83,39.02"/>
	<path class="st1" d="M207.17,58.14c0-8.94,2.41-15.08,5.38-13.75c2.97,1.3,5.38,8.75,5.38,16.65"/>
	<path class="st1" d="M216.15,60.57c0-5.38-1.6-10.35-3.59-11.1c-1.98-0.77-3.59,3.34-3.59,9.17"/>
	<line class="st1" x1="207.17" y1="58.14" x2="217.94" y2="61.04"/>
	<line class="st1" x1="207.17" y1="71.75" x2="217.94" y2="73.2"/>
	<polyline class="st1" points="217.94,61.04 217.94,85.9 207.17,85.9 207.17,58.14 	"/>
	<line class="st1" x1="216.15" y1="60.57" x2="216.15" y2="85.9"/>
	<line class="st1" x1="212.56" y1="44.23" x2="212.56" y2="85.9"/>
	<line class="st1" x1="208.97" y1="58.63" x2="208.97" y2="85.9"/>
	<path class="st1" d="M217.94,83.62"/>
	<line class="st1" x1="207.15" y1="41.94" x2="217.94" y2="44.4"/>
	<polyline class="st1" points="142.42,41.94 142.42,85.9 207.15,85.9 	"/>
	<path class="st1" d="M142.42,58.14c0-8.94-2.41-15.08-5.38-13.75c-2.97,1.3-5.38,8.75-5.38,16.65"/>
	<path class="st1" d="M133.43,60.57c0-5.38,1.6-10.35,3.59-11.1c1.98-0.77,3.59,3.34,3.59,9.17"/>
	<line class="st1" x1="142.42" y1="58.14" x2="131.64" y2="61.04"/>
	<line class="st1" x1="142.42" y1="71.75" x2="131.64" y2="73.2"/>
	<line class="st1" x1="131.64" y1="85.9" x2="142.42" y2="85.9"/>
	<path class="st1" d="M131.64,61.04"/>
	<line class="st1" x1="133.43" y1="60.57" x2="133.43" y2="85.9"/>
	<line class="st1" x1="137.04" y1="44.23" x2="137.04" y2="85.9"/>
	<line class="st1" x1="140.62" y1="58.63" x2="140.62" y2="85.9"/>
	<path class="st1" d="M142.43,85.9"/>
	<line class="st1" x1="131.64" y1="44.4" x2="142.43" y2="41.94"/>
	<path class="st1" d="M131.64,85.9"/>
	<path class="st1" d="M142.42,58.14c0-8.94,7.25-16.17,16.17-16.17c8.94,0,16.17,7.25,16.17,16.17"/>
	<path class="st1" d="M217.93,44.39"/>
	<line class="st1" x1="146.18" y1="25.62" x2="174.73" y2="25.62"/>
	<line class="st1" x1="144.44" y1="30.7" x2="174.71" y2="30.7"/>
	<line class="st1" x1="143.17" y1="36.28" x2="174.71" y2="36.28"/>
	<line class="st1" x1="148.34" y1="21.06" x2="174.73" y2="21.06"/>
	<line class="st1" x1="150.81" y1="16.99" x2="174.71" y2="16.99"/>
	<line class="st1" x1="153.56" y1="13.45" x2="174.71" y2="13.45"/>
	<line class="st1" x1="156.46" y1="10.4" x2="174.71" y2="10.4"/>
	<line class="st1" x1="159.72" y1="7.86" x2="174.71" y2="7.86"/>
	<line class="st1" x1="163.05" y1="5.84" x2="174.71" y2="5.84"/>
	<line class="st1" x1="166.52" y1="4.31" x2="174.71" y2="4.31"/>
	<line class="st1" x1="132.27" y1="38.73" x2="143.16" y2="36.25"/>
	<line class="st1" x1="133.54" y1="33.17" x2="144.43" y2="30.7"/>
	<line class="st1" x1="135.55" y1="28.1" x2="146.21" y2="25.62"/>
	<line class="st1" x1="137.93" y1="23.54" x2="148.38" y2="21.06"/>
	<line class="st1" x1="140.77" y1="19.47" x2="150.83" y2="16.99"/>
	<line class="st1" x1="143.93" y1="15.93" x2="153.6" y2="13.45"/>
	<line class="st1" x1="147.21" y1="12.88" x2="156.49" y2="10.4"/>
	<line class="st1" x1="150.52" y1="10.34" x2="159.71" y2="7.86"/>
	<line class="st1" x1="153.96" y1="8.32" x2="163.15" y2="5.84"/>
	<line class="st1" x1="203.3" y1="25.62" x2="174.71" y2="25.62"/>
	<line class="st1" x1="205.05" y1="30.7" x2="174.73" y2="30.7"/>
	<line class="st1" x1="206.32" y1="36.28" x2="174.73" y2="36.28"/>
	<line class="st1" x1="201.15" y1="21.06" x2="174.71" y2="21.06"/>
	<line class="st1" x1="198.67" y1="16.99" x2="174.71" y2="16.99"/>
	<line class="st1" x1="195.91" y1="13.45" x2="174.71" y2="13.45"/>
	<line class="st1" x1="193.01" y1="10.4" x2="174.73" y2="10.4"/>
	<line class="st1" x1="189.74" y1="7.86" x2="174.73" y2="7.86"/>
	<line class="st1" x1="186.42" y1="5.84" x2="174.73" y2="5.84"/>
	<line class="st1" x1="182.93" y1="4.31" x2="174.71" y2="4.31"/>
	<line class="st1" x1="217.24" y1="38.73" x2="206.34" y2="36.25"/>
	<line class="st1" x1="215.99" y1="33.17" x2="205.07" y2="30.7"/>
	<line class="st1" x1="213.96" y1="28.1" x2="203.29" y2="25.62"/>
	<line class="st1" x1="211.58" y1="23.54" x2="201.1" y2="21.06"/>
	<line class="st1" x1="208.73" y1="19.47" x2="198.65" y2="16.99"/>
	<line class="st1" x1="205.56" y1="15.93" x2="195.88" y2="13.45"/>
	<line class="st1" x1="202.28" y1="12.88" x2="192.98" y2="10.4"/>
	<line class="st1" x1="198.96" y1="10.34" x2="189.76" y2="7.86"/>
	<line class="st1" x1="195.5" y1="8.32" x2="186.32" y2="5.84"/>
	<path class="st1" d="M131.66,138.15c0-5.95,4.83-10.77,10.77-10.77c5.96,0,10.79,4.83,10.79,10.77"/>
	<rect x="131.66" y="127.36" class="st1" width="21.56" height="64.69"/>
	<line class="st1" x1="142.45" y1="192.05" x2="142.45" y2="127.36"/>
	<line class="st1" x1="131.66" y1="148.93" x2="153.23" y2="148.93"/>
	<line class="st1" x1="131.66" y1="159.72" x2="153.23" y2="159.72"/>
	<line class="st1" x1="131.66" y1="170.49" x2="153.23" y2="170.49"/>
	<line class="st1" x1="131.66" y1="181.28" x2="153.23" y2="181.28"/>
	<line class="st1" x1="131.66" y1="138.15" x2="153.23" y2="138.15"/>
	<path class="st1" d="M196.36,138.15c0-5.95,4.83-10.77,10.77-10.77c5.95,0,10.77,4.83,10.77,10.77"/>
	<rect x="196.36" y="127.36" class="st1" width="21.56" height="64.69"/>
	<line class="st1" x1="207.15" y1="192.05" x2="207.15" y2="127.36"/>
	<line class="st1" x1="196.36" y1="148.93" x2="217.94" y2="148.93"/>
	<line class="st1" x1="196.36" y1="159.72" x2="217.94" y2="159.72"/>
	<line class="st1" x1="196.36" y1="170.49" x2="217.94" y2="170.49"/>
	<line class="st1" x1="196.36" y1="181.28" x2="217.94" y2="181.28"/>
	<line class="st1" x1="196.36" y1="138.15" x2="217.94" y2="138.15"/>
	<line class="st1" x1="131.66" y1="148.93" x2="88.53" y2="148.93"/>
	<path class="st1" d="M325.7,159.72c0-17.86-14.48-32.34-32.34-32.34c-17.86,0-32.34,14.48-32.34,32.34"/>
	<path class="st1" d="M314.91,159.72c0-11.91-9.65-21.56-21.56-21.56c-11.91,0-21.56,9.65-21.56,21.56"/>
	<path class="st1" d="M304.14,159.72c0-5.95-4.83-10.77-10.77-10.77s-10.77,4.83-10.77,10.77"/>
	<rect x="261.01" y="127.36" class="st1" width="64.69" height="64.69"/>
	<line class="st1" x1="261.01" y1="159.72" x2="325.7" y2="159.72"/>
	<line class="st1" x1="325.7" y1="159.72" x2="325.7" y2="192.13"/>
	<line class="st1" x1="314.91" y1="159.72" x2="314.91" y2="192.13"/>
	<line class="st1" x1="304.14" y1="159.72" x2="304.14" y2="192.13"/>
	<line class="st1" x1="293.35" y1="127.41" x2="293.35" y2="192.13"/>
	<line class="st1" x1="239.48" y1="127.41" x2="239.48" y2="192.13"/>
	<line class="st1" x1="282.58" y1="159.72" x2="282.58" y2="192.13"/>
	<line class="st1" x1="271.79" y1="159.72" x2="271.79" y2="192.13"/>
	<line class="st1" x1="261.01" y1="159.72" x2="261.01" y2="192.13"/>
	<line class="st1" x1="261.01" y1="159.72" x2="325.7" y2="159.72"/>
	<line class="st1" x1="261.01" y1="170.49" x2="325.7" y2="170.49"/>
	<line class="st1" x1="261.01" y1="181.28" x2="325.7" y2="181.28"/>
	<path class="st1" d="M325.7,159.72c0-17.86,5.06-31.48,11.29-30.41c6.23,1.06,11.29,15.54,11.29,32.35"/>
	<path class="st1" d="M329.46,160.04c0-11.8,3.37-20.86,7.52-20.28c4.16,0.6,7.52,10.25,7.52,21.56"/>
	<path class="st1" d="M333.23,160.36c0-5.83,1.69-10.38,3.76-10.13c2.07,0.23,3.76,5.06,3.76,10.77"/>
	<polygon class="st1" points="348.27,192.05 325.7,192.05 325.7,127.36 348.27,131.23 	"/>
	<line class="st1" x1="348.27" y1="161.64" x2="325.7" y2="159.72"/>
	<line class="st1" x1="325.7" y1="159.72" x2="325.7" y2="192.13"/>
	<line class="st1" x1="329.46" y1="160.04" x2="329.46" y2="192.13"/>
	<line class="st1" x1="333.23" y1="160.36" x2="333.23" y2="192.13"/>
	<line class="st1" x1="336.99" y1="129.33" x2="336.99" y2="192.13"/>
	<line class="st1" x1="340.75" y1="161" x2="340.75" y2="192.13"/>
	<line class="st1" x1="344.51" y1="161.32" x2="344.51" y2="192.13"/>
	<line class="st1" x1="348.27" y1="161.64" x2="348.27" y2="192.13"/>
	<line class="st1" x1="348.27" y1="161.64" x2="325.7" y2="159.72"/>
	<line class="st1" x1="348.27" y1="171.79" x2="325.7" y2="170.49"/>
	<line class="st1" x1="348.27" y1="181.92" x2="325.7" y2="181.28"/>
	<rect x="217.91" y="127.36" class="st1" width="43.13" height="64.69"/>
	<path class="st1" d="M261.04,148.93c0-11.91-9.65-21.56-21.56-21.56c-11.91,0-21.56,9.65-21.56,21.56"/>
	<path class="st1" d="M250.27,148.93c0-5.95-4.83-10.77-10.77-10.77s-10.77,4.83-10.77,10.77"/>
	<line class="st1" x1="250.27" y1="148.93" x2="250.27" y2="192.07"/>
	<line class="st1" x1="228.7" y1="148.93" x2="228.7" y2="192.07"/>
	<line class="st1" x1="239.48" y1="85.9" x2="239.48" y2="127.41"/>
	<line class="st1" x1="217.91" y1="159.72" x2="261.04" y2="159.72"/>
	<line class="st1" x1="217.91" y1="170.49" x2="261.04" y2="170.49"/>
	<line class="st1" x1="217.91" y1="181.28" x2="261.04" y2="181.28"/>
	<line class="st1" x1="261.04" y1="127.36" x2="261.04" y2="86.12"/>
	<line class="st1" x1="228.69" y1="85.9" x2="261.04" y2="85.9"/>
	<path class="st1" d="M228.72,41.94c1.63-21.91,15.48-39.02,32.34-39.02s30.71,17.12,32.34,39.02H228.72z"/>
	<path class="st1" d="M228.7,58.14c0-8.94,7.25-16.17,16.17-16.17c8.94,0,16.17,7.25,16.17,16.17"/>
	<path class="st1" d="M255.65,58.14c0-5.95-4.83-10.77-10.77-10.77c-5.95,0-10.77,4.83-10.77,10.77"/>
	<line class="st1" x1="228.7" y1="41.94" x2="228.7" y2="85.9"/>
	<line class="st1" x1="228.69" y1="58.14" x2="261.04" y2="58.14"/>
	<line class="st1" x1="228.69" y1="71.75" x2="261.04" y2="71.75"/>
	<line class="st1" x1="261.04" y1="58.14" x2="261.04" y2="85.9"/>
	<line class="st1" x1="255.65" y1="58.14" x2="255.65" y2="85.9"/>
	<line class="st1" x1="244.87" y1="42.03" x2="244.87" y2="85.9"/>
	<line class="st1" x1="234.08" y1="58.14" x2="234.08" y2="85.9"/>
	<path class="st1" d="M266.48,58.14c0-5.95,4.83-10.77,10.77-10.77c5.95,0,10.77,4.83,10.77,10.77"/>
	<line class="st1" x1="293.45" y1="58.14" x2="261.08" y2="58.14"/>
	<line class="st1" x1="293.45" y1="71.75" x2="261.08" y2="71.75"/>
	<line class="st1" x1="266.48" y1="58.14" x2="266.48" y2="85.9"/>
	<line class="st1" x1="277.27" y1="42.03" x2="277.27" y2="85.9"/>
	<line class="st1" x1="288.04" y1="58.14" x2="288.04" y2="85.9"/>
	<path class="st1" d="M250.22,41.94c0.55-21.91,5.19-39.02,10.83-39.02c5.64,0,10.29,17.12,10.83,39.02"/>
	<path class="st1" d="M293.45,58.14c0-8.94,2.41-15.08,5.38-13.75c2.97,1.3,5.38,8.75,5.38,16.65"/>
	<path class="st1" d="M302.42,60.57c0-5.38-1.6-10.35-3.59-11.1c-1.98-0.77-3.59,3.34-3.59,9.17"/>
	<line class="st1" x1="293.45" y1="58.14" x2="304.21" y2="61.04"/>
	<line class="st1" x1="293.45" y1="71.75" x2="304.21" y2="73.2"/>
	<line class="st1" x1="293.45" y1="85.9" x2="293.45" y2="58.14"/>
	<line class="st1" x1="302.42" y1="60.57" x2="302.42" y2="86.54"/>
	<line class="st1" x1="298.83" y1="44.39" x2="298.83" y2="86.17"/>
	<line class="st1" x1="295.25" y1="58.63" x2="295.25" y2="85.9"/>
	<path class="st1" d="M228.69,58.14c0-8.94-2.41-15.08-5.38-13.75c-2.97,1.3-5.38,8.75-5.38,16.65"/>
	<path class="st1" d="M219.71,60.57c0-5.38,1.6-10.35,3.59-11.1c1.98-0.77,3.59,3.34,3.59,9.17"/>
	<line class="st1" x1="228.69" y1="58.14" x2="217.91" y2="61.04"/>
	<line class="st1" x1="228.69" y1="71.75" x2="217.91" y2="73.2"/>
	<line class="st1" x1="217.91" y1="85.9" x2="228.67" y2="85.9"/>
	<path class="st1" d="M217.91,61.04"/>
	<line class="st1" x1="219.71" y1="60.57" x2="219.71" y2="85.9"/>
	<line class="st1" x1="223.29" y1="44.23" x2="223.29" y2="85.9"/>
	<line class="st1" x1="226.88" y1="58.63" x2="226.88" y2="85.9"/>
	<path class="st1" d="M228.7,85.9"/>
	<line class="st1" x1="217.91" y1="44.4" x2="228.7" y2="41.94"/>
	<path class="st1" d="M217.91,83.62"/>
	<line class="st1" x1="261.07" y1="85.9" x2="293.44" y2="85.9"/>
	<path class="st1" d="M293.44,58.14c0-8.94-7.25-16.17-16.17-16.17c-8.94,0-16.17,7.25-16.17,16.17"/>
	<line class="st1" x1="304.21" y1="44.4" x2="293.39" y2="41.94"/>
	<path class="st1" d="M217.93,44.39"/>
	<path class="st1" d="M293.35,85.91c17.45,0,31.67,18.43,32.34,41.5"/>
	<line class="st1" x1="293.44" y1="41.94" x2="293.44" y2="85.9"/>
	<path class="st1" d="M293.35,85.91c17.45,0,31.67,18.43,32.34,41.5"/>
	<path class="st1" d="M293.39,85.9c29.61,0,53.74,20.12,54.89,45.3"/>
	<path class="st1" d="M282.6,85.93c11.65,0,21.14,18.41,21.59,41.48"/>
	<path class="st1" d="M271.86,85.93c5.9,0,10.73,18.41,10.95,41.48"/>
	<path class="st1" d="M293.39,85.9c25.68,0,46.6,19.6,47.59,44.1"/>
	<path class="st1" d="M293.39,85.9c21.62,0,39.25,19.03,40.08,42.85"/>
	<line class="st1" x1="322.39" y1="109.92" x2="217.9" y2="109.92"/>
	<line class="st1" x1="324.06" y1="115.35" x2="217.9" y2="115.35"/>
	<line class="st1" x1="325.16" y1="121.31" x2="217.9" y2="121.31"/>
	<line class="st1" x1="320.22" y1="105.06" x2="217.9" y2="105.06"/>
	<line class="st1" x1="317.77" y1="100.71" x2="217.9" y2="100.71"/>
	<line class="st1" x1="314.93" y1="96.92" x2="217.9" y2="96.92"/>
	<line class="st1" x1="311.88" y1="93.67" x2="217.9" y2="93.67"/>
	<line class="st1" x1="308.48" y1="90.96" x2="217.9" y2="90.96"/>
	<line class="st1" x1="305.01" y1="88.78" x2="217.9" y2="88.78"/>
	<line class="st1" x1="301.09" y1="87.17" x2="217.9" y2="87.17"/>
	<line class="st1" x1="325.15" y1="121.31" x2="347.54" y2="125.18"/>
	<line class="st1" x1="324.01" y1="115.35" x2="345.91" y2="119.21"/>
	<line class="st1" x1="322.38" y1="109.92" x2="343.53" y2="113.79"/>
	<line class="st1" x1="320.22" y1="105.06" x2="340.58" y2="108.9"/>
	<line class="st1" x1="317.77" y1="100.71" x2="337.16" y2="104.57"/>
	<line class="st1" x1="314.93" y1="96.92" x2="333.46" y2="100.78"/>
	<line class="st1" x1="311.9" y1="93.67" x2="329.48" y2="97.53"/>
	<line class="st1" x1="308.51" y1="90.96" x2="325.56" y2="94.82"/>
	<line class="st1" x1="304.97" y1="88.78" x2="321.74" y2="92.65"/>
	<line class="st1" x1="301.12" y1="87.17" x2="318.31" y2="91.01"/>
	<line class="st1" x1="289.68" y1="25.62" x2="261.13" y2="25.62"/>
	<line class="st1" x1="291.41" y1="30.7" x2="261.13" y2="30.7"/>
	<line class="st1" x1="292.68" y1="36.28" x2="261.13" y2="36.28"/>
	<line class="st1" x1="287.52" y1="21.06" x2="261.13" y2="21.06"/>
	<line class="st1" x1="285.04" y1="16.99" x2="261.13" y2="16.99"/>
	<line class="st1" x1="282.3" y1="13.45" x2="261.13" y2="13.45"/>
	<line class="st1" x1="279.4" y1="10.4" x2="261.13" y2="10.4"/>
	<line class="st1" x1="276.13" y1="7.86" x2="261.13" y2="7.86"/>
	<line class="st1" x1="272.81" y1="5.84" x2="261.13" y2="5.84"/>
	<line class="st1" x1="269.34" y1="4.31" x2="261.13" y2="4.31"/>
	<line class="st1" x1="303.59" y1="38.73" x2="292.69" y2="36.25"/>
	<line class="st1" x1="302.32" y1="33.17" x2="291.43" y2="30.7"/>
	<line class="st1" x1="300.3" y1="28.1" x2="289.65" y2="25.62"/>
	<line class="st1" x1="297.93" y1="23.54" x2="287.47" y2="21.06"/>
	<line class="st1" x1="295.09" y1="19.47" x2="285.02" y2="16.99"/>
	<line class="st1" x1="291.92" y1="15.93" x2="282.25" y2="13.45"/>
	<line class="st1" x1="288.64" y1="12.88" x2="279.37" y2="10.4"/>
	<line class="st1" x1="285.33" y1="10.34" x2="276.15" y2="7.86"/>
	<line class="st1" x1="281.89" y1="8.32" x2="272.7" y2="5.84"/>
	<line class="st1" x1="232.55" y1="25.62" x2="261.13" y2="25.62"/>
	<line class="st1" x1="230.8" y1="30.7" x2="261.13" y2="30.7"/>
	<line class="st1" x1="229.53" y1="36.28" x2="261.13" y2="36.28"/>
	<line class="st1" x1="234.71" y1="21.06" x2="261.13" y2="21.06"/>
	<line class="st1" x1="237.19" y1="16.99" x2="261.13" y2="16.99"/>
	<line class="st1" x1="239.93" y1="13.45" x2="261.13" y2="13.45"/>
	<line class="st1" x1="242.84" y1="10.4" x2="261.13" y2="10.4"/>
	<line class="st1" x1="246.11" y1="7.86" x2="261.13" y2="7.86"/>
	<line class="st1" x1="249.43" y1="5.84" x2="261.13" y2="5.84"/>
	<line class="st1" x1="252.92" y1="4.31" x2="261.13" y2="4.31"/>
	<line class="st1" x1="218.6" y1="38.73" x2="229.52" y2="36.25"/>
	<line class="st1" x1="219.87" y1="33.17" x2="230.79" y2="30.7"/>
	<line class="st1" x1="221.89" y1="28.1" x2="232.57" y2="25.62"/>
	<line class="st1" x1="224.27" y1="23.54" x2="234.75" y2="21.06"/>
	<line class="st1" x1="227.11" y1="19.47" x2="237.2" y2="16.99"/>
	<line class="st1" x1="230.29" y1="15.93" x2="239.97" y2="13.45"/>
	<line class="st1" x1="233.57" y1="12.88" x2="242.87" y2="10.4"/>
	<line class="st1" x1="236.9" y1="10.34" x2="246.1" y2="7.86"/>
	<line class="st1" x1="240.35" y1="8.32" x2="249.54" y2="5.84"/>
	<line class="st1" x1="217.91" y1="148.93" x2="261.04" y2="148.93"/>
	<line class="st1" x1="196.35" y1="148.93" x2="153.23" y2="148.93"/>
	<line class="st1" x1="153.23" y1="127.36" x2="153.23" y2="86.12"/>
	<line class="st1" x1="196.36" y1="127.36" x2="196.36" y2="86.12"/>
	<line class="st1" x1="217.91" y1="121.31" x2="131.67" y2="121.31"/>
	<line class="st1" x1="217.91" y1="115.35" x2="131.67" y2="115.35"/>
	<line class="st1" x1="217.91" y1="109.92" x2="131.67" y2="109.92"/>
	<line class="st1" x1="217.91" y1="105.06" x2="131.67" y2="105.06"/>
	<line class="st1" x1="217.91" y1="100.71" x2="131.67" y2="100.71"/>
	<line class="st1" x1="217.91" y1="96.92" x2="131.67" y2="96.92"/>
	<line class="st1" x1="217.91" y1="93.67" x2="131.67" y2="93.67"/>
	<line class="st1" x1="217.91" y1="90.96" x2="131.67" y2="90.96"/>
	<line class="st1" x1="217.91" y1="88.78" x2="131.67" y2="88.78"/>
	<line class="st1" x1="217.91" y1="87.17" x2="131.67" y2="87.17"/>
	<line class="st1" x1="261.04" y1="85.66" x2="261.04" y2="58.14"/>
</g>
</svg>
