<?xml version="1.0" encoding="utf-8"?>
<!-- Generator: Adobe Illustrator 26.5.0, SVG Export Plug-In . SVG Version: 6.00 Build 0)  -->
<svg version="1.1" id="Layer_1" xmlns="http://www.w3.org/2000/svg" xmlns:xlink="http://www.w3.org/1999/xlink" x="0px" y="0px"
	 viewBox="0 0 25 26" style="enable-background:new 0 0 25 26;" xml:space="preserve">
<style type="text/css">
	.st0{fill:#ED1A3B;}
	.st1{fill:#672036;}
	.st2{fill:#BD7F5C;}
	.st3{fill:#DAA573;}
</style>
<g>
	<circle class="st0" cx="15.01" cy="20.49" r="1.38"/>
	<g>
		<path class="st1" d="M14.53,9.14l0.69-3.5l-1.73,3.12c0,0-0.03,0.06-0.05,0.1c-0.11,0.29,0.04,0.61,0.33,0.72
			c0.29,0.11,0.61-0.04,0.72-0.33C14.51,9.21,14.53,9.14,14.53,9.14z"/>
		<path class="st1" d="M14.09,10.33l-1.73,3.12l0.69-3.5c0,0,0.01-0.07,0.03-0.1c0.11-0.29,0.43-0.44,0.72-0.33
			c0.29,0.11,0.44,0.43,0.33,0.72C14.12,10.27,14.09,10.33,14.09,10.33z"/>
		<path class="st1" d="M15.42,9.47l0.69-3.5l-1.73,3.12c0,0-0.03,0.06-0.05,0.1c-0.11,0.29,0.04,0.61,0.33,0.72
			c0.29,0.11,0.61-0.04,0.72-0.33C15.4,9.53,15.42,9.47,15.42,9.47z"/>
		<path class="st1" d="M14.98,10.66l-1.73,3.12l0.69-3.5c0,0,0.01-0.07,0.03-0.1c0.11-0.29,0.43-0.44,0.72-0.33
			c0.29,0.11,0.44,0.43,0.33,0.72C15.02,10.6,14.98,10.66,14.98,10.66z"/>
		<path class="st1" d="M13.63,8.81l0.69-3.5L12.6,8.44c0,0-0.03,0.06-0.05,0.1c-0.11,0.29,0.04,0.61,0.33,0.72
			c0.29,0.11,0.61-0.04,0.72-0.33C13.62,8.88,13.63,8.81,13.63,8.81z"/>
		<path class="st1" d="M13.2,10.01l-1.73,3.12l0.69-3.5c0,0,0.01-0.07,0.03-0.1c0.11-0.29,0.43-0.44,0.72-0.33
			c0.29,0.11,0.44,0.43,0.33,0.72C13.23,9.95,13.2,10.01,13.2,10.01z"/>
		<path class="st1" d="M12.74,8.49l0.69-3.5l-1.73,3.12c0,0-0.03,0.06-0.05,0.1c-0.11,0.29,0.04,0.61,0.33,0.72
			c0.29,0.11,0.61-0.04,0.72-0.33C12.73,8.56,12.74,8.49,12.74,8.49z"/>
		<path class="st1" d="M12.3,9.68l-1.73,3.12l0.69-3.5c0,0,0.01-0.07,0.03-0.1c0.11-0.29,0.43-0.44,0.72-0.33
			c0.29,0.11,0.44,0.43,0.33,0.72C12.34,9.62,12.3,9.68,12.3,9.68z"/>
		<path class="st1" d="M11.85,8.16l0.69-3.5l-1.73,3.12c0,0-0.03,0.06-0.05,0.1c-0.11,0.29,0.04,0.61,0.33,0.72
			c0.29,0.11,0.61-0.04,0.72-0.33C11.84,8.23,11.85,8.16,11.85,8.16z"/>
		<path class="st1" d="M11.41,9.36l-1.73,3.12l0.69-3.5c0,0,0.01-0.07,0.03-0.1c0.11-0.29,0.43-0.44,0.72-0.33
			c0.29,0.11,0.44,0.43,0.33,0.72C11.45,9.29,11.41,9.36,11.41,9.36z"/>
		<path class="st1" d="M10.96,7.84l0.69-3.5L9.92,7.46c0,0-0.03,0.06-0.05,0.1c-0.11,0.29,0.04,0.61,0.33,0.72
			c0.29,0.11,0.61-0.04,0.72-0.33C10.94,7.9,10.96,7.84,10.96,7.84z"/>
		<path class="st1" d="M10.52,9.03l-1.73,3.12l0.69-3.5c0,0,0.01-0.07,0.03-0.1c0.11-0.29,0.43-0.44,0.72-0.33
			c0.29,0.11,0.44,0.43,0.33,0.72C10.55,8.97,10.52,9.03,10.52,9.03z"/>
		<path class="st1" d="M16.31,9.79L17,6.29l-1.73,3.12c0,0-0.03,0.06-0.05,0.1c-0.11,0.29,0.04,0.61,0.33,0.72
			c0.29,0.11,0.61-0.04,0.72-0.33C16.3,9.86,16.31,9.79,16.31,9.79z"/>
		<path class="st1" d="M15.87,10.99l-1.73,3.12l0.69-3.5c0,0,0.01-0.07,0.03-0.1c0.11-0.29,0.43-0.44,0.72-0.33
			c0.29,0.11,0.44,0.43,0.33,0.72C15.91,10.92,15.87,10.99,15.87,10.99z"/>
		<path class="st1" d="M17.2,10.12l0.69-3.5l-1.73,3.12c0,0-0.03,0.06-0.05,0.1c-0.11,0.29,0.04,0.61,0.33,0.72
			c0.29,0.11,0.61-0.04,0.72-0.33C17.19,10.19,17.2,10.12,17.2,10.12z"/>
		<path class="st1" d="M16.77,11.31l-1.73,3.12l0.69-3.5c0,0,0.01-0.07,0.03-0.1c0.11-0.29,0.43-0.44,0.72-0.33
			c0.29,0.11,0.44,0.43,0.33,0.72C16.8,11.25,16.77,11.31,16.77,11.31z"/>
		<path class="st1" d="M18.07,10.51l1.15-3.38L17.1,10c0,0-0.04,0.06-0.06,0.09c-0.14,0.27-0.04,0.61,0.24,0.76
			c0.27,0.14,0.61,0.04,0.76-0.24C18.05,10.58,18.07,10.51,18.07,10.51z"/>
		<path class="st1" d="M17.7,11.54l-1.07,3.4l-0.01-3.57c0,0,0-0.07,0.01-0.11c0.05-0.31,0.33-0.52,0.64-0.47
			c0.31,0.05,0.52,0.33,0.47,0.64C17.72,11.48,17.7,11.54,17.7,11.54z"/>
		<path class="st1" d="M18.94,10.96l1.74-3.11l-2.61,2.43c0,0-0.05,0.05-0.07,0.08c-0.19,0.24-0.15,0.6,0.1,0.79
			c0.24,0.19,0.6,0.15,0.79-0.1C18.91,11.02,18.94,10.96,18.94,10.96z"/>
		<path class="st1" d="M18.64,11.74l-0.26,3.56l-0.84-3.47c0,0-0.02-0.07-0.02-0.11c-0.03-0.31,0.2-0.58,0.51-0.61
			c0.31-0.03,0.58,0.2,0.61,0.51C18.64,11.67,18.64,11.74,18.64,11.74z"/>
		<path class="st1" d="M19.61,11.41l2.13-2.06l-2.65,1.31c0,0-0.05,0.03-0.08,0.04c-0.21,0.15-0.26,0.44-0.11,0.65
			c0.15,0.21,0.44,0.26,0.65,0.11C19.56,11.45,19.61,11.41,19.61,11.41z"/>
		<path class="st1" d="M19.42,11.84l0.35,2.94l-1.23-2.69c0,0-0.02-0.05-0.03-0.08c-0.07-0.25,0.08-0.51,0.32-0.57
			c0.25-0.07,0.51,0.08,0.57,0.32C19.41,11.78,19.42,11.84,19.42,11.84z"/>
		<path class="st1" d="M19.61,11.41l2.13-2.06l-2.65,1.31c0,0-0.05,0.03-0.08,0.04c-0.21,0.15-0.26,0.44-0.11,0.65
			c0.15,0.21,0.44,0.26,0.65,0.11C19.56,11.45,19.61,11.41,19.61,11.41z"/>
		<path class="st1" d="M19.42,11.84l0.35,2.94l-1.23-2.69c0,0-0.02-0.05-0.03-0.08c-0.07-0.25,0.08-0.51,0.32-0.57
			c0.25-0.07,0.51,0.08,0.57,0.32C19.41,11.78,19.42,11.84,19.42,11.84z"/>
		<path class="st1" d="M20.28,11.8l2.67-1.27l-2.93,0.39c0,0-0.06,0.01-0.09,0.02c-0.25,0.07-0.39,0.33-0.31,0.58
			c0.07,0.25,0.33,0.39,0.58,0.31C20.22,11.82,20.28,11.8,20.28,11.8z"/>
		<path class="st1" d="M20.18,12.02l0.94,2.81l-1.76-2.38c0,0-0.03-0.05-0.05-0.07c-0.12-0.23-0.03-0.51,0.2-0.63
			c0.23-0.12,0.51-0.03,0.63,0.2C20.16,11.97,20.18,12.02,20.18,12.02z"/>
		<path class="st1" d="M20.79,12.14l2.41-0.19l-2.36-0.55c0,0-0.05-0.01-0.07-0.01c-0.21-0.02-0.39,0.14-0.41,0.35
			c-0.02,0.21,0.14,0.39,0.35,0.41C20.75,12.14,20.79,12.14,20.79,12.14z"/>
		<path class="st1" d="M21.12,12.67l2.36,0.56l-2.07-1.26c0,0-0.04-0.02-0.06-0.03c-0.19-0.08-0.42,0.01-0.5,0.21
			c-0.08,0.19,0.01,0.42,0.21,0.5C21.07,12.66,21.12,12.67,21.12,12.67z"/>
		<path class="st1" d="M20.8,12.14l1.49,1.91l-2-1.37c0,0-0.04-0.03-0.06-0.04c-0.15-0.14-0.16-0.39-0.02-0.54
			c0.14-0.15,0.39-0.16,0.54-0.02C20.77,12.1,20.8,12.14,20.8,12.14z"/>
	</g>
	<g>
		<path class="st1" d="M6.65,12L3.85,9.78l3.34,1.26c0,0,0.07,0.02,0.1,0.04c0.27,0.15,0.36,0.5,0.21,0.77
			c-0.15,0.27-0.5,0.36-0.77,0.21C6.7,12.05,6.65,12,6.65,12z"/>
		<path class="st1" d="M7.75,12.63l3.34,1.26L8.3,11.67c0,0-0.06-0.04-0.09-0.06c-0.27-0.15-0.61-0.06-0.77,0.21
			c-0.15,0.27-0.06,0.61,0.21,0.77C7.69,12.6,7.75,12.63,7.75,12.63z"/>
		<path class="st1" d="M6.18,12.83l-2.79-2.22l3.34,1.26c0,0,0.07,0.02,0.1,0.04c0.27,0.15,0.36,0.5,0.21,0.77
			c-0.15,0.27-0.5,0.36-0.77,0.21C6.23,12.87,6.18,12.83,6.18,12.83z"/>
		<path class="st1" d="M7.28,13.45l3.34,1.26L7.83,12.5c0,0-0.06-0.04-0.09-0.06c-0.27-0.15-0.61-0.06-0.77,0.21
			c-0.15,0.27-0.06,0.61,0.21,0.77C7.22,13.43,7.28,13.45,7.28,13.45z"/>
		<path class="st1" d="M7.11,11.17L4.32,8.96l3.34,1.26c0,0,0.07,0.02,0.1,0.04c0.27,0.15,0.36,0.5,0.21,0.77
			c-0.15,0.27-0.5,0.36-0.77,0.21C7.17,11.22,7.11,11.17,7.11,11.17z"/>
		<path class="st1" d="M8.22,11.8l3.34,1.26l-2.79-2.22c0,0-0.06-0.04-0.09-0.06c-0.27-0.15-0.61-0.06-0.77,0.21
			c-0.15,0.27-0.06,0.61,0.21,0.77C8.15,11.78,8.22,11.8,8.22,11.8z"/>
		<path class="st1" d="M7.58,10.35L4.79,8.13l3.34,1.26c0,0,0.07,0.02,0.1,0.04c0.27,0.15,0.36,0.5,0.21,0.77
			c-0.15,0.27-0.5,0.36-0.77,0.21C7.64,10.39,7.58,10.35,7.58,10.35z"/>
		<path class="st1" d="M8.69,10.98l3.34,1.26l-2.79-2.22c0,0-0.06-0.04-0.09-0.06C8.87,9.8,8.53,9.9,8.38,10.17
			c-0.15,0.27-0.06,0.61,0.21,0.77C8.62,10.95,8.69,10.98,8.69,10.98z"/>
		<path class="st1" d="M8.05,9.52L5.26,7.3l3.34,1.26c0,0,0.07,0.02,0.1,0.04C8.96,8.76,9.06,9.1,8.9,9.37
			c-0.15,0.27-0.5,0.36-0.77,0.21C8.11,9.57,8.05,9.52,8.05,9.52z"/>
		<path class="st1" d="M9.16,10.15l3.34,1.26L9.7,9.19c0,0-0.06-0.04-0.09-0.06C9.34,8.98,9,9.07,8.85,9.34
			c-0.15,0.27-0.06,0.61,0.21,0.77C9.09,10.12,9.16,10.15,9.16,10.15z"/>
		<path class="st1" d="M8.52,8.7L5.72,6.48l3.34,1.26c0,0,0.07,0.02,0.1,0.04c0.27,0.15,0.36,0.5,0.21,0.77
			c-0.15,0.27-0.5,0.36-0.77,0.21C8.57,8.74,8.52,8.7,8.52,8.7z"/>
		<path class="st1" d="M9.63,9.32l3.34,1.26l-2.79-2.22c0,0-0.06-0.04-0.09-0.06C9.81,8.15,9.47,8.24,9.32,8.51
			C9.16,8.78,9.26,9.13,9.53,9.28C9.56,9.3,9.63,9.32,9.63,9.32z"/>
		<path class="st1" d="M5.71,13.65l-2.79-2.22l3.34,1.26c0,0,0.07,0.02,0.1,0.04c0.27,0.15,0.36,0.5,0.21,0.77
			c-0.15,0.27-0.5,0.36-0.77,0.21C5.76,13.7,5.71,13.65,5.71,13.65z"/>
		<path class="st1" d="M6.82,14.28l3.34,1.26l-2.79-2.22c0,0-0.06-0.04-0.09-0.06C7,13.11,6.66,13.2,6.5,13.47
			c-0.15,0.27-0.06,0.61,0.21,0.77C6.75,14.26,6.82,14.28,6.82,14.28z"/>
		<path class="st1" d="M5.24,14.48l-2.79-2.22l3.34,1.26c0,0,0.07,0.02,0.1,0.04c0.27,0.15,0.36,0.5,0.21,0.77
			c-0.15,0.27-0.5,0.36-0.77,0.21C5.3,14.52,5.24,14.48,5.24,14.48z"/>
		<path class="st1" d="M6.35,15.11l3.34,1.26l-2.79-2.22c0,0-0.06-0.04-0.09-0.06c-0.27-0.15-0.61-0.06-0.77,0.21
			c-0.15,0.27-0.06,0.61,0.21,0.77C6.28,15.08,6.35,15.11,6.35,15.11z"/>
		<path class="st1" d="M4.83,15.35l-3.06-1.83l3.48,0.8c0,0,0.07,0.02,0.1,0.03c0.29,0.12,0.43,0.44,0.31,0.73
			c-0.12,0.29-0.44,0.43-0.73,0.31C4.89,15.38,4.83,15.35,4.83,15.35z"/>
		<path class="st1" d="M5.79,15.89l3.02,1.89l-2.3-2.73c0,0-0.05-0.05-0.07-0.08c-0.23-0.2-0.59-0.18-0.79,0.06
			c-0.2,0.23-0.18,0.59,0.06,0.79C5.73,15.85,5.79,15.89,5.79,15.89z"/>
		<path class="st1" d="M4.46,16.25L1.12,15l3.56,0.16c0,0,0.07,0,0.11,0.01c0.3,0.06,0.5,0.36,0.44,0.66
			c-0.06,0.3-0.36,0.5-0.66,0.44C4.52,16.27,4.46,16.25,4.46,16.25z"/>
		<path class="st1" d="M5.2,16.65l2.5,2.54l-1.61-3.19c0,0-0.03-0.06-0.05-0.09c-0.18-0.25-0.53-0.31-0.78-0.13
			C5,15.96,4.94,16.31,5.12,16.57C5.15,16.6,5.2,16.65,5.2,16.65z"/>
		<path class="st1" d="M4.25,17.02l-2.95-0.19l2.87-0.72c0,0,0.06-0.01,0.09-0.02c0.26-0.02,0.48,0.17,0.51,0.42
			c0.02,0.26-0.17,0.48-0.42,0.51C4.31,17.03,4.25,17.02,4.25,17.02z"/>
		<path class="st1" d="M4.67,17.23l1.64,2.47L5.5,16.84c0,0-0.02-0.06-0.03-0.08c-0.11-0.23-0.38-0.34-0.62-0.23
			c-0.23,0.11-0.34,0.38-0.23,0.62C4.63,17.18,4.67,17.23,4.67,17.23z"/>
		<path class="st1" d="M4.25,17.02l-2.95-0.19l2.87-0.72c0,0,0.06-0.01,0.09-0.02c0.26-0.02,0.48,0.17,0.51,0.42
			c0.02,0.26-0.17,0.48-0.42,0.51C4.31,17.03,4.25,17.02,4.25,17.02z"/>
		<path class="st1" d="M4.67,17.23l1.64,2.47L5.5,16.84c0,0-0.02-0.06-0.03-0.08c-0.11-0.23-0.38-0.34-0.62-0.23
			c-0.23,0.11-0.34,0.38-0.23,0.62C4.63,17.18,4.67,17.23,4.67,17.23z"/>
		<path class="st1" d="M3.99,17.75l-2.86,0.76l2.49-1.6c0,0,0.05-0.03,0.08-0.04c0.24-0.1,0.51,0,0.62,0.24
			c0.1,0.24,0,0.51-0.24,0.62C4.04,17.74,3.99,17.75,3.99,17.75z"/>
		<path class="st1" d="M4.2,17.86l1.1,2.75l-0.21-2.95c0,0,0-0.06-0.01-0.09c-0.06-0.25-0.31-0.41-0.56-0.35
			c-0.25,0.06-0.41,0.31-0.35,0.56C4.18,17.81,4.2,17.86,4.2,17.86z"/>
		<path class="st1" d="M3.81,18.35l-1.96,1.42l1.44-1.95c0,0,0.03-0.04,0.05-0.06c0.15-0.15,0.39-0.15,0.54,0
			c0.15,0.15,0.15,0.39,0,0.54C3.85,18.32,3.81,18.35,3.81,18.35z"/>
		<path class="st1" d="M3.91,18.96l-1.43,1.96l0.76-2.3c0,0,0.02-0.05,0.03-0.07c0.1-0.19,0.33-0.26,0.51-0.16
			c0.19,0.1,0.26,0.33,0.16,0.51C3.94,18.92,3.91,18.96,3.91,18.96z"/>
		<path class="st1" d="M3.8,18.35l0.11,2.42l0.64-2.34c0,0,0.01-0.05,0.02-0.07c0.02-0.21-0.13-0.4-0.34-0.42
			c-0.21-0.02-0.4,0.13-0.42,0.34C3.8,18.3,3.8,18.35,3.8,18.35z"/>
	</g>
	<path class="st2" d="M4.92,6.89c1.43,0,2.88,0.13,3.09,0.14c0.67,0.03,0.75,0.84,0.75,0.84L9.2,7.87c0,0,0.18,0.39-0.02,1.09
		C8.99,9.66,8.64,9.9,8.64,9.9L8.26,9.67c0,0-0.49,0.65-1.08,0.34C6.94,9.88,4.7,8.8,3.33,7.79c-0.35-0.26-0.2-0.81,0.23-0.85
		C3.99,6.91,4.45,6.89,4.92,6.89"/>
	<path class="st2" d="M12.23,4.16c-1.09,0.92-2.11,1.97-2.26,2.11C9.49,6.73,9.95,7.4,9.95,7.4L9.61,7.68c0,0,0.12,0.41,0.72,0.82
		c0.6,0.41,1.03,0.36,1.03,0.36l0.13-0.42c0,0,0.8,0.18,1.04-0.44c0.1-0.26,1.11-2.53,1.5-4.18c0.1-0.42-0.37-0.74-0.73-0.49
		C12.96,3.57,12.59,3.86,12.23,4.16"/>
	<path class="st2" d="M6.81,3.1c0.14,1.19,0.4,2.39,0.43,2.56C7.34,6.21,8.02,6.2,8.02,6.2l0.04,0.37c0,0,0.34,0.11,0.91-0.12
		C9.53,6.21,9.7,5.89,9.7,5.89L9.47,5.6c0,0,0.5-0.47,0.17-0.93C9.5,4.48,8.38,2.72,7.4,1.68C7.15,1.42,6.71,1.6,6.72,1.97
		C6.73,2.32,6.76,2.71,6.81,3.1"/>
	<path class="st3" d="M19.12,17.95l-0.16,0.06l-1.89-5.14c-0.92-2.5-3.49-3.91-6.02-3.47c0.1-0.28,0.13-0.59,0.02-0.89
		c-0.25-0.67-0.99-1.01-1.66-0.77C8.73,8,8.39,8.75,8.63,9.42c0.11,0.3,0.33,0.52,0.59,0.67C7,11.39,5.95,14.12,6.87,16.62
		l1.89,5.14L8.6,21.82c-0.42,0.15-0.63,0.62-0.48,1.04c0.15,0.42,0.62,0.63,1.04,0.48l10.52-3.87c0.42-0.15,0.63-0.62,0.48-1.04
		C20,18.02,19.54,17.8,19.12,17.95z M9.63,8.38c0.33-0.12,0.69,0.05,0.81,0.37c0.12,0.33-0.05,0.69-0.37,0.81
		C9.74,9.68,9.37,9.51,9.25,9.19C9.13,8.86,9.3,8.5,9.63,8.38z"/>
	
		<rect x="8.08" y="17.92" transform="matrix(0.9386 -0.3451 0.3451 0.9386 -5.7055 5.8259)" class="st2" width="10.86" height="2.03"/>
</g>
</svg>
