<svg xmlns="http://www.w3.org/2000/svg" width="235.998" height="714.17" viewBox="0 0 235.998 714.17">
  <g id="Grupo_4" data-name="Grupo 4" transform="translate(-3369.667 16.143)">
    <g id="Grupo_2" data-name="Grupo 2">
      <rect id="Ret창ngulo_1" data-name="Ret창ngulo 1" width="10.666" height="711.941" transform="translate(3467.001 -13.914)" fill="#e7344c"/>
      <rect id="Ret창ngulo_2" data-name="Ret창ngulo 2" width="3.96" height="711.941" transform="translate(3473.706 -13.914)" fill="#992132"/>
      <path id="Caminho_1" data-name="Caminho 1" d="M3467,558.82l10.666-14.2v13.386L3467,572.206Zm0-19.592,10.666-14.2V511.644L3467,525.842Zm0,65.955,10.666-14.2V577.6L3467,591.8Zm0,32.978,10.666-14.2V610.576L3467,624.774Zm0,59.866h4.573l6.093-8.109V676.532L3467,690.729Zm0-26.889,10.666-14.2V643.554L3467,657.752Zm0-164.888,10.666-14.2V478.668L3467,492.864Zm0-164.886,10.666-14.2V313.78L3467,327.978Zm0-32.978,10.666-14.2V280.8L3467,295Zm0-32.978,10.666-14.2V247.825L3467,262.022Zm0,98.932,10.666-14.2V346.758L3467,360.954Zm0,65.956,10.666-14.2V412.712L3467,426.91Zm0-32.978,10.666-14.2V379.736L3467,393.932Zm0,65.954,10.666-14.2V445.69L3467,459.886Zm0-329.814,10.666-14.2V115.874L3467,130.072Zm0-32.978,10.666-14.2V82.9L3467,97.094Zm0,65.955,10.666-14.2V148.852L3467,163.049Zm0,32.978,10.666-14.2V181.828L3467,196.027Zm0,32.978,10.666-14.2V214.806L3467,229Zm0-178.275V77.5l10.666-14.2V49.92Zm0-32.978V44.524l10.666-14.2V16.942Zm0-32.978V11.547l10.666-14.2V-16.036Z" fill="#fff"/>
      <g id="Grupo_1" data-name="Grupo 1">
        <path id="Caminho_2" data-name="Caminho 2" d="M3473.706,483.94v13.386l3.96-5.272V478.668Z" fill="#c6c6c5"/>
        <path id="Caminho_3" data-name="Caminho 3" d="M3473.706,450.962v13.386l3.96-5.272V445.69Z" fill="#c6c6c5"/>
        <path id="Caminho_4" data-name="Caminho 4" d="M3473.706,516.917V530.3l3.96-5.272V511.645Z" fill="#c6c6c5"/>
        <path id="Caminho_5" data-name="Caminho 5" d="M3473.706,417.985v13.386l3.96-5.272V412.712Z" fill="#c6c6c5"/>
        <path id="Caminho_6" data-name="Caminho 6" d="M3473.706,648.827v13.386l3.96-5.272V643.555Z" fill="#c6c6c5"/>
        <path id="Caminho_7" data-name="Caminho 7" d="M3473.706,385.008v13.386l3.96-5.272V379.736Z" fill="#c6c6c5"/>
        <path id="Caminho_8" data-name="Caminho 8" d="M3477.667,689.919V676.533l-3.96,5.272V695.19Z" fill="#c6c6c5"/>
        <path id="Caminho_9" data-name="Caminho 9" d="M3473.706,549.895v13.386l3.96-5.272V544.623Z" fill="#c6c6c5"/>
        <path id="Caminho_10" data-name="Caminho 10" d="M3473.706,615.849v13.387l3.96-5.272V610.577Z" fill="#c6c6c5"/>
        <path id="Caminho_11" data-name="Caminho 11" d="M3473.706,582.872v13.386l3.96-5.272V577.6Z" fill="#c6c6c5"/>
        <path id="Caminho_12" data-name="Caminho 12" d="M3473.706,154.124V167.51l3.96-5.272V148.853Z" fill="#c6c6c5"/>
        <path id="Caminho_13" data-name="Caminho 13" d="M3473.706,121.147v13.386l3.96-5.272V115.875Z" fill="#c6c6c5"/>
        <path id="Caminho_14" data-name="Caminho 14" d="M3473.706,187.1v13.387l3.96-5.272V181.829Z" fill="#c6c6c5"/>
        <path id="Caminho_15" data-name="Caminho 15" d="M3473.706,88.169v13.386l3.96-5.272V82.9Z" fill="#c6c6c5"/>
        <path id="Caminho_16" data-name="Caminho 16" d="M3473.706,55.156V68.542l3.96-5.272V49.884Z" fill="#c6c6c5"/>
        <path id="Caminho_17" data-name="Caminho 17" d="M3473.706,22.142V35.529l3.96-5.272V16.87Z" fill="#c6c6c5"/>
        <path id="Caminho_18" data-name="Caminho 18" d="M3473.706-10.871V2.515l3.96-5.272V-16.143Z" fill="#c6c6c5"/>
        <path id="Caminho_19" data-name="Caminho 19" d="M3473.706,220.079v13.386l3.96-5.272V214.807Z" fill="#c6c6c5"/>
        <path id="Caminho_20" data-name="Caminho 20" d="M3473.706,286.074V299.46l3.96-5.272V280.8Z" fill="#c6c6c5"/>
        <path id="Caminho_21" data-name="Caminho 21" d="M3473.706,319.052v13.386l3.96-5.272V313.78Z" fill="#c6c6c5"/>
        <path id="Caminho_22" data-name="Caminho 22" d="M3473.706,352.03v13.386l3.96-5.272V346.758Z" fill="#c6c6c5"/>
        <path id="Caminho_23" data-name="Caminho 23" d="M3473.706,253.1v13.386l3.96-5.272V247.826Z" fill="#c6c6c5"/>
      </g>
    </g>
    <g id="Grupo_3" data-name="Grupo 3">
      <path id="Caminho_24" data-name="Caminho 24" d="M3558.649,579.2s11.287-9.9,29.89-2.185,22.095,25.331,10.259,39.141-22.8,17.665-22.715,25.336c.132,12.3,12.6,8.535,12.6,8.535s-4.141,12.786-16.434,11.681c-18.666-1.677-30.8-23.236-7.911-48.317,15.383-16.856,7.095-25.865-3.519-27.455C3556.03,585.222,3558.649,579.2,3558.649,579.2Z" fill="#dfaa72"/>
      <path id="Caminho_25" data-name="Caminho 25" d="M3572.251,661.712c12.293,1.105,16.434-11.681,16.434-11.681s-12.47,3.763-12.6-8.535c-.027-2.507,1.126-4.606,3.1-6.778a14.379,14.379,0,0,1-.407-1.945c-.576-4.163-2.312-.107-5.677-.491s.354-3.416.028-7.513-5.737,3-7.341-.427,10.918-13.171,14.772-21.85c4.759-10.717.887-17.982-5.889-21.295-5.171-2.529-13.214.062-16.736,1.431a3.091,3.091,0,0,0,2.885,3.312c10.614,1.59,18.9,10.6,3.519,27.455C3541.449,638.476,3553.585,660.035,3572.251,661.712Z" fill="#c17e54"/>
      <path id="Caminho_26" data-name="Caminho 26" d="M3399.258,458.851c-.762-1.41-10.41-15.91-2.924-27.006s23.552,4.293,40.283,2.826,31.288,19.365,33.719,35.691-3.046,51.469,2.421,54.914c0,0-16.134,5.4-25.935-9.225s-7.707-32.6-4.554-47.174-1.285-25.568-11.824-29.935C3420.588,434.858,3399.258,458.851,3399.258,458.851Z" fill="#dfaa72"/>
      <path id="Caminho_27" data-name="Caminho 27" d="M3413.817,442.57c-6.328,3.308-27.951,20.181-38.757,25.831s-4.265,26.231,9.821,23.818,33.474-5.728,33.474-5.728,7.9,9.186,4.169,26.929-6.258,25.354-5.7,37.662l-29.529,12.62a13.85,13.85,0,0,0-8.022,9.319c-1.671,6.55-1.449,16.23-1.16,23.77.465,12.143,8.763,27.112,24.689,24.883l6.47-20.647s-14.537,1.092-15.269-5.891a47.878,47.878,0,0,1,.9-14.667l35.451-.541s23.845,26.293,63.326,31.526c0,0-6.649,24.463,27.977,35.313,0,0-42.444-5.369-50.277,19.628l22.775,7.137s.719-12.824,17.883-12.291c12.795.4,30.176,5.632,34.381-7.789,4.972-15.867-12.271-12.8-8-26.443,0,0,16.811-3.68,23.657-25.529s-8.542-44.77-50.575-57.941-40.952-17.916-43.822-34.066-5.121-58.112-23-67.811C3432.174,434.872,3420.145,439.262,3413.817,442.57Z" fill="#fff"/>
      <path id="Caminho_28" data-name="Caminho 28" d="M3396.6,454.264c-.762-1.41-7.755-11.323-.269-22.419s23.552,4.293,40.283,2.826,31.288,19.365,33.719,35.691-3.046,51.469,2.421,54.914c0,0-16.134,5.4-25.935-9.225s-7.837-47.562-7.954-62.474c-.149-18.775-11.012-16.455-21.739-12.569C3411.522,443.039,3396.6,454.264,3396.6,454.264Z" fill="#dfaa72"/>
      <path id="Caminho_29" data-name="Caminho 29" d="M3446.822,516.051c9.8,14.626,25.935,9.225,25.935,9.225-2.375-1.5-2.684-8.974-2.475-18.291h0c-3.554-7.075-4.793,6.7-9.71.308s-5.048-7.527-11.5-7.306-5.2-9.285-1.107-28.482-2.2-26.732-6.846-31.432-17.143-4.15-24.317-1.958-15,2.292-17.748-.95c-1.373-1.621-1.16-4.82-.6-7.615a9.7,9.7,0,0,0-2.114,2.3c-7.486,11.1-.493,21.009.269,22.418,0,0,14.919-11.224,20.526-13.255,10.727-3.886,21.59-6.206,21.739,12.569C3438.985,468.489,3437.021,501.425,3446.822,516.051Z" fill="#c17e54"/>
      <path id="Caminho_30" data-name="Caminho 30" d="M3424,448.2s-4.807-11.267-.38-17.607l12.211,16.841Z" fill="#fff"/>
      <path id="Caminho_31" data-name="Caminho 31" d="M3562.081,601.48a32.84,32.84,0,0,0,1.5-12c-5.733,9.412-10.612,13.916-24.157,14.913-40.248,2.965-74.852-8.5-97.952-37.275-15.366-19.137-13.117-38.107-10.526-53.119s.679-34.014-5.79-40.564-29.79,10.465-40.534,12.738c-6.779,1.434-11.061.074-14.758-5.8,1.09,6.755,6.755,13.256,15.02,11.84,14.086-2.412,33.474-5.728,33.474-5.728s7.9,9.186,4.169,26.929-6.258,25.354-5.7,37.662l-.134.057c1.865,2.551,4.788,7.176,3.256,9.31-2.175,3.032-27,5.692-30,9.653-2.449,3.238-7.038,15.542-12,14.99-.092,4.005.031,8.1.169,11.7.465,12.143,8.763,27.112,24.689,24.883l6.47-20.647s-14.537,1.092-15.269-5.891a47.878,47.878,0,0,1,.9-14.667l35.451-.541s23.845,26.293,63.326,31.526c0,0-6.649,24.463,27.977,35.313,0,0-42.444-5.369-50.277,19.628l22.775,7.137s.719-12.824,17.883-12.291c12.795.4,30.176,5.632,34.381-7.789,4.972-15.867-12.271-12.8-8-26.443C3538.424,627.009,3555.235,623.329,3562.081,601.48Z" fill="#ececec"/>
      <path id="Caminho_32" data-name="Caminho 32" d="M3479.2,655.083a23.091,23.091,0,0,0-7.82,11.312l22.775,7.137a13.267,13.267,0,0,1,8.82-11Z" fill="#1d1d1b" stroke="#1d1d1b" stroke-miterlimit="10" stroke-width="0.869"/>
      <path id="Caminho_33" data-name="Caminho 33" d="M3512.5,540.374c-30.281-9.489-36.645-11.9-39.258-21.2-2.572,3.671-4.445,5.9-5.857,10.4a44.605,44.605,0,0,0,83.6,30.84C3542.231,552.8,3529.87,545.817,3512.5,540.374Z" fill="#e7344c"/>
      <path id="Caminho_34" data-name="Caminho 34" d="M3543.014,554.233a34.865,34.865,0,1,1-63.714-27.677c5.236-6.876-2.2-12.225-6.507-7.96a35.734,35.734,0,0,0-5.408,10.983,44.605,44.605,0,0,0,83.6,30.84C3553.089,553.72,3545.289,547.78,3543.014,554.233Z" fill="#73202c"/>
      <path id="Caminho_35" data-name="Caminho 35" d="M3537.219,550.93c-1.3-.734-2.61-1.462-4-2.171a23.473,23.473,0,0,1-11.823,14.506c-4.659,2.445-12.22,4.419-21.8.088-17.016-7.758-12.892-24.913-10.831-30.922-1.54-.6-2.88-1.19-4.126-1.763-2.284,6.717-7.377,27.464,13.093,36.791a32.888,32.888,0,0,0,3.978,1.535,27.964,27.964,0,0,0,35.516-18.064Z" fill="#dfaa72"/>
      <path id="Caminho_36" data-name="Caminho 36" d="M3434.139,462.073h.063l.4-21.88c-1.487-.994-3.784-2.149-5.4-2.062l.039,20.616-.189.07-7.139-19.478a40.4,40.4,0,0,0-4.785,1.67l7.286,19.542-33.087,12.37-4.45-11.9c-1.461.992-2.858,1.912-4.237,2.808l4.049,10.828-.1.036,1.733,4.639.1-.037,4.328,11.58,4.968-.85-4.659-12.463,35.244-13.176-9.95,22.109,2.518,4.324,13.309-28.63Z" fill="#73202c"/>
      <path id="Caminho_37" data-name="Caminho 37" d="M3396.4,598.813l-6.4,20.453a19.146,19.146,0,0,0,12.8,2.408l6.47-20.647S3400.71,601.67,3396.4,598.813Z" fill="#1d1d1b" stroke="#1d1d1b" stroke-miterlimit="10" stroke-width="0.869"/>
    </g>
  </g>
</svg>
