<svg xmlns="http://www.w3.org/2000/svg" width="350.812" height="116.993" viewBox="0 0 350.812 116.993">
  <g id="Grupo_97" data-name="Grupo 97" transform="translate(-259.963 -556.71)">
    <path id="Caminho_4" data-name="Caminho 4" d="M4921.489,608.516V578.21h-92.443v30.307H4700.534v85.635H5050V608.516Z" transform="translate(-4439.537 -21)" fill="#73202c"/>
    <g id="Grupo_1" data-name="Grupo 1" transform="translate(-4439.537 -21)">
      <rect id="Retângulo_3" data-name="Retângulo 3" width="9.786" height="11.158" transform="translate(4880.107 639.129)" fill="#b7182e"/>
      <rect id="Retângulo_4" data-name="Retângulo 4" width="9.786" height="11.158" transform="translate(4869.84 639.129)" fill="#b7182e"/>
      <rect id="Retângulo_5" data-name="Retângulo 5" width="30.321" height="20.244" transform="translate(4859.572 618.154)" fill="#b7182e"/>
      <rect id="Retângulo_6" data-name="Retângulo 6" width="9.786" height="11.158" transform="translate(4859.572 639.129)" fill="#b7182e"/>
      <rect id="Retângulo_7" data-name="Retângulo 7" width="30.321" height="1.034" transform="translate(4859.572 651.018)" fill="#b7182e"/>
      <rect id="Retângulo_8" data-name="Retângulo 8" width="30.321" height="38.228" transform="translate(4859.572 655.936)" fill="#b7182e"/>
    </g>
    <rect id="Retângulo_9" data-name="Retângulo 9" width="5.189" height="44.789" transform="translate(268.206 659.897) rotate(180)" fill="#b7182e"/>
    <rect id="Retângulo_10" data-name="Retângulo 10" width="25.592" height="39.117" transform="translate(376.148 634.071)" fill="#b7182e"/>
    <rect id="Retângulo_11" data-name="Retângulo 11" width="25.592" height="39.117" transform="translate(340.931 634.071)" fill="#b7182e"/>
    <rect id="Retângulo_12" data-name="Retângulo 12" width="25.592" height="39.117" transform="translate(305.713 634.071)" fill="#b7182e"/>
    <rect id="Retângulo_13" data-name="Retângulo 13" width="25.592" height="39.117" transform="translate(270.47 634.071)" fill="#b7182e"/>
    <rect id="Retângulo_14" data-name="Retângulo 14" width="5.189" height="44.789" transform="translate(303.423 659.897) rotate(180)" fill="#b7182e"/>
    <rect id="Retângulo_15" data-name="Retângulo 15" width="5.189" height="44.789" transform="translate(338.712 659.897) rotate(180)" fill="#b7182e"/>
    <rect id="Retângulo_16" data-name="Retângulo 16" width="5.189" height="44.789" transform="translate(374 659.897) rotate(180)" fill="#b7182e"/>
    <rect id="Retângulo_17" data-name="Retângulo 17" width="5.189" height="17.188" transform="translate(268.298 632.296) rotate(180)" fill="#73202c"/>
    <rect id="Retângulo_18" data-name="Retângulo 18" width="5.189" height="17.188" transform="translate(303.515 632.296) rotate(180)" fill="#73202c"/>
    <rect id="Retângulo_19" data-name="Retângulo 19" width="5.189" height="25.36" transform="translate(303.515 659.083) rotate(180)" fill="#73202c"/>
    <rect id="Retângulo_20" data-name="Retângulo 20" width="5.189" height="25.36" transform="translate(268.298 659.083) rotate(180)" fill="#73202c"/>
    <g id="Grupo_7" data-name="Grupo 7" transform="translate(-4439.537 -21)">
      <g id="Grupo_2" data-name="Grupo 2">
        <path id="Caminho_5" data-name="Caminho 5" d="M4875.981,607.21v-.205a.332.332,0,0,0-.221-.312l-.873-.311a.468.468,0,0,0-.309,0l-.873.311a.332.332,0,0,0-.22.312v.205a.134.134,0,0,0,.134.134h2.227A.135.135,0,0,0,4875.981,607.21Z" fill="#b7182e"/>
        <path id="Caminho_6" data-name="Caminho 6" d="M4875.958,608.662h0v-.624h-2.45v.624a.9.9,0,0,0-.864,1.17l1.968,6.367a.126.126,0,0,0,.241,0l1.968-6.367A.9.9,0,0,0,4875.958,608.662Z" fill="#b7182e"/>
      </g>
      <g id="Grupo_3" data-name="Grupo 3">
        <path id="Caminho_7" data-name="Caminho 7" d="M4885.385,610.594l.145-.144a.333.333,0,0,0,.065-.377l-.4-.837a.457.457,0,0,0-.218-.219l-.837-.4a.329.329,0,0,0-.377.065l-.145.144a.135.135,0,0,0,0,.19l.788.788.787.787A.133.133,0,0,0,4885.385,610.594Z" fill="#b7182e"/>
        <path id="Caminho_8" data-name="Caminho 8" d="M4884.342,611.6h0l.442-.441-.866-.866-.867-.866-.441.441a.9.9,0,0,0-1.438.217l-3.111,5.894a.126.126,0,0,0,.17.17l5.894-3.111A.9.9,0,0,0,4884.342,611.6Z" fill="#b7182e"/>
      </g>
      <g id="Grupo_4" data-name="Grupo 4">
        <path id="Caminho_9" data-name="Caminho 9" d="M4864.08,610.594l-.145-.144a.332.332,0,0,1-.065-.377l.4-.837a.461.461,0,0,1,.219-.219l.836-.4a.329.329,0,0,1,.377.065l.145.144a.136.136,0,0,1,0,.19l-.788.788-.787.787A.133.133,0,0,1,4864.08,610.594Z" fill="#b7182e"/>
        <path id="Caminho_10" data-name="Caminho 10" d="M4865.123,611.6h0l-.441-.441.866-.866.866-.866.441.441a.9.9,0,0,1,1.438.217l3.111,5.894a.126.126,0,0,1-.17.17l-5.894-3.111A.9.9,0,0,1,4865.123,611.6Z" fill="#b7182e"/>
      </g>
      <g id="Grupo_5" data-name="Grupo 5">
        <path id="Caminho_11" data-name="Caminho 11" d="M4868.05,615.913a.141.141,0,0,0-.1-.138l-7.309-2.259a1.037,1.037,0,0,0-1.344.991h-.716v1.406h9.471Z" fill="#b7182e"/>
        <path id="Caminho_12" data-name="Caminho 12" d="M4857.783,615.913h0v-1.278a.155.155,0,0,0-.155-.155h-.234a.382.382,0,0,0-.359.253l-.356,1a.512.512,0,0,0-.031.177Z" fill="#b7182e"/>
      </g>
      <g id="Grupo_6" data-name="Grupo 6">
        <path id="Caminho_13" data-name="Caminho 13" d="M4892.817,616a.478.478,0,0,0-.026-.155l-.311-.873a.331.331,0,0,0-.312-.22h-.205a.134.134,0,0,0-.134.134V616h.988Z" fill="#b7182e"/>
        <path id="Caminho_14" data-name="Caminho 14" d="M4891.135,616h0v-1.225h-.624a.9.9,0,0,0-1.17-.864l-6.367,1.968a.123.123,0,0,0-.089.121Z" fill="#b7182e"/>
      </g>
    </g>
    <g id="Grupo_8" data-name="Grupo 8" transform="translate(-4439.537 -21)">
      <path id="Caminho_15" data-name="Caminho 15" d="M4829.331,629.005v-.139a.225.225,0,0,0-.15-.212l-.6-.212a.315.315,0,0,0-.21,0l-.6.212a.225.225,0,0,0-.15.212v.139a.092.092,0,0,0,.092.092h1.516A.092.092,0,0,0,4829.331,629.005Z" fill="#b7182e"/>
      <path id="Caminho_16" data-name="Caminho 16" d="M4829.315,629.994h0v-.425h-1.668v.425a.615.615,0,0,0-.588.8l1.34,4.336a.086.086,0,0,0,.164,0l1.34-4.336A.615.615,0,0,0,4829.315,629.994Z" fill="#b7182e"/>
    </g>
    <g id="Grupo_9" data-name="Grupo 9" transform="translate(-4439.537 -21)">
      <path id="Caminho_17" data-name="Caminho 17" d="M4835.735,631.31l.1-.1a.226.226,0,0,0,.045-.257l-.271-.57a.316.316,0,0,0-.149-.149l-.57-.27a.225.225,0,0,0-.256.044l-.1.1a.092.092,0,0,0,0,.13l.536.536.536.536A.092.092,0,0,0,4835.735,631.31Z" fill="#b7182e"/>
      <path id="Caminho_18" data-name="Caminho 18" d="M4835.025,632h0l.3-.3-.59-.59-.589-.59-.3.3a.616.616,0,0,0-.979.148l-2.118,4.014a.086.086,0,0,0,.116.116l4.013-2.119A.615.615,0,0,0,4835.025,632Z" fill="#b7182e"/>
    </g>
    <g id="Grupo_10" data-name="Grupo 10" transform="translate(-4439.537 -21)">
      <path id="Caminho_19" data-name="Caminho 19" d="M4821.227,631.31l-.1-.1a.226.226,0,0,1-.045-.257l.271-.57a.318.318,0,0,1,.149-.149l.57-.27a.226.226,0,0,1,.257.044l.1.1a.092.092,0,0,1,0,.13l-.536.536-.536.536A.092.092,0,0,1,4821.227,631.31Z" fill="#b7182e"/>
      <path id="Caminho_20" data-name="Caminho 20" d="M4821.937,632h0l-.3-.3.59-.59.589-.59.3.3a.616.616,0,0,1,.979.148l2.118,4.014a.085.085,0,0,1-.115.116l-4.014-2.119A.615.615,0,0,1,4821.937,632Z" fill="#b7182e"/>
    </g>
    <g id="Grupo_11" data-name="Grupo 11" transform="translate(-4439.537 -21)">
      <path id="Caminho_21" data-name="Caminho 21" d="M4822.93,634.989a.083.083,0,0,0-.061-.082l-4.336-1.34a.615.615,0,0,0-.8.588h-.425v.834h5.618Z" fill="#b7182e"/>
      <path id="Caminho_22" data-name="Caminho 22" d="M4816.84,634.989h0v-.758a.092.092,0,0,0-.092-.092h-.139a.226.226,0,0,0-.213.15l-.211.595a.288.288,0,0,0-.019.105Z" fill="#b7182e"/>
    </g>
    <g id="Grupo_12" data-name="Grupo 12" transform="translate(-4439.537 -21)">
      <path id="Caminho_23" data-name="Caminho 23" d="M4840.8,634.989a.309.309,0,0,0-.018-.105l-.212-.595a.225.225,0,0,0-.213-.15h-.139a.092.092,0,0,0-.091.092v.758h.673Z" fill="#b7182e"/>
      <path id="Caminho_24" data-name="Caminho 24" d="M4839.65,634.989h0v-.834h-.424a.615.615,0,0,0-.8-.588l-4.336,1.34a.083.083,0,0,0-.061.082Z" fill="#b7182e"/>
    </g>
    <g id="Grupo_18" data-name="Grupo 18" transform="translate(-4439.537 -21)">
      <g id="Grupo_13" data-name="Grupo 13">
        <path id="Caminho_25" data-name="Caminho 25" d="M4827.631,629.005v-.139a.225.225,0,0,1,.15-.212l.6-.212a.315.315,0,0,1,.21,0l.6.212a.225.225,0,0,1,.15.212v.139a.092.092,0,0,1-.092.092h-1.516A.092.092,0,0,1,4827.631,629.005Z" fill="#b7182e"/>
        <path id="Caminho_26" data-name="Caminho 26" d="M4827.647,629.994h0v-.425h1.668v.425a.615.615,0,0,1,.588.8l-1.34,4.336a.086.086,0,0,1-.164,0l-1.34-4.336A.615.615,0,0,1,4827.647,629.994Z" fill="#b7182e"/>
      </g>
      <g id="Grupo_14" data-name="Grupo 14">
        <path id="Caminho_27" data-name="Caminho 27" d="M4821.227,631.31l-.1-.1a.226.226,0,0,1-.045-.257l.271-.57a.318.318,0,0,1,.149-.149l.57-.27a.226.226,0,0,1,.257.044l.1.1a.092.092,0,0,1,0,.13l-.536.536-.536.536A.092.092,0,0,1,4821.227,631.31Z" fill="#b7182e"/>
        <path id="Caminho_28" data-name="Caminho 28" d="M4821.937,632h0l-.3-.3.59-.59.589-.59.3.3a.616.616,0,0,1,.979.148l2.119,4.014a.086.086,0,0,1-.116.116l-4.014-2.119A.615.615,0,0,1,4821.937,632Z" fill="#b7182e"/>
      </g>
      <g id="Grupo_15" data-name="Grupo 15">
        <path id="Caminho_29" data-name="Caminho 29" d="M4835.735,631.31l.1-.1a.226.226,0,0,0,.045-.257l-.271-.57a.316.316,0,0,0-.149-.149l-.57-.27a.225.225,0,0,0-.256.044l-.1.1a.092.092,0,0,0,0,.13l.536.536.536.536A.092.092,0,0,0,4835.735,631.31Z" fill="#b7182e"/>
        <path id="Caminho_30" data-name="Caminho 30" d="M4835.025,632h0l.3-.3-.59-.59-.589-.59-.3.3a.616.616,0,0,0-.979.148l-2.118,4.014a.086.086,0,0,0,.116.116l4.013-2.119A.615.615,0,0,0,4835.025,632Z" fill="#b7182e"/>
      </g>
      <g id="Grupo_16" data-name="Grupo 16">
        <path id="Caminho_31" data-name="Caminho 31" d="M4834.032,634.989a.083.083,0,0,1,.061-.082l4.336-1.34a.615.615,0,0,1,.8.588h.424v.834h-5.618Z" fill="#b7182e"/>
        <path id="Caminho_32" data-name="Caminho 32" d="M4840.123,634.989h0v-.758a.092.092,0,0,1,.091-.092h.139a.225.225,0,0,1,.213.15l.212.595a.309.309,0,0,1,.018.105Z" fill="#b7182e"/>
      </g>
      <g id="Grupo_17" data-name="Grupo 17">
        <path id="Caminho_33" data-name="Caminho 33" d="M4816.166,634.989a.288.288,0,0,1,.019-.105l.211-.595a.226.226,0,0,1,.213-.15h.139a.092.092,0,0,1,.092.092v.758h-.674Z" fill="#b7182e"/>
        <path id="Caminho_34" data-name="Caminho 34" d="M4817.312,634.989h0v-.834h.425a.615.615,0,0,1,.8-.588l4.336,1.34a.083.083,0,0,1,.061.082Z" fill="#b7182e"/>
      </g>
    </g>
    <rect id="Retângulo_21" data-name="Retângulo 21" width="5.189" height="17.188" transform="translate(373.95 632.296) rotate(180)" fill="#73202c"/>
    <rect id="Retângulo_22" data-name="Retângulo 22" width="2.198" height="58.095" transform="translate(403.938 673.203) rotate(180)" fill="#73202c"/>
    <rect id="Retângulo_23" data-name="Retângulo 23" width="0.865" height="25.592" transform="translate(401.74 636.224) rotate(90)" fill="#73202c"/>
    <rect id="Retângulo_24" data-name="Retângulo 24" width="1.881" height="7.859" transform="translate(371.492 615.685)" fill="#b7182e"/>
    <rect id="Retângulo_25" data-name="Retângulo 25" width="1.842" height="7.859" transform="translate(369.337 615.685)" fill="#b7182e"/>
    <rect id="Retângulo_26" data-name="Retângulo 26" width="1.881" height="7.863" transform="translate(371.492 623.856)" fill="#b7182e"/>
    <rect id="Retângulo_27" data-name="Retângulo 27" width="1.842" height="7.863" transform="translate(369.337 623.856)" fill="#b7182e"/>
    <rect id="Retângulo_28" data-name="Retângulo 28" width="5.189" height="25.36" transform="translate(373.95 659.083) rotate(180)" fill="#73202c"/>
    <rect id="Retângulo_29" data-name="Retângulo 29" width="1.842" height="7.859" transform="translate(369.337 650.647)" fill="#b7182e"/>
    <rect id="Retângulo_30" data-name="Retângulo 30" width="1.842" height="7.859" transform="translate(371.53 650.647)" fill="#b7182e"/>
    <rect id="Retângulo_31" data-name="Retângulo 31" width="1.842" height="7.859" transform="translate(369.337 634.301)" fill="#b7182e"/>
    <rect id="Retângulo_32" data-name="Retângulo 32" width="1.881" height="7.859" transform="translate(371.492 634.301)" fill="#b7182e"/>
    <rect id="Retângulo_33" data-name="Retângulo 33" width="1.842" height="7.863" transform="translate(369.337 642.472)" fill="#b7182e"/>
    <rect id="Retângulo_34" data-name="Retângulo 34" width="1.881" height="7.863" transform="translate(371.492 642.472)" fill="#b7182e"/>
    <rect id="Retângulo_35" data-name="Retângulo 35" width="5.189" height="25.36" transform="translate(338.712 659.083) rotate(180)" fill="#73202c"/>
    <rect id="Retângulo_36" data-name="Retângulo 36" width="1.842" height="7.859" transform="translate(334.1 650.647)" fill="#b7182e"/>
    <rect id="Retângulo_37" data-name="Retângulo 37" width="1.842" height="7.859" transform="translate(336.292 650.647)" fill="#b7182e"/>
    <rect id="Retângulo_38" data-name="Retângulo 38" width="1.842" height="7.859" transform="translate(334.1 634.301)" fill="#b7182e"/>
    <rect id="Retângulo_39" data-name="Retângulo 39" width="1.881" height="7.859" transform="translate(336.254 634.301)" fill="#b7182e"/>
    <rect id="Retângulo_40" data-name="Retângulo 40" width="1.842" height="7.863" transform="translate(334.1 642.472)" fill="#b7182e"/>
    <rect id="Retângulo_41" data-name="Retângulo 41" width="1.881" height="7.863" transform="translate(336.254 642.472)" fill="#b7182e"/>
    <rect id="Retângulo_42" data-name="Retângulo 42" width="1.842" height="7.859" transform="translate(298.862 650.647)" fill="#b7182e"/>
    <rect id="Retângulo_43" data-name="Retângulo 43" width="1.842" height="7.859" transform="translate(301.055 650.647)" fill="#b7182e"/>
    <rect id="Retângulo_44" data-name="Retângulo 44" width="1.842" height="7.859" transform="translate(298.862 634.301)" fill="#b7182e"/>
    <rect id="Retângulo_45" data-name="Retângulo 45" width="1.881" height="7.859" transform="translate(301.017 634.301)" fill="#b7182e"/>
    <rect id="Retângulo_46" data-name="Retângulo 46" width="1.842" height="7.863" transform="translate(298.862 642.472)" fill="#b7182e"/>
    <rect id="Retângulo_47" data-name="Retângulo 47" width="1.881" height="7.863" transform="translate(301.017 642.472)" fill="#b7182e"/>
    <rect id="Retângulo_48" data-name="Retângulo 48" width="1.842" height="7.859" transform="translate(263.624 650.647)" fill="#b7182e"/>
    <rect id="Retângulo_49" data-name="Retângulo 49" width="1.842" height="7.859" transform="translate(265.817 650.647)" fill="#b7182e"/>
    <rect id="Retângulo_50" data-name="Retângulo 50" width="1.842" height="7.859" transform="translate(263.624 634.301)" fill="#b7182e"/>
    <rect id="Retângulo_51" data-name="Retângulo 51" width="1.881" height="7.859" transform="translate(265.779 634.301)" fill="#b7182e"/>
    <rect id="Retângulo_52" data-name="Retângulo 52" width="1.842" height="7.863" transform="translate(263.624 642.472)" fill="#b7182e"/>
    <rect id="Retângulo_53" data-name="Retângulo 53" width="1.881" height="7.863" transform="translate(265.779 642.472)" fill="#b7182e"/>
    <g id="Grupo_19" data-name="Grupo 19" transform="translate(-4439.537 -21)">
      <path id="Caminho_35" data-name="Caminho 35" d="M4794.113,629.005v-.139a.225.225,0,0,0-.15-.212l-.594-.212a.318.318,0,0,0-.211,0l-.594.212a.225.225,0,0,0-.15.212v.139a.091.091,0,0,0,.091.092h1.517A.091.091,0,0,0,4794.113,629.005Z" fill="#b7182e"/>
      <path id="Caminho_36" data-name="Caminho 36" d="M4794.1,629.994h0v-.425h-1.668v.425a.615.615,0,0,0-.588.8l1.34,4.336a.086.086,0,0,0,.164,0l1.34-4.336A.615.615,0,0,0,4794.1,629.994Z" fill="#b7182e"/>
    </g>
    <g id="Grupo_20" data-name="Grupo 20" transform="translate(-4439.537 -21)">
      <path id="Caminho_37" data-name="Caminho 37" d="M4800.518,631.31l.1-.1a.226.226,0,0,0,.044-.257l-.27-.57a.318.318,0,0,0-.149-.149l-.57-.27a.225.225,0,0,0-.257.044l-.1.1a.092.092,0,0,0,0,.13l.536.536.536.536A.092.092,0,0,0,4800.518,631.31Z" fill="#b7182e"/>
      <path id="Caminho_38" data-name="Caminho 38" d="M4799.807,632h0l.3-.3-.59-.59-.59-.59-.3.3a.616.616,0,0,0-.979.148l-2.119,4.014a.086.086,0,0,0,.116.116l4.014-2.119A.615.615,0,0,0,4799.807,632Z" fill="#b7182e"/>
    </g>
    <g id="Grupo_21" data-name="Grupo 21" transform="translate(-4439.537 -21)">
      <path id="Caminho_39" data-name="Caminho 39" d="M4786.01,631.31l-.1-.1a.228.228,0,0,1-.044-.257l.271-.57a.312.312,0,0,1,.149-.149l.57-.27a.224.224,0,0,1,.256.044l.1.1a.093.093,0,0,1,0,.13l-.537.536-.536.536A.091.091,0,0,1,4786.01,631.31Z" fill="#b7182e"/>
      <path id="Caminho_40" data-name="Caminho 40" d="M4786.72,632h0l-.3-.3.59-.59.59-.59.3.3a.616.616,0,0,1,.979.148L4791,634.98a.086.086,0,0,1-.116.116l-4.013-2.119A.614.614,0,0,1,4786.72,632Z" fill="#b7182e"/>
    </g>
    <g id="Grupo_22" data-name="Grupo 22" transform="translate(-4439.537 -21)">
      <path id="Caminho_41" data-name="Caminho 41" d="M4787.712,634.989a.084.084,0,0,0-.06-.082l-4.336-1.34a.615.615,0,0,0-.8.588h-.425v.834h5.618Z" fill="#b7182e"/>
      <path id="Caminho_42" data-name="Caminho 42" d="M4781.622,634.989h0v-.758a.092.092,0,0,0-.092-.092h-.139a.225.225,0,0,0-.212.15l-.212.595a.32.32,0,0,0-.018.105Z" fill="#b7182e"/>
    </g>
    <g id="Grupo_23" data-name="Grupo 23" transform="translate(-4439.537 -21)">
      <path id="Caminho_43" data-name="Caminho 43" d="M4805.578,634.989a.321.321,0,0,0-.018-.105l-.211-.595a.227.227,0,0,0-.213-.15H4805a.092.092,0,0,0-.092.092v.758h.673Z" fill="#b7182e"/>
      <path id="Caminho_44" data-name="Caminho 44" d="M4804.433,634.989h0v-.834h-.425a.615.615,0,0,0-.8-.588l-4.336,1.34a.084.084,0,0,0-.06.082Z" fill="#b7182e"/>
    </g>
    <g id="Grupo_29" data-name="Grupo 29" transform="translate(-4439.537 -21)">
      <g id="Grupo_24" data-name="Grupo 24">
        <path id="Caminho_45" data-name="Caminho 45" d="M4792.414,629.005v-.139a.225.225,0,0,1,.15-.212l.594-.212a.318.318,0,0,1,.211,0l.594.212a.226.226,0,0,1,.151.212v.139a.092.092,0,0,1-.092.092H4792.5A.091.091,0,0,1,4792.414,629.005Z" fill="#b7182e"/>
        <path id="Caminho_46" data-name="Caminho 46" d="M4792.43,629.994h0v-.425h1.668v.425a.615.615,0,0,1,.588.8l-1.34,4.336a.086.086,0,0,1-.164,0l-1.34-4.336A.615.615,0,0,1,4792.43,629.994Z" fill="#b7182e"/>
      </g>
      <g id="Grupo_25" data-name="Grupo 25">
        <path id="Caminho_47" data-name="Caminho 47" d="M4786.01,631.31l-.1-.1a.228.228,0,0,1-.044-.257l.271-.57a.312.312,0,0,1,.149-.149l.57-.27a.224.224,0,0,1,.256.044l.1.1a.093.093,0,0,1,0,.13l-.537.536-.536.536A.091.091,0,0,1,4786.01,631.31Z" fill="#b7182e"/>
        <path id="Caminho_48" data-name="Caminho 48" d="M4786.72,632h0l-.3-.3.59-.59.59-.59.3.3a.616.616,0,0,1,.979.148L4791,634.98a.086.086,0,0,1-.116.116l-4.013-2.119A.614.614,0,0,1,4786.72,632Z" fill="#b7182e"/>
      </g>
      <g id="Grupo_26" data-name="Grupo 26">
        <path id="Caminho_49" data-name="Caminho 49" d="M4800.518,631.31l.1-.1a.226.226,0,0,0,.044-.257l-.27-.57a.318.318,0,0,0-.149-.149l-.57-.27a.225.225,0,0,0-.257.044l-.1.1a.092.092,0,0,0,0,.13l.536.536.536.536A.092.092,0,0,0,4800.518,631.31Z" fill="#b7182e"/>
        <path id="Caminho_50" data-name="Caminho 50" d="M4799.807,632h0l.3-.3-.59-.59-.59-.59-.3.3a.616.616,0,0,0-.979.148l-2.119,4.014a.086.086,0,0,0,.116.116l4.014-2.119A.615.615,0,0,0,4799.807,632Z" fill="#b7182e"/>
      </g>
      <g id="Grupo_27" data-name="Grupo 27">
        <path id="Caminho_51" data-name="Caminho 51" d="M4798.815,634.989a.084.084,0,0,1,.06-.082l4.336-1.34a.615.615,0,0,1,.8.588h.425v.834h-5.618Z" fill="#b7182e"/>
        <path id="Caminho_52" data-name="Caminho 52" d="M4804.9,634.989h0v-.758a.092.092,0,0,1,.092-.092h.139a.227.227,0,0,1,.213.15l.211.595a.321.321,0,0,1,.018.105Z" fill="#b7182e"/>
      </g>
      <g id="Grupo_28" data-name="Grupo 28">
        <path id="Caminho_53" data-name="Caminho 53" d="M4780.949,634.989a.32.32,0,0,1,.018-.105l.212-.595a.225.225,0,0,1,.212-.15h.139a.092.092,0,0,1,.092.092v.758h-.673Z" fill="#b7182e"/>
        <path id="Caminho_54" data-name="Caminho 54" d="M4782.094,634.989h0v-.834h.425a.615.615,0,0,1,.8-.588l4.336,1.34a.084.084,0,0,1,.06.082Z" fill="#b7182e"/>
      </g>
    </g>
    <rect id="Retângulo_54" data-name="Retângulo 54" width="5.189" height="17.188" transform="translate(338.732 632.296) rotate(180)" fill="#73202c"/>
    <rect id="Retângulo_55" data-name="Retângulo 55" width="0.865" height="25.592" transform="translate(366.522 636.224) rotate(90)" fill="#73202c"/>
    <rect id="Retângulo_56" data-name="Retângulo 56" width="1.881" height="7.859" transform="translate(336.275 615.685)" fill="#b7182e"/>
    <rect id="Retângulo_57" data-name="Retângulo 57" width="1.842" height="7.859" transform="translate(334.12 615.685)" fill="#b7182e"/>
    <rect id="Retângulo_58" data-name="Retângulo 58" width="1.881" height="7.863" transform="translate(336.275 623.856)" fill="#b7182e"/>
    <rect id="Retângulo_59" data-name="Retângulo 59" width="1.842" height="7.863" transform="translate(334.12 623.856)" fill="#b7182e"/>
    <g id="Grupo_30" data-name="Grupo 30" transform="translate(-4439.537 -21)">
      <path id="Caminho_55" data-name="Caminho 55" d="M4758.9,629.005v-.139a.225.225,0,0,0-.15-.212l-.594-.212a.318.318,0,0,0-.211,0l-.594.212a.226.226,0,0,0-.151.212v.139a.092.092,0,0,0,.092.092h1.517A.091.091,0,0,0,4758.9,629.005Z" fill="#b7182e"/>
      <path id="Caminho_56" data-name="Caminho 56" d="M4758.88,629.994h0v-.425h-1.668v.425a.615.615,0,0,0-.588.8l1.34,4.336a.086.086,0,0,0,.164,0l1.34-4.336A.615.615,0,0,0,4758.88,629.994Z" fill="#b7182e"/>
    </g>
    <g id="Grupo_31" data-name="Grupo 31" transform="translate(-4439.537 -21)">
      <path id="Caminho_57" data-name="Caminho 57" d="M4765.3,631.31l.1-.1a.228.228,0,0,0,.044-.257l-.271-.57a.312.312,0,0,0-.149-.149l-.57-.27a.225.225,0,0,0-.256.044l-.1.1a.093.093,0,0,0,0,.13l.537.536.536.536A.09.09,0,0,0,4765.3,631.31Z" fill="#b7182e"/>
      <path id="Caminho_58" data-name="Caminho 58" d="M4764.59,632h0l.3-.3-.59-.59-.59-.59-.3.3a.616.616,0,0,0-.979.148l-2.118,4.014a.086.086,0,0,0,.116.116l4.013-2.119A.615.615,0,0,0,4764.59,632Z" fill="#b7182e"/>
    </g>
    <g id="Grupo_32" data-name="Grupo 32" transform="translate(-4439.537 -21)">
      <path id="Caminho_59" data-name="Caminho 59" d="M4750.792,631.31l-.1-.1a.226.226,0,0,1-.044-.257l.27-.57a.318.318,0,0,1,.149-.149l.57-.27a.225.225,0,0,1,.257.044l.1.1a.092.092,0,0,1,0,.13l-.536.536-.536.536A.092.092,0,0,1,4750.792,631.31Z" fill="#b7182e"/>
      <path id="Caminho_60" data-name="Caminho 60" d="M4751.5,632h0l-.3-.3.59-.59.59-.59.3.3a.616.616,0,0,1,.979.148l2.119,4.014a.086.086,0,0,1-.116.116l-4.014-2.119A.615.615,0,0,1,4751.5,632Z" fill="#b7182e"/>
    </g>
    <g id="Grupo_33" data-name="Grupo 33" transform="translate(-4439.537 -21)">
      <path id="Caminho_61" data-name="Caminho 61" d="M4752.5,634.989a.084.084,0,0,0-.06-.082l-4.336-1.34a.615.615,0,0,0-.8.588h-.425v.834h5.618Z" fill="#b7182e"/>
      <path id="Caminho_62" data-name="Caminho 62" d="M4746.4,634.989h0v-.758a.092.092,0,0,0-.092-.092h-.139a.226.226,0,0,0-.213.15l-.211.595a.309.309,0,0,0-.018.105Z" fill="#b7182e"/>
    </g>
    <g id="Grupo_34" data-name="Grupo 34" transform="translate(-4439.537 -21)">
      <path id="Caminho_63" data-name="Caminho 63" d="M4770.361,634.989a.309.309,0,0,0-.018-.105l-.212-.595a.225.225,0,0,0-.212-.15h-.14a.092.092,0,0,0-.091.092v.758h.673Z" fill="#b7182e"/>
      <path id="Caminho_64" data-name="Caminho 64" d="M4769.216,634.989h0v-.834h-.425a.615.615,0,0,0-.8-.588l-4.336,1.34a.084.084,0,0,0-.06.082Z" fill="#b7182e"/>
    </g>
    <g id="Grupo_40" data-name="Grupo 40" transform="translate(-4439.537 -21)">
      <g id="Grupo_35" data-name="Grupo 35">
        <path id="Caminho_65" data-name="Caminho 65" d="M4757.2,629.005v-.139a.226.226,0,0,1,.151-.212l.594-.212a.318.318,0,0,1,.211,0l.594.212a.225.225,0,0,1,.15.212v.139a.091.091,0,0,1-.091.092h-1.517A.092.092,0,0,1,4757.2,629.005Z" fill="#b7182e"/>
        <path id="Caminho_66" data-name="Caminho 66" d="M4757.212,629.994h0v-.425h1.668v.425a.615.615,0,0,1,.588.8l-1.34,4.336a.086.086,0,0,1-.164,0l-1.34-4.336A.615.615,0,0,1,4757.212,629.994Z" fill="#b7182e"/>
      </g>
      <g id="Grupo_36" data-name="Grupo 36">
        <path id="Caminho_67" data-name="Caminho 67" d="M4750.792,631.31l-.1-.1a.226.226,0,0,1-.044-.257l.27-.57a.318.318,0,0,1,.149-.149l.57-.27a.225.225,0,0,1,.257.044l.1.1a.092.092,0,0,1,0,.13l-.536.536-.536.536A.092.092,0,0,1,4750.792,631.31Z" fill="#b7182e"/>
        <path id="Caminho_68" data-name="Caminho 68" d="M4751.5,632h0l-.3-.3.59-.59.59-.59.3.3a.616.616,0,0,1,.979.148l2.119,4.014a.086.086,0,0,1-.116.116l-4.014-2.119A.615.615,0,0,1,4751.5,632Z" fill="#b7182e"/>
      </g>
      <g id="Grupo_37" data-name="Grupo 37">
        <path id="Caminho_69" data-name="Caminho 69" d="M4765.3,631.31l.1-.1a.228.228,0,0,0,.044-.257l-.271-.57a.312.312,0,0,0-.149-.149l-.57-.27a.225.225,0,0,0-.256.044l-.1.1a.093.093,0,0,0,0,.13l.537.536.536.536A.09.09,0,0,0,4765.3,631.31Z" fill="#b7182e"/>
        <path id="Caminho_70" data-name="Caminho 70" d="M4764.59,632h0l.3-.3-.59-.59-.59-.59-.3.3a.616.616,0,0,0-.979.148l-2.118,4.014a.086.086,0,0,0,.116.116l4.013-2.119A.615.615,0,0,0,4764.59,632Z" fill="#b7182e"/>
      </g>
      <g id="Grupo_38" data-name="Grupo 38">
        <path id="Caminho_71" data-name="Caminho 71" d="M4763.6,634.989a.084.084,0,0,1,.06-.082l4.336-1.34a.615.615,0,0,1,.8.588h.425v.834H4763.6Z" fill="#b7182e"/>
        <path id="Caminho_72" data-name="Caminho 72" d="M4769.688,634.989h0v-.758a.092.092,0,0,1,.091-.092h.14a.225.225,0,0,1,.212.15l.212.595a.309.309,0,0,1,.018.105Z" fill="#b7182e"/>
      </g>
      <g id="Grupo_39" data-name="Grupo 39">
        <path id="Caminho_73" data-name="Caminho 73" d="M4745.732,634.989a.309.309,0,0,1,.018-.105l.211-.595a.227.227,0,0,1,.213-.15h.139a.092.092,0,0,1,.092.092v.758h-.673Z" fill="#b7182e"/>
        <path id="Caminho_74" data-name="Caminho 74" d="M4746.877,634.989h0v-.834h.425a.615.615,0,0,1,.8-.588l4.336,1.34a.084.084,0,0,1,.06.082Z" fill="#b7182e"/>
      </g>
    </g>
    <rect id="Retângulo_60" data-name="Retângulo 60" width="0.865" height="25.592" transform="translate(331.305 636.224) rotate(90)" fill="#73202c"/>
    <rect id="Retângulo_61" data-name="Retângulo 61" width="1.881" height="7.859" transform="translate(301.058 615.685)" fill="#b7182e"/>
    <rect id="Retângulo_62" data-name="Retângulo 62" width="1.842" height="7.859" transform="translate(298.902 615.685)" fill="#b7182e"/>
    <rect id="Retângulo_63" data-name="Retângulo 63" width="1.881" height="7.863" transform="translate(301.058 623.856)" fill="#b7182e"/>
    <rect id="Retângulo_64" data-name="Retângulo 64" width="1.842" height="7.863" transform="translate(298.902 623.856)" fill="#b7182e"/>
    <g id="Grupo_41" data-name="Grupo 41" transform="translate(-4439.537 -21)">
      <path id="Caminho_75" data-name="Caminho 75" d="M4723.679,629.005v-.139a.225.225,0,0,0-.15-.212l-.595-.212a.315.315,0,0,0-.21,0l-.6.212a.225.225,0,0,0-.15.212v.139a.092.092,0,0,0,.092.092h1.516A.092.092,0,0,0,4723.679,629.005Z" fill="#b7182e"/>
      <path id="Caminho_76" data-name="Caminho 76" d="M4723.663,629.994h0v-.425H4722v.425a.615.615,0,0,0-.588.8l1.34,4.336a.086.086,0,0,0,.164,0l1.34-4.336A.615.615,0,0,0,4723.663,629.994Z" fill="#b7182e"/>
    </g>
    <g id="Grupo_42" data-name="Grupo 42" transform="translate(-4439.537 -21)">
      <path id="Caminho_77" data-name="Caminho 77" d="M4730.083,631.31l.1-.1a.226.226,0,0,0,.045-.257l-.271-.57a.318.318,0,0,0-.149-.149l-.57-.27a.226.226,0,0,0-.257.044l-.1.1a.092.092,0,0,0,0,.13l.536.536.536.536A.092.092,0,0,0,4730.083,631.31Z" fill="#b7182e"/>
      <path id="Caminho_78" data-name="Caminho 78" d="M4729.373,632h0l.3-.3-.59-.59-.589-.59-.3.3a.616.616,0,0,0-.979.148l-2.118,4.014a.085.085,0,0,0,.115.116l4.014-2.119A.615.615,0,0,0,4729.373,632Z" fill="#b7182e"/>
    </g>
    <g id="Grupo_43" data-name="Grupo 43" transform="translate(-4439.537 -21)">
      <path id="Caminho_79" data-name="Caminho 79" d="M4715.575,631.31l-.1-.1a.226.226,0,0,1-.045-.257l.271-.57a.316.316,0,0,1,.149-.149l.57-.27a.225.225,0,0,1,.256.044l.1.1a.092.092,0,0,1,0,.13l-.536.536-.536.536A.092.092,0,0,1,4715.575,631.31Z" fill="#b7182e"/>
      <path id="Caminho_80" data-name="Caminho 80" d="M4716.285,632h0l-.3-.3.59-.59.589-.59.3.3a.616.616,0,0,1,.979.148l2.118,4.014a.086.086,0,0,1-.116.116l-4.013-2.119A.615.615,0,0,1,4716.285,632Z" fill="#b7182e"/>
    </g>
    <g id="Grupo_44" data-name="Grupo 44" transform="translate(-4439.537 -21)">
      <path id="Caminho_81" data-name="Caminho 81" d="M4717.278,634.989a.083.083,0,0,0-.061-.082l-4.336-1.34a.615.615,0,0,0-.8.588h-.424v.834h5.618Z" fill="#b7182e"/>
      <path id="Caminho_82" data-name="Caminho 82" d="M4711.187,634.989h0v-.758a.092.092,0,0,0-.091-.092h-.139a.225.225,0,0,0-.213.15l-.212.595a.309.309,0,0,0-.018.105Z" fill="#b7182e"/>
    </g>
    <g id="Grupo_45" data-name="Grupo 45" transform="translate(-4439.537 -21)">
      <path id="Caminho_83" data-name="Caminho 83" d="M4735.144,634.989a.288.288,0,0,0-.019-.105l-.211-.595a.226.226,0,0,0-.213-.15h-.139a.092.092,0,0,0-.091.092v.758h.673Z" fill="#b7182e"/>
      <path id="Caminho_84" data-name="Caminho 84" d="M4734,634.989h0v-.834h-.425a.615.615,0,0,0-.8-.588l-4.336,1.34a.083.083,0,0,0-.061.082Z" fill="#b7182e"/>
    </g>
    <g id="Grupo_51" data-name="Grupo 51" transform="translate(-4439.537 -21)">
      <g id="Grupo_46" data-name="Grupo 46">
        <path id="Caminho_85" data-name="Caminho 85" d="M4721.979,629.005v-.139a.225.225,0,0,1,.15-.212l.6-.212a.315.315,0,0,1,.21,0l.595.212a.225.225,0,0,1,.15.212v.139a.092.092,0,0,1-.092.092h-1.516A.092.092,0,0,1,4721.979,629.005Z" fill="#b7182e"/>
        <path id="Caminho_86" data-name="Caminho 86" d="M4722,629.994h0v-.425h1.668v.425a.615.615,0,0,1,.588.8l-1.34,4.336a.086.086,0,0,1-.164,0l-1.34-4.336A.615.615,0,0,1,4722,629.994Z" fill="#b7182e"/>
      </g>
      <g id="Grupo_47" data-name="Grupo 47">
        <path id="Caminho_87" data-name="Caminho 87" d="M4715.575,631.31l-.1-.1a.226.226,0,0,1-.045-.257l.271-.57a.316.316,0,0,1,.149-.149l.57-.27a.225.225,0,0,1,.256.044l.1.1a.092.092,0,0,1,0,.13l-.536.536-.536.536A.092.092,0,0,1,4715.575,631.31Z" fill="#b7182e"/>
        <path id="Caminho_88" data-name="Caminho 88" d="M4716.285,632h0l-.3-.3.59-.59.589-.59.3.3a.616.616,0,0,1,.979.148l2.118,4.014a.086.086,0,0,1-.116.116l-4.013-2.119A.615.615,0,0,1,4716.285,632Z" fill="#b7182e"/>
      </g>
      <g id="Grupo_48" data-name="Grupo 48">
        <path id="Caminho_89" data-name="Caminho 89" d="M4730.083,631.31l.1-.1a.226.226,0,0,0,.045-.257l-.271-.57a.318.318,0,0,0-.149-.149l-.57-.27a.226.226,0,0,0-.257.044l-.1.1a.092.092,0,0,0,0,.13l.536.536.536.536A.092.092,0,0,0,4730.083,631.31Z" fill="#b7182e"/>
        <path id="Caminho_90" data-name="Caminho 90" d="M4729.373,632h0l.3-.3-.59-.59-.589-.59-.3.3a.616.616,0,0,0-.979.148l-2.118,4.014a.085.085,0,0,0,.115.116l4.014-2.119A.615.615,0,0,0,4729.373,632Z" fill="#b7182e"/>
      </g>
      <g id="Grupo_49" data-name="Grupo 49">
        <path id="Caminho_91" data-name="Caminho 91" d="M4728.38,634.989a.083.083,0,0,1,.061-.082l4.336-1.34a.615.615,0,0,1,.8.588H4734v.834h-5.618Z" fill="#b7182e"/>
        <path id="Caminho_92" data-name="Caminho 92" d="M4734.471,634.989h0v-.758a.092.092,0,0,1,.091-.092h.139a.226.226,0,0,1,.213.15l.212.595a.309.309,0,0,1,.018.105Z" fill="#b7182e"/>
      </g>
      <g id="Grupo_50" data-name="Grupo 50">
        <path id="Caminho_93" data-name="Caminho 93" d="M4710.514,634.989a.309.309,0,0,1,.018-.105l.212-.595a.225.225,0,0,1,.213-.15h.139a.092.092,0,0,1,.091.092v.758h-.673Z" fill="#b7182e"/>
        <path id="Caminho_94" data-name="Caminho 94" d="M4711.66,634.989h0v-.834h.424a.615.615,0,0,1,.8-.588l4.336,1.34a.083.083,0,0,1,.061.082Z" fill="#b7182e"/>
      </g>
    </g>
    <rect id="Retângulo_65" data-name="Retângulo 65" width="2.198" height="44.789" transform="translate(270.496 659.897) rotate(180)" fill="#73202c"/>
    <rect id="Retângulo_66" data-name="Retângulo 66" width="0.865" height="25.592" transform="translate(296.088 636.224) rotate(90)" fill="#73202c"/>
    <rect id="Retângulo_67" data-name="Retângulo 67" width="1.881" height="7.859" transform="translate(265.84 615.685)" fill="#b7182e"/>
    <rect id="Retângulo_68" data-name="Retângulo 68" width="1.842" height="7.859" transform="translate(263.685 615.685)" fill="#b7182e"/>
    <rect id="Retângulo_69" data-name="Retângulo 69" width="1.881" height="7.863" transform="translate(265.84 623.856)" fill="#b7182e"/>
    <rect id="Retângulo_70" data-name="Retângulo 70" width="1.842" height="7.863" transform="translate(263.685 623.856)" fill="#b7182e"/>
    <rect id="Retângulo_71" data-name="Retângulo 71" width="5.593" height="5.588" transform="translate(389.377 615.973)" fill="#b7182e"/>
    <path id="Caminho_95" data-name="Caminho 95" d="M4816.551,648.618v-.313h5.592v-5.431h-5.592v-.313h5.592v-5.588h-5.593v17.232h5.593v-5.588Z" transform="translate(-4439.537 -21)" fill="#b7182e"/>
    <rect id="Retângulo_72" data-name="Retângulo 72" width="5.593" height="5.431" transform="translate(389.377 621.874)" fill="#b7182e"/>
    <rect id="Retângulo_73" data-name="Retângulo 73" width="5.593" height="5.588" transform="translate(389.377 627.618)" fill="#b7182e"/>
    <path id="Caminho_96" data-name="Caminho 96" d="M4828.048,636.973h-5.593v5.588h5.593v.313h-5.593v5.431h5.593v.313h-5.593v5.588h5.593Z" transform="translate(-4439.537 -21)" fill="#b7182e"/>
    <path id="Caminho_97" data-name="Caminho 97" d="M4834.819,636.973v5.588h5.593v.313h-5.593v5.431h5.593v.313h-5.593v5.588h5.593V636.973Z" transform="translate(-4439.537 -21)" fill="#b7182e"/>
    <rect id="Retângulo_74" data-name="Retângulo 74" width="5.593" height="5.588" transform="translate(354.159 615.973)" fill="#b7182e"/>
    <path id="Caminho_98" data-name="Caminho 98" d="M4781.333,648.618v-.313h5.593v-5.431h-5.593v-.313h5.593v-5.588h-5.593v17.232h5.593v-5.588Z" transform="translate(-4439.537 -21)" fill="#b7182e"/>
    <rect id="Retângulo_75" data-name="Retângulo 75" width="5.593" height="5.431" transform="translate(354.159 621.874)" fill="#b7182e"/>
    <rect id="Retângulo_76" data-name="Retângulo 76" width="5.593" height="5.588" transform="translate(354.159 627.618)" fill="#b7182e"/>
    <path id="Caminho_99" data-name="Caminho 99" d="M4792.831,636.973h-5.593v5.588h5.593v.313h-5.593v5.431h5.593v.313h-5.593v5.588h5.593Z" transform="translate(-4439.537 -21)" fill="#b7182e"/>
    <path id="Caminho_100" data-name="Caminho 100" d="M4799.6,636.973v5.588h5.593v.313H4799.6v5.431h5.593v.313H4799.6v5.588h5.593V636.973Z" transform="translate(-4439.537 -21)" fill="#b7182e"/>
    <rect id="Retângulo_77" data-name="Retângulo 77" width="5.593" height="5.588" transform="translate(318.942 615.973)" fill="#b7182e"/>
    <path id="Caminho_101" data-name="Caminho 101" d="M4746.116,648.618v-.313h5.592v-5.431h-5.592v-.313h5.592v-5.588h-5.592v17.232h5.592v-5.588Z" transform="translate(-4439.537 -21)" fill="#b7182e"/>
    <rect id="Retângulo_78" data-name="Retângulo 78" width="5.593" height="5.431" transform="translate(318.942 621.874)" fill="#b7182e"/>
    <rect id="Retângulo_79" data-name="Retângulo 79" width="5.593" height="5.588" transform="translate(318.942 627.618)" fill="#b7182e"/>
    <path id="Caminho_102" data-name="Caminho 102" d="M4757.613,636.973h-5.592v5.588h5.592v.313h-5.592v5.431h5.592v.313h-5.592v5.588h5.592Z" transform="translate(-4439.537 -21)" fill="#b7182e"/>
    <path id="Caminho_103" data-name="Caminho 103" d="M4764.384,636.973v5.588h5.592v.313h-5.592v5.431h5.592v.313h-5.592v5.588h5.593V636.973Z" transform="translate(-4439.537 -21)" fill="#b7182e"/>
    <rect id="Retângulo_80" data-name="Retângulo 80" width="5.593" height="5.588" transform="translate(283.725 615.973)" fill="#b7182e"/>
    <path id="Caminho_104" data-name="Caminho 104" d="M4710.9,648.618v-.313h5.592v-5.431H4710.9v-.313h5.592v-5.588H4710.9v17.232h5.593v-5.588Z" transform="translate(-4439.537 -21)" fill="#b7182e"/>
    <rect id="Retângulo_81" data-name="Retângulo 81" width="5.593" height="5.431" transform="translate(283.725 621.874)" fill="#b7182e"/>
    <rect id="Retângulo_82" data-name="Retângulo 82" width="5.593" height="5.588" transform="translate(283.725 627.618)" fill="#b7182e"/>
    <path id="Caminho_105" data-name="Caminho 105" d="M4722.4,636.973H4716.8v5.588h5.593v.313H4716.8v5.431h5.593v.313H4716.8v5.588h5.593Z" transform="translate(-4439.537 -21)" fill="#b7182e"/>
    <path id="Caminho_106" data-name="Caminho 106" d="M4729.167,636.973v5.588h5.593v.313h-5.593v5.431h5.593v.313h-5.593v5.588h5.593V636.973Z" transform="translate(-4439.537 -21)" fill="#b7182e"/>
    <rect id="Retângulo_83" data-name="Retângulo 83" width="10.442" height="13.306" transform="translate(376.557 673.203) rotate(180)" fill="#73202c" stroke="#dfaa72" stroke-linecap="round" stroke-miterlimit="10" stroke-width="1" stroke-dasharray="0.1 1.5"/>
    <rect id="Retângulo_84" data-name="Retângulo 84" width="10.442" height="13.306" transform="translate(341.339 673.203) rotate(180)" fill="#73202c" stroke="#dfaa72" stroke-linecap="round" stroke-miterlimit="10" stroke-width="1" stroke-dasharray="0.1 1.5"/>
    <rect id="Retângulo_85" data-name="Retângulo 85" width="10.442" height="13.306" transform="translate(306.122 673.203) rotate(180)" fill="#73202c" stroke="#dfaa72" stroke-linecap="round" stroke-miterlimit="10" stroke-width="1" stroke-dasharray="0.1 1.5"/>
    <rect id="Retângulo_86" data-name="Retângulo 86" width="10.442" height="13.306" transform="translate(270.905 673.203) rotate(180)" fill="#73202c" stroke="#dfaa72" stroke-linecap="round" stroke-miterlimit="10" stroke-width="1" stroke-dasharray="0.1 1.5"/>
    <rect id="Retângulo_87" data-name="Retângulo 87" width="5.189" height="44.789" transform="translate(602.155 615.108)" fill="#b7182e"/>
    <rect id="Retângulo_88" data-name="Retângulo 88" width="25.592" height="39.117" transform="translate(494.213 673.188) rotate(180)" fill="#b7182e"/>
    <rect id="Retângulo_89" data-name="Retângulo 89" width="25.592" height="39.117" transform="translate(529.431 673.188) rotate(180)" fill="#b7182e"/>
    <rect id="Retângulo_90" data-name="Retângulo 90" width="25.592" height="39.117" transform="translate(564.648 673.188) rotate(180)" fill="#b7182e"/>
    <rect id="Retângulo_91" data-name="Retângulo 91" width="25.592" height="39.117" transform="translate(599.892 673.188) rotate(180)" fill="#b7182e"/>
    <rect id="Retângulo_92" data-name="Retângulo 92" width="5.189" height="44.789" transform="translate(566.938 615.108)" fill="#b7182e"/>
    <rect id="Retângulo_93" data-name="Retângulo 93" width="5.189" height="44.789" transform="translate(531.649 615.108)" fill="#b7182e"/>
    <rect id="Retângulo_94" data-name="Retângulo 94" width="5.189" height="44.789" transform="translate(496.36 615.108)" fill="#b7182e"/>
    <rect id="Retângulo_95" data-name="Retângulo 95" width="5.189" height="17.188" transform="translate(602.063 615.108)" fill="#73202c"/>
    <rect id="Retângulo_96" data-name="Retângulo 96" width="5.189" height="17.188" transform="translate(566.846 615.108)" fill="#73202c"/>
    <rect id="Retângulo_97" data-name="Retângulo 97" width="5.189" height="25.36" transform="translate(566.846 633.724)" fill="#73202c"/>
    <rect id="Retângulo_98" data-name="Retângulo 98" width="5.189" height="25.36" transform="translate(602.063 633.724)" fill="#73202c"/>
    <g id="Grupo_52" data-name="Grupo 52" transform="translate(-4439.537 -21)">
      <path id="Caminho_107" data-name="Caminho 107" d="M4920.1,629.005v-.139a.226.226,0,0,1,.151-.212l.594-.212a.318.318,0,0,1,.211,0l.594.212a.225.225,0,0,1,.15.212v.139a.092.092,0,0,1-.091.092H4920.2A.092.092,0,0,1,4920.1,629.005Z" fill="#b7182e"/>
      <path id="Caminho_108" data-name="Caminho 108" d="M4920.12,629.994h0v-.425h1.668v.425a.615.615,0,0,1,.588.8l-1.34,4.336a.086.086,0,0,1-.164,0l-1.34-4.336A.615.615,0,0,1,4920.12,629.994Z" fill="#b7182e"/>
    </g>
    <g id="Grupo_53" data-name="Grupo 53" transform="translate(-4439.537 -21)">
      <path id="Caminho_109" data-name="Caminho 109" d="M4913.7,631.31l-.1-.1a.226.226,0,0,1-.044-.257l.27-.57a.316.316,0,0,1,.149-.149l.57-.27a.226.226,0,0,1,.257.044l.1.1a.092.092,0,0,1,0,.13l-.536.536-.536.536A.092.092,0,0,1,4913.7,631.31Z" fill="#b7182e"/>
      <path id="Caminho_110" data-name="Caminho 110" d="M4914.411,632h0l-.3-.3.59-.59.59-.59.3.3a.616.616,0,0,1,.979.148l2.119,4.014a.086.086,0,0,1-.116.116l-4.014-2.119A.615.615,0,0,1,4914.411,632Z" fill="#b7182e"/>
    </g>
    <g id="Grupo_54" data-name="Grupo 54" transform="translate(-4439.537 -21)">
      <path id="Caminho_111" data-name="Caminho 111" d="M4928.208,631.31l.1-.1a.228.228,0,0,0,.044-.257l-.271-.57a.314.314,0,0,0-.149-.149l-.57-.27a.224.224,0,0,0-.256.044l-.1.1a.094.094,0,0,0,0,.13l.537.536.536.536A.09.09,0,0,0,4928.208,631.31Z" fill="#b7182e"/>
      <path id="Caminho_112" data-name="Caminho 112" d="M4927.5,632h0l.3-.3-.59-.59-.59-.59-.3.3a.616.616,0,0,0-.979.148l-2.118,4.014a.086.086,0,0,0,.116.116l4.013-2.119A.615.615,0,0,0,4927.5,632Z" fill="#b7182e"/>
    </g>
    <g id="Grupo_55" data-name="Grupo 55" transform="translate(-4439.537 -21)">
      <path id="Caminho_113" data-name="Caminho 113" d="M4926.506,634.989a.084.084,0,0,1,.06-.082l4.336-1.34a.615.615,0,0,1,.8.588h.425v.834h-5.618Z" fill="#b7182e"/>
      <path id="Caminho_114" data-name="Caminho 114" d="M4932.6,634.989h0v-.758a.092.092,0,0,1,.092-.092h.139a.226.226,0,0,1,.212.15l.212.595a.309.309,0,0,1,.018.105Z" fill="#b7182e"/>
    </g>
    <g id="Grupo_56" data-name="Grupo 56" transform="translate(-4439.537 -21)">
      <path id="Caminho_115" data-name="Caminho 115" d="M4908.64,634.989a.309.309,0,0,1,.018-.105l.211-.595a.226.226,0,0,1,.213-.15h.139a.092.092,0,0,1,.092.092v.758h-.673Z" fill="#b7182e"/>
      <path id="Caminho_116" data-name="Caminho 116" d="M4909.785,634.989h0v-.834h.425a.615.615,0,0,1,.8-.588l4.336,1.34a.084.084,0,0,1,.06.082Z" fill="#b7182e"/>
    </g>
    <g id="Grupo_62" data-name="Grupo 62" transform="translate(-4439.537 -21)">
      <g id="Grupo_57" data-name="Grupo 57">
        <path id="Caminho_117" data-name="Caminho 117" d="M4921.8,629.005v-.139a.225.225,0,0,0-.15-.212l-.594-.212a.318.318,0,0,0-.211,0l-.594.212a.226.226,0,0,0-.151.212v.139a.092.092,0,0,0,.092.092h1.517A.092.092,0,0,0,4921.8,629.005Z" fill="#b7182e"/>
        <path id="Caminho_118" data-name="Caminho 118" d="M4921.788,629.994h0v-.425h-1.668v.425a.615.615,0,0,0-.588.8l1.34,4.336a.086.086,0,0,0,.164,0l1.34-4.336A.615.615,0,0,0,4921.788,629.994Z" fill="#b7182e"/>
      </g>
      <g id="Grupo_58" data-name="Grupo 58">
        <path id="Caminho_119" data-name="Caminho 119" d="M4928.208,631.31l.1-.1a.228.228,0,0,0,.044-.257l-.271-.57a.314.314,0,0,0-.149-.149l-.57-.27a.224.224,0,0,0-.256.044l-.1.1a.094.094,0,0,0,0,.13l.537.536.536.536A.09.09,0,0,0,4928.208,631.31Z" fill="#b7182e"/>
        <path id="Caminho_120" data-name="Caminho 120" d="M4927.5,632h0l.3-.3-.59-.59-.59-.59-.3.3a.616.616,0,0,0-.979.148l-2.118,4.014a.086.086,0,0,0,.116.116l4.013-2.119A.615.615,0,0,0,4927.5,632Z" fill="#b7182e"/>
      </g>
      <g id="Grupo_59" data-name="Grupo 59">
        <path id="Caminho_121" data-name="Caminho 121" d="M4913.7,631.31l-.1-.1a.226.226,0,0,1-.044-.257l.27-.57a.316.316,0,0,1,.149-.149l.57-.27a.226.226,0,0,1,.257.044l.1.1a.092.092,0,0,1,0,.13l-.536.536-.536.536A.092.092,0,0,1,4913.7,631.31Z" fill="#b7182e"/>
        <path id="Caminho_122" data-name="Caminho 122" d="M4914.411,632h0l-.3-.3.59-.59.59-.59.3.3a.616.616,0,0,1,.979.148l2.119,4.014a.086.086,0,0,1-.116.116l-4.014-2.119A.615.615,0,0,1,4914.411,632Z" fill="#b7182e"/>
      </g>
      <g id="Grupo_60" data-name="Grupo 60">
        <path id="Caminho_123" data-name="Caminho 123" d="M4915.4,634.989a.084.084,0,0,0-.06-.082l-4.336-1.34a.615.615,0,0,0-.8.588h-.425v.834h5.618Z" fill="#b7182e"/>
        <path id="Caminho_124" data-name="Caminho 124" d="M4909.313,634.989h0v-.758a.092.092,0,0,0-.092-.092h-.139a.226.226,0,0,0-.213.15l-.211.595a.309.309,0,0,0-.018.105Z" fill="#b7182e"/>
      </g>
      <g id="Grupo_61" data-name="Grupo 61">
        <path id="Caminho_125" data-name="Caminho 125" d="M4933.269,634.989a.309.309,0,0,0-.018-.105l-.212-.595a.226.226,0,0,0-.212-.15h-.14a.092.092,0,0,0-.091.092v.758h.673Z" fill="#b7182e"/>
        <path id="Caminho_126" data-name="Caminho 126" d="M4932.124,634.989h0v-.834h-.425a.615.615,0,0,0-.8-.588l-4.336,1.34a.084.084,0,0,0-.06.082Z" fill="#b7182e"/>
      </g>
    </g>
    <rect id="Retângulo_99" data-name="Retângulo 99" width="5.189" height="17.188" transform="translate(496.412 615.108)" fill="#73202c"/>
    <rect id="Retângulo_100" data-name="Retângulo 100" width="2.198" height="58.095" transform="translate(466.423 615.108)" fill="#73202c"/>
    <rect id="Retângulo_101" data-name="Retângulo 101" width="0.865" height="25.592" transform="translate(494.213 636.224) rotate(90)" fill="#73202c"/>
    <rect id="Retângulo_102" data-name="Retângulo 102" width="1.881" height="7.859" transform="translate(496.988 615.685)" fill="#b7182e"/>
    <rect id="Retângulo_103" data-name="Retângulo 103" width="1.842" height="7.859" transform="translate(499.182 615.685)" fill="#b7182e"/>
    <rect id="Retângulo_104" data-name="Retângulo 104" width="1.881" height="7.863" transform="translate(496.988 623.856)" fill="#b7182e"/>
    <rect id="Retângulo_105" data-name="Retângulo 105" width="1.842" height="7.863" transform="translate(499.182 623.856)" fill="#b7182e"/>
    <rect id="Retângulo_106" data-name="Retângulo 106" width="5.189" height="25.36" transform="translate(496.412 633.724)" fill="#73202c"/>
    <rect id="Retângulo_107" data-name="Retângulo 107" width="1.842" height="7.859" transform="translate(499.182 650.647)" fill="#b7182e"/>
    <rect id="Retângulo_108" data-name="Retângulo 108" width="1.842" height="7.859" transform="translate(496.988 650.647)" fill="#b7182e"/>
    <rect id="Retângulo_109" data-name="Retângulo 109" width="1.842" height="7.859" transform="translate(499.182 634.301)" fill="#b7182e"/>
    <rect id="Retângulo_110" data-name="Retângulo 110" width="1.881" height="7.859" transform="translate(496.988 634.301)" fill="#b7182e"/>
    <rect id="Retângulo_111" data-name="Retângulo 111" width="1.842" height="7.863" transform="translate(499.182 642.472)" fill="#b7182e"/>
    <rect id="Retângulo_112" data-name="Retângulo 112" width="1.881" height="7.863" transform="translate(496.988 642.472)" fill="#b7182e"/>
    <rect id="Retângulo_113" data-name="Retângulo 113" width="5.189" height="25.36" transform="translate(531.649 633.724)" fill="#73202c"/>
    <rect id="Retângulo_114" data-name="Retângulo 114" width="1.842" height="7.859" transform="translate(534.419 650.647)" fill="#b7182e"/>
    <rect id="Retângulo_115" data-name="Retângulo 115" width="1.842" height="7.859" transform="translate(532.226 650.647)" fill="#b7182e"/>
    <rect id="Retângulo_116" data-name="Retângulo 116" width="1.842" height="7.859" transform="translate(534.419 634.301)" fill="#b7182e"/>
    <rect id="Retângulo_117" data-name="Retângulo 117" width="1.881" height="7.859" transform="translate(532.226 634.301)" fill="#b7182e"/>
    <rect id="Retângulo_118" data-name="Retângulo 118" width="1.842" height="7.863" transform="translate(534.419 642.472)" fill="#b7182e"/>
    <rect id="Retângulo_119" data-name="Retângulo 119" width="1.881" height="7.863" transform="translate(532.226 642.472)" fill="#b7182e"/>
    <rect id="Retângulo_120" data-name="Retângulo 120" width="1.842" height="7.859" transform="translate(569.657 650.647)" fill="#b7182e"/>
    <rect id="Retângulo_121" data-name="Retângulo 121" width="1.842" height="7.859" transform="translate(567.464 650.647)" fill="#b7182e"/>
    <rect id="Retângulo_122" data-name="Retângulo 122" width="1.842" height="7.859" transform="translate(569.657 634.301)" fill="#b7182e"/>
    <rect id="Retângulo_123" data-name="Retângulo 123" width="1.881" height="7.859" transform="translate(567.464 634.301)" fill="#b7182e"/>
    <rect id="Retângulo_124" data-name="Retângulo 124" width="1.842" height="7.863" transform="translate(569.657 642.472)" fill="#b7182e"/>
    <rect id="Retângulo_125" data-name="Retângulo 125" width="1.881" height="7.863" transform="translate(567.464 642.472)" fill="#b7182e"/>
    <rect id="Retângulo_126" data-name="Retângulo 126" width="1.842" height="7.859" transform="translate(604.895 650.647)" fill="#b7182e"/>
    <rect id="Retângulo_127" data-name="Retângulo 127" width="1.842" height="7.859" transform="translate(602.702 650.647)" fill="#b7182e"/>
    <rect id="Retângulo_128" data-name="Retângulo 128" width="1.842" height="7.859" transform="translate(604.895 634.301)" fill="#b7182e"/>
    <rect id="Retângulo_129" data-name="Retângulo 129" width="1.881" height="7.859" transform="translate(602.702 634.301)" fill="#b7182e"/>
    <rect id="Retângulo_130" data-name="Retângulo 130" width="1.842" height="7.863" transform="translate(604.895 642.472)" fill="#b7182e"/>
    <rect id="Retângulo_131" data-name="Retângulo 131" width="1.881" height="7.863" transform="translate(602.702 642.472)" fill="#b7182e"/>
    <g id="Grupo_63" data-name="Grupo 63" transform="translate(-4439.537 -21)">
      <path id="Caminho_127" data-name="Caminho 127" d="M4955.322,629.005v-.139a.225.225,0,0,1,.15-.212l.594-.212a.318.318,0,0,1,.211,0l.594.212a.226.226,0,0,1,.151.212v.139a.092.092,0,0,1-.092.092h-1.516A.092.092,0,0,1,4955.322,629.005Z" fill="#b7182e"/>
      <path id="Caminho_128" data-name="Caminho 128" d="M4955.338,629.994h0v-.425h1.668v.425a.616.616,0,0,1,.588.8l-1.34,4.336a.086.086,0,0,1-.164,0l-1.34-4.336A.615.615,0,0,1,4955.338,629.994Z" fill="#b7182e"/>
    </g>
    <g id="Grupo_64" data-name="Grupo 64" transform="translate(-4439.537 -21)">
      <path id="Caminho_129" data-name="Caminho 129" d="M4948.918,631.31l-.1-.1a.228.228,0,0,1-.044-.257l.271-.57a.314.314,0,0,1,.149-.149l.57-.27a.224.224,0,0,1,.256.044l.1.1a.094.094,0,0,1,0,.13l-.537.536-.536.536A.09.09,0,0,1,4948.918,631.31Z" fill="#b7182e"/>
      <path id="Caminho_130" data-name="Caminho 130" d="M4949.628,632h0l-.3-.3.59-.59.59-.59.3.3a.616.616,0,0,1,.979.148l2.118,4.014a.086.086,0,0,1-.116.116l-4.013-2.119A.615.615,0,0,1,4949.628,632Z" fill="#b7182e"/>
    </g>
    <g id="Grupo_65" data-name="Grupo 65" transform="translate(-4439.537 -21)">
      <path id="Caminho_131" data-name="Caminho 131" d="M4963.426,631.31l.1-.1a.226.226,0,0,0,.044-.257l-.27-.57a.316.316,0,0,0-.149-.149l-.57-.27a.226.226,0,0,0-.257.044l-.1.1a.092.092,0,0,0,0,.13l.536.536.536.536A.092.092,0,0,0,4963.426,631.31Z" fill="#b7182e"/>
      <path id="Caminho_132" data-name="Caminho 132" d="M4962.715,632h0l.3-.3-.59-.59-.59-.59-.3.3a.616.616,0,0,0-.979.148l-2.119,4.014a.086.086,0,0,0,.116.116l4.014-2.119A.615.615,0,0,0,4962.715,632Z" fill="#b7182e"/>
    </g>
    <g id="Grupo_66" data-name="Grupo 66" transform="translate(-4439.537 -21)">
      <path id="Caminho_133" data-name="Caminho 133" d="M4961.723,634.989a.084.084,0,0,1,.06-.082l4.336-1.34a.615.615,0,0,1,.8.588h.425v.834h-5.618Z" fill="#b7182e"/>
      <path id="Caminho_134" data-name="Caminho 134" d="M4967.813,634.989h0v-.758a.092.092,0,0,1,.092-.092h.139a.225.225,0,0,1,.213.15l.211.595a.309.309,0,0,1,.018.105Z" fill="#b7182e"/>
    </g>
    <g id="Grupo_67" data-name="Grupo 67" transform="translate(-4439.537 -21)">
      <path id="Caminho_135" data-name="Caminho 135" d="M4943.857,634.989a.309.309,0,0,1,.018-.105l.212-.595a.226.226,0,0,1,.212-.15h.14a.092.092,0,0,1,.091.092v.758h-.673Z" fill="#b7182e"/>
      <path id="Caminho_136" data-name="Caminho 136" d="M4945,634.989h0v-.834h.425a.615.615,0,0,1,.8-.588l4.336,1.34a.084.084,0,0,1,.06.082Z" fill="#b7182e"/>
    </g>
    <g id="Grupo_73" data-name="Grupo 73" transform="translate(-4439.537 -21)">
      <g id="Grupo_68" data-name="Grupo 68">
        <path id="Caminho_137" data-name="Caminho 137" d="M4957.022,629.005v-.139a.226.226,0,0,0-.151-.212l-.594-.212a.318.318,0,0,0-.211,0l-.594.212a.225.225,0,0,0-.15.212v.139a.092.092,0,0,0,.091.092h1.517A.092.092,0,0,0,4957.022,629.005Z" fill="#b7182e"/>
        <path id="Caminho_138" data-name="Caminho 138" d="M4957.006,629.994h0v-.425h-1.668v.425a.615.615,0,0,0-.588.8l1.34,4.336a.086.086,0,0,0,.164,0l1.34-4.336A.616.616,0,0,0,4957.006,629.994Z" fill="#b7182e"/>
      </g>
      <g id="Grupo_69" data-name="Grupo 69">
        <path id="Caminho_139" data-name="Caminho 139" d="M4963.426,631.31l.1-.1a.226.226,0,0,0,.044-.257l-.27-.57a.316.316,0,0,0-.149-.149l-.57-.27a.226.226,0,0,0-.257.044l-.1.1a.092.092,0,0,0,0,.13l.536.536.536.536A.092.092,0,0,0,4963.426,631.31Z" fill="#b7182e"/>
        <path id="Caminho_140" data-name="Caminho 140" d="M4962.715,632h0l.3-.3-.59-.59-.59-.59-.3.3a.616.616,0,0,0-.979.148l-2.119,4.014a.086.086,0,0,0,.116.116l4.014-2.119A.615.615,0,0,0,4962.715,632Z" fill="#b7182e"/>
      </g>
      <g id="Grupo_70" data-name="Grupo 70">
        <path id="Caminho_141" data-name="Caminho 141" d="M4948.918,631.31l-.1-.1a.228.228,0,0,1-.044-.257l.271-.57a.314.314,0,0,1,.149-.149l.57-.27a.224.224,0,0,1,.256.044l.1.1a.094.094,0,0,1,0,.13l-.537.536-.536.536A.09.09,0,0,1,4948.918,631.31Z" fill="#b7182e"/>
        <path id="Caminho_142" data-name="Caminho 142" d="M4949.628,632h0l-.3-.3.59-.59.59-.59.3.3a.616.616,0,0,1,.979.148l2.118,4.014a.086.086,0,0,1-.116.116l-4.013-2.119A.615.615,0,0,1,4949.628,632Z" fill="#b7182e"/>
      </g>
      <g id="Grupo_71" data-name="Grupo 71">
        <path id="Caminho_143" data-name="Caminho 143" d="M4950.62,634.989a.084.084,0,0,0-.06-.082l-4.336-1.34a.615.615,0,0,0-.8.588H4945v.834h5.618Z" fill="#b7182e"/>
        <path id="Caminho_144" data-name="Caminho 144" d="M4944.53,634.989h0v-.758a.092.092,0,0,0-.091-.092h-.14a.226.226,0,0,0-.212.15l-.212.595a.309.309,0,0,0-.018.105Z" fill="#b7182e"/>
      </g>
      <g id="Grupo_72" data-name="Grupo 72">
        <path id="Caminho_145" data-name="Caminho 145" d="M4968.486,634.989a.309.309,0,0,0-.018-.105l-.211-.595a.225.225,0,0,0-.213-.15h-.139a.092.092,0,0,0-.092.092v.758h.673Z" fill="#b7182e"/>
        <path id="Caminho_146" data-name="Caminho 146" d="M4967.341,634.989h0v-.834h-.425a.615.615,0,0,0-.8-.588l-4.336,1.34a.084.084,0,0,0-.06.082Z" fill="#b7182e"/>
      </g>
    </g>
    <rect id="Retângulo_132" data-name="Retângulo 132" width="5.189" height="17.188" transform="translate(531.629 615.108)" fill="#73202c"/>
    <rect id="Retângulo_133" data-name="Retângulo 133" width="0.865" height="25.592" transform="translate(529.431 636.224) rotate(90)" fill="#73202c"/>
    <rect id="Retângulo_134" data-name="Retângulo 134" width="1.881" height="7.859" transform="translate(532.206 615.685)" fill="#b7182e"/>
    <rect id="Retângulo_135" data-name="Retângulo 135" width="1.842" height="7.859" transform="translate(534.399 615.685)" fill="#b7182e"/>
    <rect id="Retângulo_136" data-name="Retângulo 136" width="1.881" height="7.863" transform="translate(532.206 623.856)" fill="#b7182e"/>
    <rect id="Retângulo_137" data-name="Retângulo 137" width="1.842" height="7.863" transform="translate(534.399 623.856)" fill="#b7182e"/>
    <g id="Grupo_74" data-name="Grupo 74" transform="translate(-4439.537 -21)">
      <path id="Caminho_147" data-name="Caminho 147" d="M4990.539,629.005v-.139a.225.225,0,0,1,.15-.212l.6-.212a.315.315,0,0,1,.21,0l.595.212a.225.225,0,0,1,.15.212v.139a.091.091,0,0,1-.092.092h-1.516A.092.092,0,0,1,4990.539,629.005Z" fill="#b7182e"/>
      <path id="Caminho_148" data-name="Caminho 148" d="M4990.555,629.994h0v-.425h1.668v.425a.615.615,0,0,1,.588.8l-1.34,4.336a.086.086,0,0,1-.164,0l-1.34-4.336A.616.616,0,0,1,4990.555,629.994Z" fill="#b7182e"/>
    </g>
    <g id="Grupo_75" data-name="Grupo 75" transform="translate(-4439.537 -21)">
      <path id="Caminho_149" data-name="Caminho 149" d="M4984.135,631.31l-.1-.1a.226.226,0,0,1-.045-.257l.271-.57a.316.316,0,0,1,.149-.149l.57-.27a.226.226,0,0,1,.257.044l.1.1a.092.092,0,0,1,0,.13l-.536.536-.536.536A.092.092,0,0,1,4984.135,631.31Z" fill="#b7182e"/>
      <path id="Caminho_150" data-name="Caminho 150" d="M4984.845,632h0l-.3-.3.59-.59.589-.59.3.3a.616.616,0,0,1,.979.148l2.119,4.014a.086.086,0,0,1-.116.116l-4.014-2.119A.615.615,0,0,1,4984.845,632Z" fill="#b7182e"/>
    </g>
    <g id="Grupo_76" data-name="Grupo 76" transform="translate(-4439.537 -21)">
      <path id="Caminho_151" data-name="Caminho 151" d="M4998.643,631.31l.1-.1a.226.226,0,0,0,.045-.257l-.271-.57a.318.318,0,0,0-.149-.149l-.57-.27a.224.224,0,0,0-.256.044l-.1.1a.092.092,0,0,0,0,.13l.536.536.536.536A.092.092,0,0,0,4998.643,631.31Z" fill="#b7182e"/>
      <path id="Caminho_152" data-name="Caminho 152" d="M4997.933,632h0l.3-.3-.59-.59-.589-.59-.3.3a.616.616,0,0,0-.979.148l-2.118,4.014a.086.086,0,0,0,.116.116l4.013-2.119A.615.615,0,0,0,4997.933,632Z" fill="#b7182e"/>
    </g>
    <g id="Grupo_77" data-name="Grupo 77" transform="translate(-4439.537 -21)">
      <path id="Caminho_153" data-name="Caminho 153" d="M4996.94,634.989a.083.083,0,0,1,.061-.082l4.336-1.34a.615.615,0,0,1,.8.588h.424v.834h-5.618Z" fill="#b7182e"/>
      <path id="Caminho_154" data-name="Caminho 154" d="M5003.031,634.989h0v-.758a.092.092,0,0,1,.091-.092h.139a.226.226,0,0,1,.213.15l.212.595a.309.309,0,0,1,.018.105Z" fill="#b7182e"/>
    </g>
    <g id="Grupo_78" data-name="Grupo 78" transform="translate(-4439.537 -21)">
      <path id="Caminho_155" data-name="Caminho 155" d="M4979.074,634.989a.3.3,0,0,1,.019-.105l.211-.595a.225.225,0,0,1,.213-.15h.139a.092.092,0,0,1,.092.092v.758h-.674Z" fill="#b7182e"/>
      <path id="Caminho_156" data-name="Caminho 156" d="M4980.22,634.989h0v-.834h.425a.615.615,0,0,1,.8-.588l4.335,1.34a.083.083,0,0,1,.061.082Z" fill="#b7182e"/>
    </g>
    <g id="Grupo_84" data-name="Grupo 84" transform="translate(-4439.537 -21)">
      <g id="Grupo_79" data-name="Grupo 79">
        <path id="Caminho_157" data-name="Caminho 157" d="M4992.239,629.005v-.139a.225.225,0,0,0-.15-.212l-.595-.212a.315.315,0,0,0-.21,0l-.6.212a.225.225,0,0,0-.15.212v.139a.092.092,0,0,0,.092.092h1.516A.091.091,0,0,0,4992.239,629.005Z" fill="#b7182e"/>
        <path id="Caminho_158" data-name="Caminho 158" d="M4992.223,629.994h0v-.425h-1.668v.425a.616.616,0,0,0-.588.8l1.34,4.336a.086.086,0,0,0,.164,0l1.34-4.336A.615.615,0,0,0,4992.223,629.994Z" fill="#b7182e"/>
      </g>
      <g id="Grupo_80" data-name="Grupo 80">
        <path id="Caminho_159" data-name="Caminho 159" d="M4998.643,631.31l.1-.1a.226.226,0,0,0,.045-.257l-.271-.57a.318.318,0,0,0-.149-.149l-.57-.27a.224.224,0,0,0-.256.044l-.1.1a.092.092,0,0,0,0,.13l.536.536.536.536A.092.092,0,0,0,4998.643,631.31Z" fill="#b7182e"/>
        <path id="Caminho_160" data-name="Caminho 160" d="M4997.933,632h0l.3-.3-.59-.59-.589-.59-.3.3a.616.616,0,0,0-.979.148l-2.118,4.014a.086.086,0,0,0,.116.116l4.013-2.119A.615.615,0,0,0,4997.933,632Z" fill="#b7182e"/>
      </g>
      <g id="Grupo_81" data-name="Grupo 81">
        <path id="Caminho_161" data-name="Caminho 161" d="M4984.135,631.31l-.1-.1a.226.226,0,0,1-.045-.257l.271-.57a.316.316,0,0,1,.149-.149l.57-.27a.226.226,0,0,1,.257.044l.1.1a.092.092,0,0,1,0,.13l-.536.536-.536.536A.092.092,0,0,1,4984.135,631.31Z" fill="#b7182e"/>
        <path id="Caminho_162" data-name="Caminho 162" d="M4984.845,632h0l-.3-.3.59-.59.589-.59.3.3a.616.616,0,0,1,.979.148l2.118,4.014a.086.086,0,0,1-.115.116l-4.014-2.119A.615.615,0,0,1,4984.845,632Z" fill="#b7182e"/>
      </g>
      <g id="Grupo_82" data-name="Grupo 82">
        <path id="Caminho_163" data-name="Caminho 163" d="M4985.838,634.989a.083.083,0,0,0-.061-.082l-4.336-1.34a.615.615,0,0,0-.8.588h-.425v.834h5.618Z" fill="#b7182e"/>
        <path id="Caminho_164" data-name="Caminho 164" d="M4979.748,634.989h0v-.758a.092.092,0,0,0-.092-.092h-.139a.225.225,0,0,0-.213.15l-.211.595a.3.3,0,0,0-.019.105Z" fill="#b7182e"/>
      </g>
      <g id="Grupo_83" data-name="Grupo 83">
        <path id="Caminho_165" data-name="Caminho 165" d="M5003.7,634.989a.309.309,0,0,0-.018-.105l-.212-.595a.226.226,0,0,0-.213-.15h-.139a.092.092,0,0,0-.091.092v.758h.673Z" fill="#b7182e"/>
        <path id="Caminho_166" data-name="Caminho 166" d="M5002.558,634.989h0v-.834h-.424a.615.615,0,0,0-.8-.588l-4.336,1.34a.083.083,0,0,0-.061.082Z" fill="#b7182e"/>
      </g>
    </g>
    <rect id="Retângulo_138" data-name="Retângulo 138" width="0.865" height="25.592" transform="translate(564.648 636.224) rotate(90)" fill="#73202c"/>
    <rect id="Retângulo_139" data-name="Retângulo 139" width="1.881" height="7.859" transform="translate(567.423 615.685)" fill="#b7182e"/>
    <rect id="Retângulo_140" data-name="Retângulo 140" width="1.842" height="7.859" transform="translate(569.616 615.685)" fill="#b7182e"/>
    <rect id="Retângulo_141" data-name="Retângulo 141" width="1.881" height="7.863" transform="translate(567.423 623.856)" fill="#b7182e"/>
    <rect id="Retângulo_142" data-name="Retângulo 142" width="1.842" height="7.863" transform="translate(569.616 623.856)" fill="#b7182e"/>
    <g id="Grupo_85" data-name="Grupo 85" transform="translate(-4439.537 -21)">
      <path id="Caminho_167" data-name="Caminho 167" d="M5025.757,629.005v-.139a.225.225,0,0,1,.15-.212l.594-.212a.318.318,0,0,1,.211,0l.594.212a.225.225,0,0,1,.15.212v.139a.091.091,0,0,1-.091.092h-1.517A.092.092,0,0,1,5025.757,629.005Z" fill="#b7182e"/>
      <path id="Caminho_168" data-name="Caminho 168" d="M5025.772,629.994h0v-.425h1.669v.425a.614.614,0,0,1,.587.8l-1.34,4.336a.086.086,0,0,1-.164,0l-1.34-4.336A.615.615,0,0,1,5025.772,629.994Z" fill="#b7182e"/>
    </g>
    <g id="Grupo_86" data-name="Grupo 86" transform="translate(-4439.537 -21)">
      <path id="Caminho_169" data-name="Caminho 169" d="M5019.352,631.31l-.1-.1a.228.228,0,0,1-.044-.257l.271-.57a.316.316,0,0,1,.148-.149l.57-.27a.225.225,0,0,1,.257.044l.1.1a.092.092,0,0,1,0,.13l-.536.536-.536.536A.092.092,0,0,1,5019.352,631.31Z" fill="#b7182e"/>
      <path id="Caminho_170" data-name="Caminho 170" d="M5020.063,632h0l-.3-.3.59-.59.59-.59.3.3a.616.616,0,0,1,.979.148l2.119,4.014a.086.086,0,0,1-.116.116l-4.013-2.119A.615.615,0,0,1,5020.063,632Z" fill="#b7182e"/>
    </g>
    <g id="Grupo_87" data-name="Grupo 87" transform="translate(-4439.537 -21)">
      <path id="Caminho_171" data-name="Caminho 171" d="M5033.86,631.31l.1-.1a.228.228,0,0,0,.044-.257l-.271-.57a.312.312,0,0,0-.149-.149l-.569-.27a.226.226,0,0,0-.257.044l-.1.1a.092.092,0,0,0,0,.13l.536.536.536.536A.09.09,0,0,0,5033.86,631.31Z" fill="#b7182e"/>
      <path id="Caminho_172" data-name="Caminho 172" d="M5033.15,632h0l.3-.3-.59-.59-.59-.59-.3.3a.617.617,0,0,0-.98.148l-2.118,4.014a.086.086,0,0,0,.116.116l4.013-2.119A.615.615,0,0,0,5033.15,632Z" fill="#b7182e"/>
    </g>
    <g id="Grupo_88" data-name="Grupo 88" transform="translate(-4439.537 -21)">
      <path id="Caminho_173" data-name="Caminho 173" d="M5032.158,634.989a.084.084,0,0,1,.06-.082l4.336-1.34a.615.615,0,0,1,.8.588h.425v.834h-5.618Z" fill="#b7182e"/>
      <path id="Caminho_174" data-name="Caminho 174" d="M5038.248,634.989h0v-.758a.092.092,0,0,1,.092-.092h.139a.225.225,0,0,1,.212.15l.212.595a.309.309,0,0,1,.018.105Z" fill="#b7182e"/>
    </g>
    <g id="Grupo_89" data-name="Grupo 89" transform="translate(-4439.537 -21)">
      <path id="Caminho_175" data-name="Caminho 175" d="M5014.292,634.989a.309.309,0,0,1,.018-.105l.211-.595a.227.227,0,0,1,.213-.15h.139a.092.092,0,0,1,.092.092v.758h-.673Z" fill="#b7182e"/>
      <path id="Caminho_176" data-name="Caminho 176" d="M5015.437,634.989h0v-.834h.425a.615.615,0,0,1,.8-.588l4.336,1.34a.084.084,0,0,1,.06.082Z" fill="#b7182e"/>
    </g>
    <g id="Grupo_95" data-name="Grupo 95" transform="translate(-4439.537 -21)">
      <g id="Grupo_90" data-name="Grupo 90">
        <path id="Caminho_177" data-name="Caminho 177" d="M5027.456,629.005v-.139a.225.225,0,0,0-.15-.212l-.594-.212a.318.318,0,0,0-.211,0l-.594.212a.225.225,0,0,0-.15.212v.139a.092.092,0,0,0,.091.092h1.517A.091.091,0,0,0,5027.456,629.005Z" fill="#b7182e"/>
        <path id="Caminho_178" data-name="Caminho 178" d="M5027.441,629.994h0v-.425h-1.669v.425a.615.615,0,0,0-.588.8l1.34,4.336a.086.086,0,0,0,.164,0l1.34-4.336A.614.614,0,0,0,5027.441,629.994Z" fill="#b7182e"/>
      </g>
      <g id="Grupo_91" data-name="Grupo 91">
        <path id="Caminho_179" data-name="Caminho 179" d="M5033.86,631.31l.1-.1a.228.228,0,0,0,.044-.257l-.271-.57a.312.312,0,0,0-.149-.149l-.569-.27a.226.226,0,0,0-.257.044l-.1.1a.092.092,0,0,0,0,.13l.536.536.536.536A.09.09,0,0,0,5033.86,631.31Z" fill="#b7182e"/>
        <path id="Caminho_180" data-name="Caminho 180" d="M5033.15,632h0l.3-.3-.59-.59-.59-.59-.3.3a.617.617,0,0,0-.98.148l-2.118,4.014a.086.086,0,0,0,.116.116l4.013-2.119A.615.615,0,0,0,5033.15,632Z" fill="#b7182e"/>
      </g>
      <g id="Grupo_92" data-name="Grupo 92">
        <path id="Caminho_181" data-name="Caminho 181" d="M5019.352,631.31l-.1-.1a.228.228,0,0,1-.044-.257l.271-.57a.316.316,0,0,1,.148-.149l.57-.27a.225.225,0,0,1,.257.044l.1.1a.092.092,0,0,1,0,.13l-.536.536-.536.536A.092.092,0,0,1,5019.352,631.31Z" fill="#b7182e"/>
        <path id="Caminho_182" data-name="Caminho 182" d="M5020.063,632h0l-.3-.3.59-.59.59-.59.3.3a.616.616,0,0,1,.979.148l2.119,4.014a.086.086,0,0,1-.116.116l-4.014-2.119A.615.615,0,0,1,5020.063,632Z" fill="#b7182e"/>
      </g>
      <g id="Grupo_93" data-name="Grupo 93">
        <path id="Caminho_183" data-name="Caminho 183" d="M5021.055,634.989a.084.084,0,0,0-.06-.082l-4.336-1.34a.615.615,0,0,0-.8.588h-.425v.834h5.618Z" fill="#b7182e"/>
        <path id="Caminho_184" data-name="Caminho 184" d="M5014.965,634.989h0v-.758a.092.092,0,0,0-.092-.092h-.139a.227.227,0,0,0-.213.15l-.211.595a.309.309,0,0,0-.018.105Z" fill="#b7182e"/>
      </g>
      <g id="Grupo_94" data-name="Grupo 94">
        <path id="Caminho_185" data-name="Caminho 185" d="M5038.921,634.989a.309.309,0,0,0-.018-.105l-.212-.595a.225.225,0,0,0-.212-.15h-.139a.092.092,0,0,0-.092.092v.758h.673Z" fill="#b7182e"/>
        <path id="Caminho_186" data-name="Caminho 186" d="M5037.776,634.989h0v-.834h-.425a.615.615,0,0,0-.8-.588l-4.336,1.34a.084.084,0,0,0-.06.082Z" fill="#b7182e"/>
      </g>
    </g>
    <rect id="Retângulo_143" data-name="Retângulo 143" width="2.198" height="44.789" transform="translate(599.865 615.108)" fill="#73202c"/>
    <rect id="Retângulo_144" data-name="Retângulo 144" width="0.865" height="25.592" transform="translate(599.865 636.224) rotate(90)" fill="#73202c"/>
    <rect id="Retângulo_145" data-name="Retângulo 145" width="1.881" height="7.859" transform="translate(602.641 615.685)" fill="#b7182e"/>
    <rect id="Retângulo_146" data-name="Retângulo 146" width="1.842" height="7.859" transform="translate(604.833 615.685)" fill="#b7182e"/>
    <rect id="Retângulo_147" data-name="Retângulo 147" width="1.881" height="7.863" transform="translate(602.641 623.856)" fill="#b7182e"/>
    <rect id="Retângulo_148" data-name="Retângulo 148" width="1.842" height="7.863" transform="translate(604.833 623.856)" fill="#b7182e"/>
    <rect id="Retângulo_149" data-name="Retângulo 149" width="5.593" height="5.588" transform="translate(475.392 615.973)" fill="#b7182e"/>
    <path id="Caminho_187" data-name="Caminho 187" d="M4932.885,648.618v-.313h-5.592v-5.431h5.592v-.313h-5.592v-5.588h5.592v17.232h-5.592v-5.588Z" transform="translate(-4439.537 -21)" fill="#b7182e"/>
    <rect id="Retângulo_150" data-name="Retângulo 150" width="5.593" height="5.431" transform="translate(475.392 621.874)" fill="#b7182e"/>
    <rect id="Retângulo_151" data-name="Retângulo 151" width="5.593" height="5.588" transform="translate(475.392 627.618)" fill="#b7182e"/>
    <path id="Caminho_188" data-name="Caminho 188" d="M4921.387,636.973h5.592v5.588h-5.592v.313h5.592v5.431h-5.592v.313h5.592v5.588h-5.592Z" transform="translate(-4439.537 -21)" fill="#b7182e"/>
    <path id="Caminho_189" data-name="Caminho 189" d="M4914.616,636.973v5.588h-5.592v.313h5.592v5.431h-5.592v.313h5.592v5.588h-5.593V636.973Z" transform="translate(-4439.537 -21)" fill="#b7182e"/>
    <rect id="Retângulo_152" data-name="Retângulo 152" width="5.593" height="5.588" transform="translate(510.609 615.973)" fill="#b7182e"/>
    <path id="Caminho_190" data-name="Caminho 190" d="M4968.1,648.618v-.313h-5.592v-5.431h5.592v-.313h-5.592v-5.588h5.593v17.232h-5.593v-5.588Z" transform="translate(-4439.537 -21)" fill="#b7182e"/>
    <rect id="Retângulo_153" data-name="Retângulo 153" width="5.593" height="5.431" transform="translate(510.609 621.874)" fill="#b7182e"/>
    <rect id="Retângulo_154" data-name="Retângulo 154" width="5.593" height="5.588" transform="translate(510.609 627.618)" fill="#b7182e"/>
    <path id="Caminho_191" data-name="Caminho 191" d="M4956.6,636.973h5.593v5.588H4956.6v.313h5.593v5.431H4956.6v.313h5.593v5.588H4956.6Z" transform="translate(-4439.537 -21)" fill="#b7182e"/>
    <path id="Caminho_192" data-name="Caminho 192" d="M4949.834,636.973v5.588h-5.593v.313h5.593v5.431h-5.593v.313h5.593v5.588h-5.593V636.973Z" transform="translate(-4439.537 -21)" fill="#b7182e"/>
    <rect id="Retângulo_155" data-name="Retângulo 155" width="5.593" height="5.588" transform="translate(545.827 615.973)" fill="#b7182e"/>
    <path id="Caminho_193" data-name="Caminho 193" d="M5003.32,648.618v-.313h-5.593v-5.431h5.593v-.313h-5.593v-5.588h5.593v17.232h-5.593v-5.588Z" transform="translate(-4439.537 -21)" fill="#b7182e"/>
    <rect id="Retângulo_156" data-name="Retângulo 156" width="5.593" height="5.431" transform="translate(545.827 621.874)" fill="#b7182e"/>
    <rect id="Retângulo_157" data-name="Retângulo 157" width="5.593" height="5.588" transform="translate(545.827 627.618)" fill="#b7182e"/>
    <path id="Caminho_194" data-name="Caminho 194" d="M4991.822,636.973h5.593v5.588h-5.593v.313h5.593v5.431h-5.593v.313h5.593v5.588h-5.593Z" transform="translate(-4439.537 -21)" fill="#b7182e"/>
    <path id="Caminho_195" data-name="Caminho 195" d="M4985.051,636.973v5.588h-5.593v.313h5.593v5.431h-5.593v.313h5.593v5.588h-5.593V636.973Z" transform="translate(-4439.537 -21)" fill="#b7182e"/>
    <rect id="Retângulo_158" data-name="Retângulo 158" width="5.593" height="5.588" transform="translate(581.044 615.973)" fill="#b7182e"/>
    <path id="Caminho_196" data-name="Caminho 196" d="M5038.537,648.618v-.313h-5.592v-5.431h5.592v-.313h-5.592v-5.588h5.592v17.232h-5.592v-5.588Z" transform="translate(-4439.537 -21)" fill="#b7182e"/>
    <rect id="Retângulo_159" data-name="Retângulo 159" width="5.593" height="5.431" transform="translate(581.044 621.874)" fill="#b7182e"/>
    <rect id="Retângulo_160" data-name="Retângulo 160" width="5.593" height="5.588" transform="translate(581.044 627.618)" fill="#b7182e"/>
    <path id="Caminho_197" data-name="Caminho 197" d="M5027.04,636.973h5.592v5.588h-5.592v.313h5.592v5.431h-5.592v.313h5.592v5.588h-5.592Z" transform="translate(-4439.537 -21)" fill="#b7182e"/>
    <path id="Caminho_198" data-name="Caminho 198" d="M5020.269,636.973v5.588h-5.592v.313h5.592v5.431h-5.592v.313h5.592v5.588h-5.593V636.973Z" transform="translate(-4439.537 -21)" fill="#b7182e"/>
    <rect id="Retângulo_161" data-name="Retângulo 161" width="10.442" height="13.306" transform="translate(493.804 659.897)" fill="#73202c" stroke="#dfaa72" stroke-linecap="round" stroke-miterlimit="10" stroke-width="1" stroke-dasharray="0.1 1.5"/>
    <rect id="Retângulo_162" data-name="Retângulo 162" width="10.442" height="13.306" transform="translate(529.021 659.897)" fill="#73202c" stroke="#dfaa72" stroke-linecap="round" stroke-miterlimit="10" stroke-width="1" stroke-dasharray="0.1 1.5"/>
    <rect id="Retângulo_163" data-name="Retângulo 163" width="10.442" height="13.306" transform="translate(564.239 659.897)" fill="#73202c" stroke="#dfaa72" stroke-linecap="round" stroke-miterlimit="10" stroke-width="1" stroke-dasharray="0.1 1.5"/>
    <rect id="Retângulo_164" data-name="Retângulo 164" width="10.442" height="13.306" transform="translate(599.456 659.897)" fill="#73202c" stroke="#dfaa72" stroke-linecap="round" stroke-miterlimit="10" stroke-width="1" stroke-dasharray="0.1 1.5"/>
    <g id="Grupo_96" data-name="Grupo 96" transform="translate(-4439.537 -21)">
      <path id="Caminho_199" data-name="Caminho 199" d="M4852.774,612.38a32.915,32.915,0,0,1,43.917,0l3.828-3.828a38.324,38.324,0,0,0-51.573,0Z" fill="none" stroke="#dfaa72" stroke-linecap="round" stroke-miterlimit="10" stroke-width="1" stroke-dasharray="0.1 1.5"/>
      <path id="Caminho_200" data-name="Caminho 200" d="M4852.774,612.4l-3.828-3.828h-3.828v9.611h7.656Z" fill="none" stroke="#dfaa72" stroke-linecap="round" stroke-miterlimit="10" stroke-width="1" stroke-dasharray="0.1 1.5"/>
      <path id="Caminho_201" data-name="Caminho 201" d="M4896.691,612.4l3.828-3.828h3.828v9.611h-7.656Z" fill="none" stroke="#dfaa72" stroke-linecap="round" stroke-miterlimit="10" stroke-width="1" stroke-dasharray="0.1 1.5"/>
      <path id="Caminho_202" data-name="Caminho 202" d="M4843.475,632.4l2.614-2.614h2.614v6.334h-5.228Z" fill="none" stroke="#dfaa72" stroke-linecap="round" stroke-miterlimit="10" stroke-width="1" stroke-dasharray="0.1 1.5"/>
      <path id="Caminho_203" data-name="Caminho 203" d="M4843.475,632.4a22.474,22.474,0,0,0-29.988,0l-2.614-2.614a26.168,26.168,0,0,1,35.216,0Z" fill="none" stroke="#dfaa72" stroke-linecap="round" stroke-miterlimit="10" stroke-width="1" stroke-dasharray="0.1 1.5"/>
      <path id="Caminho_204" data-name="Caminho 204" d="M4808.259,632.4l2.614-2.614,2.614,2.614v3.72h-5.228Z" fill="none" stroke="#dfaa72" stroke-linecap="round" stroke-miterlimit="10" stroke-width="1" stroke-dasharray="0.1 1.5"/>
      <path id="Caminho_205" data-name="Caminho 205" d="M4808.258,632.4a22.475,22.475,0,0,0-29.989,0l-2.613-2.614a26.169,26.169,0,0,1,35.216,0Z" fill="none" stroke="#dfaa72" stroke-linecap="round" stroke-miterlimit="10" stroke-width="1" stroke-dasharray="0.1 1.5"/>
      <path id="Caminho_206" data-name="Caminho 206" d="M4773.042,632.4l2.614-2.614,2.614,2.614v3.72h-5.228Z" fill="none" stroke="#dfaa72" stroke-linecap="round" stroke-miterlimit="10" stroke-width="1" stroke-dasharray="0.1 1.5"/>
      <path id="Caminho_207" data-name="Caminho 207" d="M4773.041,632.4a22.476,22.476,0,0,0-29.989,0l-2.614-2.614a26.168,26.168,0,0,1,35.216,0Z" fill="none" stroke="#dfaa72" stroke-linecap="round" stroke-miterlimit="10" stroke-width="1" stroke-dasharray="0.1 1.5"/>
      <path id="Caminho_208" data-name="Caminho 208" d="M4737.824,632.4l2.614-2.614,2.614,2.614v3.72h-5.228Z" fill="none" stroke="#dfaa72" stroke-linecap="round" stroke-miterlimit="10" stroke-width="1" stroke-dasharray="0.1 1.5"/>
      <path id="Caminho_209" data-name="Caminho 209" d="M4737.823,632.4a22.474,22.474,0,0,0-29.988,0l-2.614-2.614a26.168,26.168,0,0,1,35.216,0Z" fill="none" stroke="#dfaa72" stroke-linecap="round" stroke-miterlimit="10" stroke-width="1" stroke-dasharray="0.1 1.5"/>
      <path id="Caminho_210" data-name="Caminho 210" d="M4702.607,632.4l2.614-2.614,2.614,2.614v3.72h-5.228Z" fill="none" stroke="#dfaa72" stroke-linecap="round" stroke-miterlimit="10" stroke-width="1" stroke-dasharray="0.1 1.5"/>
      <path id="Caminho_211" data-name="Caminho 211" d="M4905.96,632.4l-2.614-2.614h-2.614v6.334h5.228Z" fill="none" stroke="#dfaa72" stroke-linecap="round" stroke-miterlimit="10" stroke-width="1" stroke-dasharray="0.1 1.5"/>
      <path id="Caminho_212" data-name="Caminho 212" d="M4905.96,632.4a22.476,22.476,0,0,1,29.989,0l2.613-2.614a26.168,26.168,0,0,0-35.216,0Z" fill="none" stroke="#dfaa72" stroke-linecap="round" stroke-miterlimit="10" stroke-width="1" stroke-dasharray="0.1 1.5"/>
      <path id="Caminho_213" data-name="Caminho 213" d="M4941.176,632.4l-2.614-2.614-2.614,2.614v3.72h5.228Z" fill="none" stroke="#dfaa72" stroke-linecap="round" stroke-miterlimit="10" stroke-width="1" stroke-dasharray="0.1 1.5"/>
      <path id="Caminho_214" data-name="Caminho 214" d="M4941.177,632.4a22.476,22.476,0,0,1,29.989,0l2.614-2.614a26.168,26.168,0,0,0-35.216,0Z" fill="none" stroke="#dfaa72" stroke-linecap="round" stroke-miterlimit="10" stroke-width="1" stroke-dasharray="0.1 1.5"/>
      <path id="Caminho_215" data-name="Caminho 215" d="M4976.394,632.4l-2.614-2.614-2.614,2.614v3.72h5.228Z" fill="none" stroke="#dfaa72" stroke-linecap="round" stroke-miterlimit="10" stroke-width="1" stroke-dasharray="0.1 1.5"/>
      <path id="Caminho_216" data-name="Caminho 216" d="M4976.4,632.4a22.474,22.474,0,0,1,29.988,0l2.614-2.614a26.169,26.169,0,0,0-35.216,0Z" fill="none" stroke="#dfaa72" stroke-linecap="round" stroke-miterlimit="10" stroke-width="1" stroke-dasharray="0.1 1.5"/>
      <path id="Caminho_217" data-name="Caminho 217" d="M5011.611,632.4,5009,629.785l-2.614,2.614v3.72h5.228Z" fill="none" stroke="#dfaa72" stroke-linecap="round" stroke-miterlimit="10" stroke-width="1" stroke-dasharray="0.1 1.5"/>
      <path id="Caminho_218" data-name="Caminho 218" d="M5011.612,632.4a22.476,22.476,0,0,1,29.989,0l2.613-2.614a26.168,26.168,0,0,0-35.216,0Z" fill="none" stroke="#dfaa72" stroke-linecap="round" stroke-miterlimit="10" stroke-width="1" stroke-dasharray="0.1 1.5"/>
      <path id="Caminho_219" data-name="Caminho 219" d="M5046.828,632.4l-2.614-2.614L5041.6,632.4v3.72h5.228Z" fill="none" stroke="#dfaa72" stroke-linecap="round" stroke-miterlimit="10" stroke-width="1" stroke-dasharray="0.1 1.5"/>
      <line id="Linha_1" data-name="Linha 1" x2="9.786" y2="11.158" transform="translate(4859.572 639.154)" fill="none" stroke="#dfaa72" stroke-linecap="round" stroke-miterlimit="10" stroke-width="1" stroke-dasharray="0.1 1.5"/>
      <line id="Linha_2" data-name="Linha 2" y1="11.158" x2="9.786" transform="translate(4859.572 639.154)" fill="none" stroke="#dfaa72" stroke-linecap="round" stroke-miterlimit="10" stroke-width="1" stroke-dasharray="0.1 1.5"/>
      <line id="Linha_3" data-name="Linha 3" x2="9.786" y2="11.158" transform="translate(4869.84 639.154)" fill="none" stroke="#dfaa72" stroke-linecap="round" stroke-miterlimit="10" stroke-width="1" stroke-dasharray="0.1 1.5"/>
      <line id="Linha_4" data-name="Linha 4" y1="11.158" x2="9.786" transform="translate(4869.84 639.154)" fill="none" stroke="#dfaa72" stroke-linecap="round" stroke-miterlimit="10" stroke-width="1" stroke-dasharray="0.1 1.5"/>
      <line id="Linha_5" data-name="Linha 5" x2="9.786" y2="11.158" transform="translate(4880.107 639.154)" fill="none" stroke="#dfaa72" stroke-linecap="round" stroke-miterlimit="10" stroke-width="1" stroke-dasharray="0.1 1.5"/>
      <line id="Linha_6" data-name="Linha 6" y1="11.158" x2="9.786" transform="translate(4880.107 639.154)" fill="none" stroke="#dfaa72" stroke-linecap="round" stroke-miterlimit="10" stroke-width="1" stroke-dasharray="0.1 1.5"/>
      <rect id="Retângulo_165" data-name="Retângulo 165" width="9.786" height="11.147" transform="translate(4869.84 639.204)" fill="none" stroke="#dfaa72" stroke-linecap="round" stroke-miterlimit="10" stroke-width="1" stroke-dasharray="0.1 1.5"/>
      <rect id="Retângulo_166" data-name="Retângulo 166" width="9.786" height="11.147" transform="translate(4880.107 639.204)" fill="none" stroke="#dfaa72" stroke-linecap="round" stroke-miterlimit="10" stroke-width="1" stroke-dasharray="0.1 1.5"/>
      <rect id="Retângulo_167" data-name="Retângulo 167" width="9.786" height="11.147" transform="translate(4859.572 639.204)" fill="none" stroke="#dfaa72" stroke-linecap="round" stroke-miterlimit="10" stroke-width="1" stroke-dasharray="0.1 1.5"/>
      <rect id="Retângulo_168" data-name="Retângulo 168" width="128.511" height="2.117" transform="translate(4700.534 608.516)" fill="none" stroke="#dfaa72" stroke-linecap="round" stroke-miterlimit="10" stroke-width="1" stroke-dasharray="0.1 1.5"/>
      <rect id="Retângulo_169" data-name="Retângulo 169" width="128.323" height="2.117" transform="translate(4921.489 608.516)" fill="none" stroke="#dfaa72" stroke-linecap="round" stroke-miterlimit="10" stroke-width="1" stroke-dasharray="0.1 1.5"/>
      <rect id="Retângulo_170" data-name="Retângulo 170" width="92.443" height="2.117" transform="translate(4829.045 578.21)" fill="none" stroke="#dfaa72" stroke-linecap="round" stroke-miterlimit="10" stroke-width="1" stroke-dasharray="0.1 1.5"/>
    </g>
  </g>
</svg>
