<svg xmlns="http://www.w3.org/2000/svg" width="250.843" height="181.7" viewBox="0 0 250.843 181.7">
  <g id="Grupo_16" data-name="Grupo 16" transform="translate(-459.578 -507.376)">
    <text id="Ponto_turístico" data-name="Ponto turístico" transform="translate(520.874 608.868)" fill="#fff" font-size="17" font-family="Montserrat-Regular, Montserrat"><tspan x="0" y="0">Ponto turístico</tspan></text>
    <rect id="Retângulo_1" data-name="Retângulo 1" width="25.161" height="36.29" transform="translate(573.017 652.285)" fill="#b7182e"/>
    <g id="Grupo_4" data-name="Grupo 4">
      <path id="Caminho_1" data-name="Caminho 1" d="M709.78,641.505l-50.344-18.478-2.873-2.01V570.589l10.03,5.763,3.422-5.957h-5.241l-11.059-6.354L585,508.021l-68.715,56.02L505.226,570.4h-5.241l3.422,5.957,10.03-5.763v6.233h0V595.6h0v25.42l-2.873,2.01L460.22,641.505l1.076,2.932,7.734-2.839V682.43h-1.439v6.145H574.664v-33.99A61.865,61.865,0,0,1,585,653.072a61.88,61.88,0,0,1,10.336,1.513v33.99H702.409V682.43H700.97V641.6l-.225-.082,7.959,2.921ZM474.23,682.43h-3.168V640.852l3.168-1.162Zm224.708,0H695.77V639.69l3.168,1.162Z" fill="#73202c"/>
      <g id="Grupo_1" data-name="Grupo 1">
        <path id="Caminho_2" data-name="Caminho 2" d="M582.143,624.967l1.248,1.372v-1.372Z" fill="#b7182e"/>
        <path id="Caminho_3" data-name="Caminho 3" d="M578.878,624.967H575l8.386,9.223v-4.26Z" fill="#b7182e"/>
        <path id="Caminho_4" data-name="Caminho 4" d="M573.821,635.216V638.7h3.173Z" fill="#b7182e"/>
        <rect id="Retângulo_2" data-name="Retângulo 2" width="9.569" height="27.672" transform="translate(573.821 595.362)" fill="#b7182e"/>
        <path id="Caminho_5" data-name="Caminho 5" d="M572.212,625.487l-.472-.52h-1.112v3.146l1.584,1.742Z" fill="#b7182e"/>
        <path id="Caminho_6" data-name="Caminho 6" d="M572.212,633.445l-1.584-1.742v4.374l1.584,1.742Z" fill="#b7182e"/>
        <path id="Caminho_7" data-name="Caminho 7" d="M567.3,626.052v3.41l1.3,1.222v-5.469Z" fill="#b7182e"/>
        <path id="Caminho_8" data-name="Caminho 8" d="M568.6,640.886l-.3.191h.3Z" fill="#b7182e"/>
        <rect id="Retângulo_3" data-name="Retângulo 3" width="1.584" height="0.552" transform="translate(570.628 640.525)" fill="#b7182e"/>
        <rect id="Retângulo_4" data-name="Retângulo 4" width="9.569" height="0.552" transform="translate(573.821 640.525)" fill="#b7182e"/>
        <rect id="Retângulo_5" data-name="Retângulo 5" width="1.584" height="27.672" transform="translate(570.628 595.362)" fill="#b7182e"/>
        <path id="Caminho_9" data-name="Caminho 9" d="M568.6,623.034V595.362h-1.3v28.509Z" fill="#b7182e"/>
        <path id="Caminho_10" data-name="Caminho 10" d="M568.6,638.7v-3.851l-1.3-1.222V637.8l1.1,1.034Z" fill="#b7182e"/>
      </g>
      <g id="Grupo_2" data-name="Grupo 2">
        <path id="Caminho_11" data-name="Caminho 11" d="M587.857,624.967l-1.248,1.372v-1.372Z" fill="#b7182e"/>
        <path id="Caminho_12" data-name="Caminho 12" d="M591.122,624.967H595l-8.386,9.223v-4.26Z" fill="#b7182e"/>
        <path id="Caminho_13" data-name="Caminho 13" d="M586.609,638.7v-.925l9.569-10.524v4.368l-6.437,7.08Z" fill="#b7182e"/>
        <path id="Caminho_14" data-name="Caminho 14" d="M596.178,635.216V638.7h-3.173Z" fill="#b7182e"/>
        <rect id="Retângulo_6" data-name="Retângulo 6" width="9.569" height="27.672" transform="translate(586.609 595.362)" fill="#b7182e"/>
        <path id="Caminho_15" data-name="Caminho 15" d="M597.788,625.487l.472-.52h1.112v3.146l-1.584,1.742Z" fill="#b7182e"/>
        <path id="Caminho_16" data-name="Caminho 16" d="M597.788,633.445l1.584-1.742v4.374l-1.584,1.742Z" fill="#b7182e"/>
        <path id="Caminho_17" data-name="Caminho 17" d="M602.7,626.052v3.41l-1.3,1.222v-5.469Z" fill="#b7182e"/>
        <path id="Caminho_18" data-name="Caminho 18" d="M601.4,640.886l.3.191h-.3Z" fill="#b7182e"/>
        <rect id="Retângulo_7" data-name="Retângulo 7" width="1.584" height="0.552" transform="translate(597.788 640.525)" fill="#b7182e"/>
        <rect id="Retângulo_8" data-name="Retângulo 8" width="9.569" height="0.552" transform="translate(586.609 640.525)" fill="#b7182e"/>
        <rect id="Retângulo_9" data-name="Retângulo 9" width="1.584" height="27.672" transform="translate(597.788 595.362)" fill="#b7182e"/>
        <path id="Caminho_19" data-name="Caminho 19" d="M601.4,623.034V595.362h1.3v28.509Z" fill="#b7182e"/>
        <path id="Caminho_20" data-name="Caminho 20" d="M601.4,638.7v-3.851l1.3-1.222V637.8l-1.1,1.034Z" fill="#b7182e"/>
      </g>
      <g id="Grupo_3" data-name="Grupo 3">
        <path id="Caminho_21" data-name="Caminho 21" d="M590.748,556.766A24.137,24.137,0,0,0,585,551.524a24.165,24.165,0,0,0-5.748,5.242c1.4,1.729,5.6,7.763,5.606,18.532h.284C585.143,564.528,589.343,558.495,590.748,556.766Z" fill="#b7182e"/>
        <path id="Caminho_22" data-name="Caminho 22" d="M583.858,575.3l-.987-.006c.056-10.175-4.068-15.873-4.872-16.885a32.107,32.107,0,0,0-5.754,16.891Z" fill="#b7182e"/>
        <path id="Caminho_23" data-name="Caminho 23" d="M597.755,575.3A32.114,32.114,0,0,0,592,558.406c-.8,1.012-4.928,6.71-4.872,16.886Z" fill="#b7182e"/>
      </g>
    </g>
    <g id="Grupo_15" data-name="Grupo 15">
      <path id="Caminho_24" data-name="Caminho 24" d="M471.062,682.43H469.03V641.6l2.032-.746Z" fill="none" stroke="#dfaa72" stroke-linecap="round" stroke-miterlimit="10" stroke-width="1" stroke-dasharray="0.1 1.5"/>
      <path id="Caminho_25" data-name="Caminho 25" d="M510.606,678.232h-2.032V627.084l2.032-.746Z" fill="none" stroke="#dfaa72" stroke-linecap="round" stroke-miterlimit="10" stroke-width="1" stroke-dasharray="0.1 1.5"/>
      <path id="Caminho_26" data-name="Caminho 26" d="M467.591,688.575V682.43h40.2v6.146" fill="none" stroke="#dfaa72" stroke-linecap="round" stroke-miterlimit="10" stroke-width="1" stroke-dasharray="0.1 1.5"/>
      <g id="Grupo_6" data-name="Grupo 6">
        <path id="Caminho_27" data-name="Caminho 27" d="M568.6,625.216l-57.99,37.291v-2.181l57.99-37.292m0,15.671-57.99,37.2v2.182l57.99-37.206" fill="none" stroke="#dfaa72" stroke-linecap="round" stroke-miterlimit="10" stroke-width="1" stroke-dasharray="0.1 1.5"/>
        <g id="Grupo_5" data-name="Grupo 5">
          <line id="Linha_1" data-name="Linha 1" x2="8.478" y2="7.97" transform="translate(515.107 659.612)" fill="none" stroke="#dfaa72" stroke-linecap="round" stroke-miterlimit="10" stroke-width="1" stroke-dasharray="0.1 1.5"/>
          <line id="Linha_2" data-name="Linha 2" x1="8.48" y1="7.973" transform="translate(517.741 657.919)" fill="none" stroke="#dfaa72" stroke-linecap="round" stroke-miterlimit="10" stroke-width="1" stroke-dasharray="0.1 1.5"/>
          <line id="Linha_3" data-name="Linha 3" x2="8.483" y2="7.975" transform="translate(520.374 656.226)" fill="none" stroke="#dfaa72" stroke-linecap="round" stroke-miterlimit="10" stroke-width="1" stroke-dasharray="0.1 1.5"/>
          <line id="Linha_4" data-name="Linha 4" x1="8.485" y1="7.977" transform="translate(523.008 654.532)" fill="none" stroke="#dfaa72" stroke-linecap="round" stroke-miterlimit="10" stroke-width="1" stroke-dasharray="0.1 1.5"/>
          <line id="Linha_5" data-name="Linha 5" x2="7.701" y2="7.24" transform="translate(510.606 663.73)" fill="none" stroke="#dfaa72" stroke-linecap="round" stroke-miterlimit="10" stroke-width="1" stroke-dasharray="0.1 1.5"/>
          <path id="Caminho_28" data-name="Caminho 28" d="M520.943,669.278l-8.473-7.965-.01,0" fill="none" stroke="#dfaa72" stroke-linecap="round" stroke-miterlimit="10" stroke-width="1" stroke-dasharray="0.1 1.5"/>
          <line id="Linha_6" data-name="Linha 6" x2="8.488" y2="7.979" transform="translate(525.641 652.839)" fill="none" stroke="#dfaa72" stroke-linecap="round" stroke-miterlimit="10" stroke-width="1" stroke-dasharray="0.1 1.5"/>
          <line id="Linha_7" data-name="Linha 7" x1="8.49" y1="7.982" transform="translate(528.274 651.145)" fill="none" stroke="#dfaa72" stroke-linecap="round" stroke-miterlimit="10" stroke-width="1" stroke-dasharray="0.1 1.5"/>
          <line id="Linha_8" data-name="Linha 8" x2="2.429" y2="2.284" transform="translate(510.606 672.068)" fill="none" stroke="#dfaa72" stroke-linecap="round" stroke-miterlimit="10" stroke-width="1" stroke-dasharray="0.1 1.5"/>
          <line id="Linha_9" data-name="Linha 9" x1="5.065" y1="4.762" transform="translate(510.606 667.898)" fill="none" stroke="#dfaa72" stroke-linecap="round" stroke-miterlimit="10" stroke-width="1" stroke-dasharray="0.1 1.5"/>
          <line id="Linha_10" data-name="Linha 10" x1="8.515" y1="8.005" transform="translate(554.608 634.211)" fill="none" stroke="#dfaa72" stroke-linecap="round" stroke-miterlimit="10" stroke-width="1" stroke-dasharray="0.1 1.5"/>
          <line id="Linha_11" data-name="Linha 11" x2="8.513" y2="8.003" transform="translate(551.974 635.905)" fill="none" stroke="#dfaa72" stroke-linecap="round" stroke-miterlimit="10" stroke-width="1" stroke-dasharray="0.1 1.5"/>
          <line id="Linha_12" data-name="Linha 12" x1="8.52" y1="8.01" transform="translate(559.875 630.824)" fill="none" stroke="#dfaa72" stroke-linecap="round" stroke-miterlimit="10" stroke-width="1" stroke-dasharray="0.1 1.5"/>
          <line id="Linha_13" data-name="Linha 13" x2="8.517" y2="8.007" transform="translate(557.241 632.518)" fill="none" stroke="#dfaa72" stroke-linecap="round" stroke-miterlimit="10" stroke-width="1" stroke-dasharray="0.1 1.5"/>
          <line id="Linha_14" data-name="Linha 14" x2="8.493" y2="7.984" transform="translate(530.907 649.452)" fill="none" stroke="#dfaa72" stroke-linecap="round" stroke-miterlimit="10" stroke-width="1" stroke-dasharray="0.1 1.5"/>
          <line id="Linha_15" data-name="Linha 15" x1="8.495" y1="7.986" transform="translate(533.541 647.758)" fill="none" stroke="#dfaa72" stroke-linecap="round" stroke-miterlimit="10" stroke-width="1" stroke-dasharray="0.1 1.5"/>
          <line id="Linha_16" data-name="Linha 16" x2="8.498" y2="7.989" transform="translate(536.174 646.065)" fill="none" stroke="#dfaa72" stroke-linecap="round" stroke-miterlimit="10" stroke-width="1" stroke-dasharray="0.1 1.5"/>
          <line id="Linha_17" data-name="Linha 17" x1="8.5" y1="7.991" transform="translate(538.808 644.372)" fill="none" stroke="#dfaa72" stroke-linecap="round" stroke-miterlimit="10" stroke-width="1" stroke-dasharray="0.1 1.5"/>
          <line id="Linha_18" data-name="Linha 18" x2="8.503" y2="7.993" transform="translate(541.441 642.678)" fill="none" stroke="#dfaa72" stroke-linecap="round" stroke-miterlimit="10" stroke-width="1" stroke-dasharray="0.1 1.5"/>
          <line id="Linha_19" data-name="Linha 19" x1="8.505" y1="7.996" transform="translate(544.074 640.985)" fill="none" stroke="#dfaa72" stroke-linecap="round" stroke-miterlimit="10" stroke-width="1" stroke-dasharray="0.1 1.5"/>
          <line id="Linha_20" data-name="Linha 20" x2="8.508" y2="7.998" transform="translate(546.708 639.291)" fill="none" stroke="#dfaa72" stroke-linecap="round" stroke-miterlimit="10" stroke-width="1" stroke-dasharray="0.1 1.5"/>
          <line id="Linha_21" data-name="Linha 21" x1="8.51" y1="8" transform="translate(549.341 637.598)" fill="none" stroke="#dfaa72" stroke-linecap="round" stroke-miterlimit="10" stroke-width="1" stroke-dasharray="0.1 1.5"/>
        </g>
      </g>
      <g id="Grupo_7" data-name="Grupo 7">
        <path id="Caminho_29" data-name="Caminho 29" d="M585,628.109l-2.857-3.142h-3.265L585,631.7Z" fill="none" stroke="#dfaa72" stroke-linecap="round" stroke-miterlimit="10" stroke-width="1" stroke-dasharray="0.1 1.5"/>
        <path id="Caminho_30" data-name="Caminho 30" d="M570.628,636.077V638.7h2.389Z" fill="none" stroke="#dfaa72" stroke-linecap="round" stroke-miterlimit="10" stroke-width="1" stroke-dasharray="0.1 1.5"/>
        <path id="Caminho_31" data-name="Caminho 31" d="M570.628,631.7l6.367,7h3.265l-9.631-10.592Z" fill="none" stroke="#dfaa72" stroke-linecap="round" stroke-miterlimit="10" stroke-width="1" stroke-dasharray="0.1 1.5"/>
        <path id="Caminho_32" data-name="Caminho 32" d="M575,624.967H571.74L584.231,638.7H585V635.96Z" fill="none" stroke="#dfaa72" stroke-linecap="round" stroke-miterlimit="10" stroke-width="1" stroke-dasharray="0.1 1.5"/>
      </g>
      <rect id="Retângulo_10" data-name="Retângulo 10" width="2.032" height="57.064" transform="translate(568.596 585.623)" fill="none" stroke="#dfaa72" stroke-linecap="round" stroke-miterlimit="10" stroke-width="1" stroke-dasharray="0.1 1.5"/>
      <g id="Grupo_8" data-name="Grupo 8">
        <path id="Caminho_33" data-name="Caminho 33" d="M564.327,585.411v-4.094h-3.163l1.774-4.5h-49.5V595.6h36.331Z" fill="none" stroke="#dfaa72" stroke-linecap="round" stroke-miterlimit="10" stroke-width="1" stroke-dasharray="0.1 1.5"/>
      </g>
      <path id="Caminho_34" data-name="Caminho 34" d="M564.327,585.623v-.212l-53.764,37.616L460.22,641.505l1.076,2.932,50.725-18.618L568.6,586.236v-.613Z" fill="none" stroke="#dfaa72" stroke-linecap="round" stroke-miterlimit="10" stroke-width="1" stroke-dasharray="0.1 1.5"/>
      <g id="Grupo_9" data-name="Grupo 9">
        <rect id="Retângulo_11" data-name="Retângulo 11" width="14.372" height="29.282" transform="translate(570.628 593.753)" fill="none" stroke="#dfaa72" stroke-linecap="round" stroke-miterlimit="10" stroke-width="1" stroke-dasharray="0.1 1.5"/>
        <path id="Caminho_35" data-name="Caminho 35" d="M576.994,638.7l-6.367-7v4.374l2.389,2.628" fill="none" stroke="#dfaa72" stroke-linecap="round" stroke-miterlimit="10" stroke-width="1" stroke-dasharray="0.1 1.5"/>
        <path id="Caminho_36" data-name="Caminho 36" d="M565.686,627.087v.862l2.91,2.735v-5.469Z" fill="none" stroke="#dfaa72" stroke-linecap="round" stroke-miterlimit="10" stroke-width="1" stroke-dasharray="0.1 1.5"/>
        <path id="Caminho_37" data-name="Caminho 37" d="M565.789,642.687H568.6v-1.8" fill="none" stroke="#dfaa72" stroke-linecap="round" stroke-miterlimit="10" stroke-width="1" stroke-dasharray="0.1 1.5"/>
        <line id="Linha_22" data-name="Linha 22" x1="5.993" y1="5.818" transform="translate(562.603 629.036)" fill="none" stroke="#dfaa72" stroke-linecap="round" stroke-miterlimit="10" stroke-width="1" stroke-dasharray="0.1 1.5"/>
        <path id="Caminho_38" data-name="Caminho 38" d="M565.686,633.409v2.879l2.709,2.547.2-.129" fill="none" stroke="#dfaa72" stroke-linecap="round" stroke-miterlimit="10" stroke-width="1" stroke-dasharray="0.1 1.5"/>
        <path id="Caminho_39" data-name="Caminho 39" d="M568.6,593.753h-2.91v31.153" fill="none" stroke="#dfaa72" stroke-linecap="round" stroke-miterlimit="10" stroke-width="1" stroke-dasharray="0.1 1.5"/>
        <path id="Caminho_40" data-name="Caminho 40" d="M568.6,623.034" fill="none" stroke="#dfaa72" stroke-linecap="round" stroke-miterlimit="10" stroke-width="1" stroke-dasharray="0.1 1.5"/>
        <path id="Caminho_41" data-name="Caminho 41" d="M565.759,640.525l-.073-.069v.115l1.375-.882Z" fill="none" stroke="#dfaa72" stroke-linecap="round" stroke-miterlimit="10" stroke-width="1" stroke-dasharray="0.1 1.5"/>
      </g>
      <path id="Caminho_42" data-name="Caminho 42" d="M607.061,576.822H562.939l-1.774,4.5h47.672Z" fill="none" stroke="#dfaa72" stroke-linecap="round" stroke-miterlimit="10" stroke-width="1" stroke-dasharray="0.1 1.5"/>
      <path id="Caminho_43" data-name="Caminho 43" d="M698.938,682.43h2.032V641.6l-2.032-.746Z" fill="none" stroke="#dfaa72" stroke-linecap="round" stroke-miterlimit="10" stroke-width="1" stroke-dasharray="0.1 1.5"/>
      <path id="Caminho_44" data-name="Caminho 44" d="M659.394,678.232h2.032V627.084l-2.032-.746Z" fill="none" stroke="#dfaa72" stroke-linecap="round" stroke-miterlimit="10" stroke-width="1" stroke-dasharray="0.1 1.5"/>
      <path id="Caminho_45" data-name="Caminho 45" d="M702.409,688.575V682.43h-40.2v6.146" fill="none" stroke="#dfaa72" stroke-linecap="round" stroke-miterlimit="10" stroke-width="1" stroke-dasharray="0.1 1.5"/>
      <path id="Caminho_46" data-name="Caminho 46" d="M662.21,688.575V678.232h-8.792v-3.145h-4.91v-3.145H643.6V668.8h-4.91v-3.145h-4.91v-3.145h-4.91v-3.145h-4.91v-3.145h-4.91v-3.145h-4.91v-3.145h-4.91v-3.145h-4.91v-4.1H565.686v4.1h-4.91v3.145h-4.91v3.145h-4.91v3.145h-4.91v3.145h-4.91v3.145h-4.91v3.145h-4.91V668.8H526.4v3.145h-4.91v3.145h-4.91v3.145H507.79v10.343" fill="none" stroke="#dfaa72" stroke-linecap="round" stroke-miterlimit="10" stroke-width="1" stroke-dasharray="0.1 1.5"/>
      <path id="Caminho_47" data-name="Caminho 47" d="M574.664,688.575v-33.99A61.865,61.865,0,0,1,585,653.072a61.88,61.88,0,0,1,10.336,1.513v33.99" fill="none" stroke="#dfaa72" stroke-linecap="round" stroke-miterlimit="10" stroke-width="1" stroke-dasharray="0.1 1.5"/>
      <g id="Grupo_11" data-name="Grupo 11">
        <path id="Caminho_48" data-name="Caminho 48" d="M601.4,625.216l57.99,37.291v-2.181L601.4,623.034m57.99,55.058L601.4,640.886v-2.181l57.99,37.2Z" fill="none" stroke="#dfaa72" stroke-linecap="round" stroke-miterlimit="10" stroke-width="1" stroke-dasharray="0.1 1.5"/>
        <g id="Grupo_10" data-name="Grupo 10">
          <line id="Linha_23" data-name="Linha 23" y1="7.973" x2="8.48" transform="translate(643.779 657.919)" fill="none" stroke="#dfaa72" stroke-linecap="round" stroke-miterlimit="10" stroke-width="1" stroke-dasharray="0.1 1.5"/>
          <line id="Linha_24" data-name="Linha 24" x1="8.478" y2="7.97" transform="translate(646.414 659.612)" fill="none" stroke="#dfaa72" stroke-linecap="round" stroke-miterlimit="10" stroke-width="1" stroke-dasharray="0.1 1.5"/>
          <line id="Linha_25" data-name="Linha 25" y1="7.977" x2="8.485" transform="translate(638.507 654.532)" fill="none" stroke="#dfaa72" stroke-linecap="round" stroke-miterlimit="10" stroke-width="1" stroke-dasharray="0.1 1.5"/>
          <line id="Linha_26" data-name="Linha 26" x1="8.483" y2="7.975" transform="translate(641.143 656.226)" fill="none" stroke="#dfaa72" stroke-linecap="round" stroke-miterlimit="10" stroke-width="1" stroke-dasharray="0.1 1.5"/>
          <path id="Caminho_49" data-name="Caminho 49" d="M649.057,669.278l8.473-7.965.01,0" fill="none" stroke="#dfaa72" stroke-linecap="round" stroke-miterlimit="10" stroke-width="1" stroke-dasharray="0.1 1.5"/>
          <path id="Caminho_50" data-name="Caminho 50" d="M659.394,662.507v1.222l-7.7,7.24" fill="none" stroke="#dfaa72" stroke-linecap="round" stroke-miterlimit="10" stroke-width="1" stroke-dasharray="0.1 1.5"/>
          <line id="Linha_27" data-name="Linha 27" y1="7.982" x2="8.49" transform="translate(633.235 651.145)" fill="none" stroke="#dfaa72" stroke-linecap="round" stroke-miterlimit="10" stroke-width="1" stroke-dasharray="0.1 1.5"/>
          <line id="Linha_28" data-name="Linha 28" x1="8.488" y2="7.979" transform="translate(635.871 652.839)" fill="none" stroke="#dfaa72" stroke-linecap="round" stroke-miterlimit="10" stroke-width="1" stroke-dasharray="0.1 1.5"/>
          <path id="Caminho_51" data-name="Caminho 51" d="M654.329,672.66l5.065-4.762v4.169l-2.429,2.284" fill="none" stroke="#dfaa72" stroke-linecap="round" stroke-miterlimit="10" stroke-width="1" stroke-dasharray="0.1 1.5"/>
          <path id="Caminho_52" data-name="Caminho 52" d="M607.492,629.131l-6.088,5.723v-4.169l3.454-3.247" fill="none" stroke="#dfaa72" stroke-linecap="round" stroke-miterlimit="10" stroke-width="1" stroke-dasharray="0.1 1.5"/>
          <line id="Linha_29" data-name="Linha 29" y1="8.005" x2="8.515" transform="translate(606.877 634.211)" fill="none" stroke="#dfaa72" stroke-linecap="round" stroke-miterlimit="10" stroke-width="1" stroke-dasharray="0.1 1.5"/>
          <line id="Linha_30" data-name="Linha 30" x1="8.513" y2="8.003" transform="translate(609.513 635.905)" fill="none" stroke="#dfaa72" stroke-linecap="round" stroke-miterlimit="10" stroke-width="1" stroke-dasharray="0.1 1.5"/>
          <line id="Linha_31" data-name="Linha 31" y1="8.01" x2="8.52" transform="translate(601.605 630.824)" fill="none" stroke="#dfaa72" stroke-linecap="round" stroke-miterlimit="10" stroke-width="1" stroke-dasharray="0.1 1.5"/>
          <line id="Linha_32" data-name="Linha 32" x1="8.517" y2="8.007" transform="translate(604.241 632.518)" fill="none" stroke="#dfaa72" stroke-linecap="round" stroke-miterlimit="10" stroke-width="1" stroke-dasharray="0.1 1.5"/>
          <line id="Linha_33" data-name="Linha 33" y1="7.986" x2="8.495" transform="translate(627.964 647.758)" fill="none" stroke="#dfaa72" stroke-linecap="round" stroke-miterlimit="10" stroke-width="1" stroke-dasharray="0.1 1.5"/>
          <line id="Linha_34" data-name="Linha 34" x1="8.493" y2="7.984" transform="translate(630.6 649.452)" fill="none" stroke="#dfaa72" stroke-linecap="round" stroke-miterlimit="10" stroke-width="1" stroke-dasharray="0.1 1.5"/>
          <line id="Linha_35" data-name="Linha 35" y1="7.991" x2="8.5" transform="translate(622.692 644.372)" fill="none" stroke="#dfaa72" stroke-linecap="round" stroke-miterlimit="10" stroke-width="1" stroke-dasharray="0.1 1.5"/>
          <line id="Linha_36" data-name="Linha 36" x1="8.498" y2="7.989" transform="translate(625.328 646.065)" fill="none" stroke="#dfaa72" stroke-linecap="round" stroke-miterlimit="10" stroke-width="1" stroke-dasharray="0.1 1.5"/>
          <line id="Linha_37" data-name="Linha 37" y1="7.996" x2="8.505" transform="translate(617.42 640.985)" fill="none" stroke="#dfaa72" stroke-linecap="round" stroke-miterlimit="10" stroke-width="1" stroke-dasharray="0.1 1.5"/>
          <line id="Linha_38" data-name="Linha 38" x1="8.503" y2="7.993" transform="translate(620.056 642.678)" fill="none" stroke="#dfaa72" stroke-linecap="round" stroke-miterlimit="10" stroke-width="1" stroke-dasharray="0.1 1.5"/>
          <line id="Linha_39" data-name="Linha 39" y1="8" x2="8.51" transform="translate(612.149 637.598)" fill="none" stroke="#dfaa72" stroke-linecap="round" stroke-miterlimit="10" stroke-width="1" stroke-dasharray="0.1 1.5"/>
          <line id="Linha_40" data-name="Linha 40" x1="8.508" y2="7.998" transform="translate(614.785 639.291)" fill="none" stroke="#dfaa72" stroke-linecap="round" stroke-miterlimit="10" stroke-width="1" stroke-dasharray="0.1 1.5"/>
        </g>
      </g>
      <path id="Caminho_53" data-name="Caminho 53" d="M570.628,624.967h28.745v-1.932H570.628" fill="none" stroke="#dfaa72" stroke-linecap="round" stroke-miterlimit="10" stroke-width="1" stroke-dasharray="0.1 1.5"/>
      <path id="Caminho_54" data-name="Caminho 54" d="M585,638.7H570.628v1.82h28.745V638.7Z" fill="none" stroke="#dfaa72" stroke-linecap="round" stroke-miterlimit="10" stroke-width="1" stroke-dasharray="0.1 1.5"/>
      <g id="Grupo_12" data-name="Grupo 12">
        <path id="Caminho_55" data-name="Caminho 55" d="M596.983,638.7l2.389-2.628V638.7" fill="none" stroke="#dfaa72" stroke-linecap="round" stroke-miterlimit="10" stroke-width="1" stroke-dasharray="0.1 1.5"/>
        <path id="Caminho_56" data-name="Caminho 56" d="M589.741,638.7l9.631-10.592V631.7l-6.367,7" fill="none" stroke="#dfaa72" stroke-linecap="round" stroke-miterlimit="10" stroke-width="1" stroke-dasharray="0.1 1.5"/>
        <path id="Caminho_57" data-name="Caminho 57" d="M595,624.967h3.265L585.769,638.7H585V635.96Z" fill="none" stroke="#dfaa72" stroke-linecap="round" stroke-miterlimit="10" stroke-width="1" stroke-dasharray="0.1 1.5"/>
      </g>
      <rect id="Retângulo_12" data-name="Retângulo 12" width="2.032" height="57.064" transform="translate(601.404 642.687) rotate(180)" fill="none" stroke="#dfaa72" stroke-linecap="round" stroke-miterlimit="10" stroke-width="1" stroke-dasharray="0.1 1.5"/>
      <path id="Caminho_58" data-name="Caminho 58" d="M664.774,570.4l-11.058-6.354L585,508.021l-68.715,56.021L505.226,570.4h-5.241l3.422,5.956,15.3-8.791L585,513.515l66.293,54.046,15.3,8.791,3.422-5.956Z" fill="none" stroke="#dfaa72" stroke-linecap="round" stroke-miterlimit="10" stroke-width="1" stroke-dasharray="0.1 1.5"/>
      <g id="Grupo_13" data-name="Grupo 13">
        <path id="Caminho_59" data-name="Caminho 59" d="M605.673,585.411v-4.094h3.163l-1.774-4.5h49.5V595.6H620.232Z" fill="none" stroke="#dfaa72" stroke-linecap="round" stroke-miterlimit="10" stroke-width="1" stroke-dasharray="0.1 1.5"/>
      </g>
      <path id="Caminho_60" data-name="Caminho 60" d="M570.628,585.623h28.745" fill="none" stroke="#dfaa72" stroke-linecap="round" stroke-miterlimit="10" stroke-width="1" stroke-dasharray="0.1 1.5"/>
      <path id="Caminho_61" data-name="Caminho 61" d="M605.673,585.623v-.212l53.764,37.616,50.344,18.478-1.076,2.932-50.725-18.618L601.4,586.236v-.613Z" fill="none" stroke="#dfaa72" stroke-linecap="round" stroke-miterlimit="10" stroke-width="1" stroke-dasharray="0.1 1.5"/>
      <g id="Grupo_14" data-name="Grupo 14">
        <path id="Caminho_62" data-name="Caminho 62" d="M585,631.7l6.122-6.733H595L585,635.96Z" fill="none" stroke="#dfaa72" stroke-linecap="round" stroke-miterlimit="10" stroke-width="1" stroke-dasharray="0.1 1.5"/>
        <rect id="Retângulo_13" data-name="Retângulo 13" width="14.372" height="29.282" transform="translate(585 593.753)" fill="none" stroke="#dfaa72" stroke-linecap="round" stroke-miterlimit="10" stroke-width="1" stroke-dasharray="0.1 1.5"/>
        <path id="Caminho_63" data-name="Caminho 63" d="M585,624.967h2.857L585,628.109" fill="none" stroke="#dfaa72" stroke-linecap="round" stroke-miterlimit="10" stroke-width="1" stroke-dasharray="0.1 1.5"/>
        <path id="Caminho_64" data-name="Caminho 64" d="M593.006,638.7l6.367-7v4.374l-2.389,2.628Z" fill="none" stroke="#dfaa72" stroke-linecap="round" stroke-miterlimit="10" stroke-width="1" stroke-dasharray="0.1 1.5"/>
        <path id="Caminho_65" data-name="Caminho 65" d="M601.4,640.886l2.807,1.8H601.4Z" fill="none" stroke="#dfaa72" stroke-linecap="round" stroke-miterlimit="10" stroke-width="1" stroke-dasharray="0.1 1.5"/>
        <line id="Linha_41" data-name="Linha 41" y2="4.169" transform="translate(604.314 632.118)" fill="none" stroke="#dfaa72" stroke-linecap="round" stroke-miterlimit="10" stroke-width="1" stroke-dasharray="0.1 1.5"/>
        <path id="Caminho_66" data-name="Caminho 66" d="M601.4,593.753h2.91v31.153l-2.91-1.871" fill="none" stroke="#dfaa72" stroke-linecap="round" stroke-miterlimit="10" stroke-width="1" stroke-dasharray="0.1 1.5"/>
      </g>
      <path id="Caminho_67" data-name="Caminho 67" d="M585,542.46A37.229,37.229,0,0,0,564.327,575.3h7.918A32.107,32.107,0,0,1,578,558.407c.8,1.012,4.928,6.71,4.872,16.885l1.987.011c0-10.772-4.2-16.807-5.606-18.537A24.165,24.165,0,0,1,585,551.524a24.137,24.137,0,0,1,5.748,5.242c-1.4,1.729-5.606,7.764-5.606,18.537l1.987-.011c-.056-10.176,4.069-15.874,4.872-16.886a32.114,32.114,0,0,1,5.754,16.892h7.918A37.229,37.229,0,0,0,585,542.46Z" fill="none" stroke="#dfaa72" stroke-linecap="round" stroke-miterlimit="10" stroke-width="1" stroke-dasharray="0.1 1.5"/>
    </g>
  </g>
</svg>
