<svg xmlns="http://www.w3.org/2000/svg" width="293.927" height="389.101" viewBox="0 0 293.927 389.101">
  <g id="Grupo_6" data-name="Grupo 6" transform="translate(-670.219 -302.345)">
    <g id="Grupo_1" data-name="Grupo 1">
      <path id="Caminho_1" data-name="Caminho 1" d="M817.182,333.53l20.046-14.376L822.852,339.2l14.376,20.046-20.046-14.376-20.046,14.376L811.512,339.2l-14.376-20.046Z" fill="#dfaa72"/>
      <path id="Caminho_2" data-name="Caminho 2" d="M821.191,335.19l24.34,4.009-24.34,4.009-4.009,35.68-4.009-35.68-24.34-4.009,24.34-4.009,4.009-32.845Z" fill="#fff"/>
    </g>
    <g id="Grupo_2" data-name="Grupo 2">
      <path id="Caminho_3" data-name="Caminho 3" d="M964.145,691.446,817.187,373.033,670.219,691.446Z" fill="#d67f53"/>
      <path id="Caminho_4" data-name="Caminho 4" d="M950.615,662.129l-22.466-48.674H706.215l-22.466,48.674Z" fill="#dfaa72"/>
      <path id="Caminho_5" data-name="Caminho 5" d="M732.971,555.488,710.505,604.16H923.859L901.4,555.488Z" fill="#dfaa72"/>
      <path id="Caminho_6" data-name="Caminho 6" d="M759.727,497.519l-22.466,48.674H897.1l-22.466-48.674Z" fill="#dfaa72"/>
      <path id="Caminho_7" data-name="Caminho 7" d="M764.015,488.225H870.349l-22.464-48.674h-61.4Z" fill="#dfaa72"/>
      <path id="Caminho_8" data-name="Caminho 8" d="M679.461,671.423l-8.6,18.628H963.5l-8.6-18.628Z" fill="#dfaa72"/>
      <path id="Caminho_9" data-name="Caminho 9" d="M843.593,430.256l-26.41-57.223-26.412,57.223Z" fill="#dfaa72"/>
    </g>
    <g id="Grupo_3" data-name="Grupo 3">
      <circle id="Elipse_1" data-name="Elipse 1" cx="8.798" cy="8.798" r="8.798" transform="translate(735.838 518.024) rotate(-22.5)" fill="#e7344c"/>
      <circle id="Elipse_2" data-name="Elipse 2" cx="8.798" cy="8.798" r="8.798" transform="matrix(0.23, -0.973, 0.973, 0.23, 771.674, 529.327)" fill="#e7344c"/>
      <circle id="Elipse_3" data-name="Elipse 3" cx="8.798" cy="8.798" r="8.798" transform="translate(804.739 522.786) rotate(-45)" fill="#e7344c"/>
      <circle id="Elipse_4" data-name="Elipse 4" cx="8.798" cy="8.798" r="8.798" transform="translate(840.61 518.024) rotate(-22.5)" fill="#e7344c"/>
      <circle id="Elipse_5" data-name="Elipse 5" cx="8.798" cy="8.798" r="8.798" transform="matrix(0.23, -0.973, 0.973, 0.23, 876.445, 529.327)" fill="#e7344c"/>
    </g>
    <path id="Caminho_10" data-name="Caminho 10" d="M780.592,461.165l6.945,2.724-6.945,2.724a3.663,3.663,0,0,0-2.192,2.426l-3.234,11.568-3.234-11.568a3.666,3.666,0,0,0-2.192-2.426l-6.945-2.724,6.945-2.724a3.668,3.668,0,0,0,2.192-2.427l3.234-11.567,3.234,11.567A3.665,3.665,0,0,0,780.592,461.165Z" fill="#fff"/>
    <path id="Caminho_11" data-name="Caminho 11" d="M807.77,461.165l6.945,2.724-6.945,2.724a3.667,3.667,0,0,0-2.193,2.426l-3.233,11.568-3.234-11.568a3.666,3.666,0,0,0-2.192-2.426l-6.946-2.724,6.946-2.724a3.667,3.667,0,0,0,2.192-2.427l3.234-11.567,3.233,11.567A3.669,3.669,0,0,0,807.77,461.165Z" fill="#fff"/>
    <path id="Caminho_12" data-name="Caminho 12" d="M834.721,461.165l6.945,2.724-6.945,2.724a3.664,3.664,0,0,0-2.192,2.426l-3.234,11.568-3.234-11.568a3.663,3.663,0,0,0-2.192-2.426l-6.945-2.724,6.945-2.724a3.665,3.665,0,0,0,2.192-2.427l3.234-11.567,3.234,11.567A3.665,3.665,0,0,0,834.721,461.165Z" fill="#fff"/>
    <path id="Caminho_13" data-name="Caminho 13" d="M861.672,461.165l6.946,2.724-6.946,2.724a3.668,3.668,0,0,0-2.192,2.426l-3.234,11.568-3.233-11.568a3.667,3.667,0,0,0-2.193-2.426l-6.945-2.724,6.945-2.724a3.669,3.669,0,0,0,2.193-2.427l3.233-11.567,3.234,11.567A3.67,3.67,0,0,0,861.672,461.165Z" fill="#fff"/>
    <g id="Grupo_4" data-name="Grupo 4">
      <path id="Caminho_14" data-name="Caminho 14" d="M707.27,624.478l.676-2.284s-1.776-1.487-5.7-1.487-5.7,1.487-5.7,1.487l.675,2.284s-4.111,1.6-3.315,5.114c.329,1.453,2.688,14.664,5.958,23.221a2.538,2.538,0,0,0,4.754,0c3.271-8.557,5.629-21.768,5.958-23.221C711.381,626.082,707.27,624.478,707.27,624.478Z" fill="#e7344c"/>
      <path id="Caminho_15" data-name="Caminho 15" d="M764.736,624.478l.676-2.284s-1.776-1.487-5.7-1.487-5.7,1.487-5.7,1.487l.675,2.284s-4.111,1.6-3.315,5.114c.329,1.453,2.688,14.664,5.958,23.221a2.538,2.538,0,0,0,4.754,0c3.27-8.557,5.629-21.768,5.958-23.221C768.847,626.082,764.736,624.478,764.736,624.478Z" fill="#e7344c"/>
      <path id="Caminho_16" data-name="Caminho 16" d="M725.963,650.69l-.675,2.284s1.775,1.487,5.695,1.487,5.7-1.487,5.7-1.487L736,650.69s4.111-1.6,3.315-5.114c-.329-1.453-2.687-14.664-5.958-23.221a2.538,2.538,0,0,0-4.754,0c-3.27,8.557-5.629,21.768-5.958,23.221C721.852,649.086,725.963,650.69,725.963,650.69Z" fill="#e7344c"/>
      <path id="Caminho_17" data-name="Caminho 17" d="M822.2,624.478l.676-2.284s-1.776-1.487-5.7-1.487-5.7,1.487-5.7,1.487l.676,2.284s-4.111,1.6-3.315,5.114c.329,1.453,2.688,14.664,5.958,23.221a2.538,2.538,0,0,0,4.754,0c3.27-8.557,5.629-21.768,5.958-23.221C826.313,626.082,822.2,624.478,822.2,624.478Z" fill="#e7344c"/>
      <path id="Caminho_18" data-name="Caminho 18" d="M879.668,624.478l.676-2.284s-1.776-1.487-5.7-1.487-5.7,1.487-5.7,1.487l.676,2.284s-4.111,1.6-3.315,5.114c.329,1.453,2.688,14.664,5.958,23.221a2.538,2.538,0,0,0,4.754,0c3.27-8.557,5.629-21.768,5.958-23.221C883.779,626.082,879.668,624.478,879.668,624.478Z" fill="#e7344c"/>
      <path id="Caminho_19" data-name="Caminho 19" d="M937.134,624.478l.675-2.284s-1.775-1.487-5.7-1.487-5.7,1.487-5.7,1.487l.676,2.284s-4.111,1.6-3.315,5.114c.329,1.453,2.687,14.664,5.958,23.221a2.538,2.538,0,0,0,4.754,0c3.27-8.557,5.629-21.768,5.958-23.221C941.245,626.082,937.134,624.478,937.134,624.478Z" fill="#e7344c"/>
      <path id="Caminho_20" data-name="Caminho 20" d="M783.429,650.69l-.676,2.284s1.776,1.487,5.7,1.487,5.7-1.487,5.7-1.487l-.676-2.284s4.111-1.6,3.315-5.114c-.329-1.453-2.688-14.664-5.958-23.221a2.538,2.538,0,0,0-4.754,0c-3.27,8.557-5.629,21.768-5.958,23.221C779.318,649.086,783.429,650.69,783.429,650.69Z" fill="#e7344c"/>
      <path id="Caminho_21" data-name="Caminho 21" d="M840.9,650.69l-.676,2.284s1.776,1.487,5.7,1.487,5.7-1.487,5.7-1.487l-.676-2.284s4.111-1.6,3.315-5.114c-.329-1.453-2.688-14.664-5.958-23.221a2.538,2.538,0,0,0-4.754,0c-3.27,8.557-5.629,21.768-5.958,23.221C836.784,649.086,840.9,650.69,840.9,650.69Z" fill="#e7344c"/>
      <path id="Caminho_22" data-name="Caminho 22" d="M898.361,650.69l-.676,2.284s1.776,1.487,5.7,1.487,5.7-1.487,5.7-1.487l-.676-2.284s4.111-1.6,3.315-5.114c-.329-1.453-2.688-14.664-5.958-23.221a2.538,2.538,0,0,0-4.754,0c-3.27,8.557-5.629,21.768-5.958,23.221C894.25,649.086,898.361,650.69,898.361,650.69Z" fill="#e7344c"/>
    </g>
    <g id="Grupo_5" data-name="Grupo 5">
      <path id="Caminho_23" data-name="Caminho 23" d="M718.957,572.333a7.372,7.372,0,0,1-2.339-5.208l0,.039v-.039a7.367,7.367,0,0,1-2.339,5.208C711.8,574.573,704,574.39,704,579.825s7.8,5.252,10.277,7.491a7.08,7.08,0,0,1,2.209,4.117l.059.686.017-.252c.03.267.052.524.054.657v-1.482l0-.041v1.523a7.374,7.374,0,0,1,2.339-5.208c2.481-2.239,10.277-2.057,10.277-7.491S721.438,574.573,718.957,572.333Z" fill="#992132"/>
      <path id="Caminho_24" data-name="Caminho 24" d="M747.69,572.333a7.367,7.367,0,0,1-2.339-5.208l0,.039v-.039a7.367,7.367,0,0,1-2.339,5.208c-2.48,2.24-10.277,2.057-10.277,7.492s7.8,5.252,10.277,7.491a7.08,7.08,0,0,1,2.209,4.117l.059.686.017-.252c.03.267.052.524.054.657v-1.482l0-.041v1.523a7.369,7.369,0,0,1,2.339-5.208c2.481-2.239,10.277-2.057,10.277-7.491S750.171,574.573,747.69,572.333Z" fill="#992132"/>
      <path id="Caminho_25" data-name="Caminho 25" d="M776.423,572.333a7.367,7.367,0,0,1-2.339-5.208l0,.039v-.039a7.367,7.367,0,0,1-2.339,5.208c-2.48,2.24-10.277,2.057-10.277,7.492s7.8,5.252,10.277,7.491a7.08,7.08,0,0,1,2.209,4.117l.059.686.017-.252c.03.267.052.524.054.657v-1.482l0-.041v1.523a7.369,7.369,0,0,1,2.339-5.208c2.481-2.239,10.277-2.057,10.277-7.491S778.9,574.573,776.423,572.333Z" fill="#992132"/>
      <path id="Caminho_26" data-name="Caminho 26" d="M805.156,572.333a7.367,7.367,0,0,1-2.339-5.208l0,.039v-.039a7.367,7.367,0,0,1-2.339,5.208c-2.48,2.24-10.277,2.057-10.277,7.492s7.8,5.252,10.277,7.491a7.08,7.08,0,0,1,2.209,4.117l.059.686.017-.252c.03.267.052.524.054.657v-1.482l0-.041v1.523a7.369,7.369,0,0,1,2.339-5.208c2.481-2.239,10.277-2.057,10.277-7.491S807.637,574.573,805.156,572.333Z" fill="#992132"/>
      <path id="Caminho_27" data-name="Caminho 27" d="M833.889,572.333a7.367,7.367,0,0,1-2.339-5.208l0,.039v-.039a7.367,7.367,0,0,1-2.339,5.208c-2.48,2.24-10.277,2.057-10.277,7.492s7.8,5.252,10.277,7.491a7.08,7.08,0,0,1,2.209,4.117l.059.686.017-.252c.03.267.052.524.054.657v-1.482l0-.041v1.523a7.369,7.369,0,0,1,2.339-5.208c2.481-2.239,10.277-2.057,10.277-7.491S836.37,574.573,833.889,572.333Z" fill="#992132"/>
      <path id="Caminho_28" data-name="Caminho 28" d="M862.622,572.333a7.367,7.367,0,0,1-2.339-5.208l0,.039v-.039a7.367,7.367,0,0,1-2.339,5.208c-2.481,2.24-10.277,2.057-10.277,7.492s7.8,5.252,10.277,7.491a7.081,7.081,0,0,1,2.209,4.117l.059.686.017-.252c.03.267.052.524.054.657v-1.482l0-.041v1.523a7.369,7.369,0,0,1,2.339-5.208c2.481-2.239,10.277-2.057,10.277-7.491S865.1,574.573,862.622,572.333Z" fill="#992132"/>
      <path id="Caminho_29" data-name="Caminho 29" d="M891.355,572.333a7.367,7.367,0,0,1-2.339-5.208l0,.039v-.039a7.367,7.367,0,0,1-2.339,5.208c-2.481,2.24-10.277,2.057-10.277,7.492s7.8,5.252,10.277,7.491a7.08,7.08,0,0,1,2.209,4.117l.059.686.017-.252c.03.267.052.524.054.657v-1.482l0-.041v1.523a7.369,7.369,0,0,1,2.339-5.208c2.481-2.239,10.277-2.057,10.277-7.491S893.836,574.573,891.355,572.333Z" fill="#992132"/>
      <path id="Caminho_30" data-name="Caminho 30" d="M920.088,572.333a7.367,7.367,0,0,1-2.339-5.208l0,.039v-.039a7.367,7.367,0,0,1-2.339,5.208c-2.481,2.24-10.277,2.057-10.277,7.492s7.8,5.252,10.277,7.491a7.081,7.081,0,0,1,2.209,4.117l.059.686.017-.252c.03.267.052.524.054.657v-1.482l0-.041v1.523a7.368,7.368,0,0,1,2.339-5.208c2.48-2.239,10.277-2.057,10.277-7.491S922.568,574.573,920.088,572.333Z" fill="#992132"/>
    </g>
  </g>
</svg>
