<?xml version="1.0" encoding="utf-8"?>
<!-- Generator: Adobe Illustrator 26.5.0, SVG Export Plug-In . SVG Version: 6.00 Build 0)  -->
<svg version="1.1" id="Layer_1" xmlns="http://www.w3.org/2000/svg" xmlns:xlink="http://www.w3.org/1999/xlink" x="0px" y="0px"
	 viewBox="0 0 26 33" style="enable-background:new 0 0 26 33;" xml:space="preserve">
<style type="text/css">
	.st0{fill:#EF4056;}
	.st1{fill:#DAA573;}
	.st2{fill:#97263C;}
	.st3{fill:#FFFFFF;}
</style>
<g>
	
		<ellipse transform="matrix(0.7071 -0.7071 0.7071 0.7071 -10.2974 15.0349)" class="st0" cx="13" cy="19.95" rx="12.83" ry="12.83"/>
	<rect x="9.19" y="3.94" class="st1" width="7.63" height="3.72"/>
	<path class="st1" d="M13,0.22c-1.09,0-1.97,0.88-1.97,1.97S11.91,4.16,13,4.16c1.09,0,1.97-0.88,1.97-1.97S14.09,0.22,13,0.22z
		 M13,3.22c-0.57,0-1.03-0.46-1.03-1.03S12.43,1.16,13,1.16c0.57,0,1.03,0.46,1.03,1.03S13.57,3.22,13,3.22z"/>
	<path class="st2" d="M5.71,15.61c-0.58-0.53-0.63-1.23-0.64-1.42l0,0.01v-0.01c0,0.18-0.05,0.89-0.64,1.42
		c-0.67,0.61-2.79,0.56-2.79,2.04c0,1.48,2.12,1.43,2.79,2.04c0.41,0.37,0.55,0.82,0.6,1.12l0.02,0.19l0-0.07
		c0.01,0.07,0.01,0.14,0.01,0.18v-0.4l0-0.01l0,0.41c0-0.18,0.05-0.89,0.64-1.42c0.67-0.61,2.79-0.56,2.79-2.04
		C8.5,16.16,6.38,16.21,5.71,15.61z M5.36,18.58c-0.27,0.24-0.29,0.57-0.29,0.65v-0.19l0,0.01v0.19c0-0.02,0-0.05-0.01-0.08l0,0.03
		L5.05,19.1c-0.02-0.14-0.09-0.35-0.28-0.52c-0.31-0.28-1.29-0.26-1.29-0.94c0-0.68,0.98-0.66,1.29-0.94
		c0.27-0.24,0.29-0.57,0.29-0.65v0l0,0c0,0.08,0.02,0.41,0.29,0.65c0.31,0.28,1.29,0.26,1.29,0.94C6.66,18.33,5.68,18.3,5.36,18.58z
		"/>
	<path class="st2" d="M2.05,13.34h21.9c-0.23-0.37-0.47-0.73-0.73-1.08H2.78C2.52,12.61,2.28,12.97,2.05,13.34z"/>
	<path class="st2" d="M2.37,27.13h21.26c0.23-0.34,0.39-0.72,0.59-1.08H1.78C1.98,26.41,2.14,26.79,2.37,27.13z"/>
	<path class="st1" d="M3.22,11.74h19.57c-0.12-0.14-0.23-0.29-0.35-0.43H3.57C3.44,11.45,3.33,11.59,3.22,11.74z"/>
	<path class="st1" d="M3.04,27.95h19.92c0.12-0.14,0.24-0.28,0.35-0.43H2.69C2.8,27.67,2.92,27.8,3.04,27.95z"/>
	<path class="st3" d="M5.21,9.82h15.58c-0.18-0.14-0.33-0.3-0.52-0.43H5.73C5.54,9.52,5.39,9.68,5.21,9.82z"/>
	<path class="st1" d="M6.1,30.74h13.8c0.21-0.13,0.41-0.28,0.61-0.43H5.49C5.69,30.46,5.89,30.6,6.1,30.74z"/>
	<path class="st2" d="M14.03,15.61c-0.58-0.53-0.63-1.23-0.64-1.42l0,0.01v-0.01c0,0.18-0.05,0.89-0.64,1.42
		c-0.67,0.61-2.79,0.56-2.79,2.04c0,1.48,2.12,1.43,2.79,2.04c0.41,0.37,0.55,0.82,0.6,1.12l0.02,0.19l0-0.07
		c0.01,0.07,0.01,0.14,0.01,0.18l0-0.4l0-0.01v0.41c0-0.18,0.05-0.89,0.64-1.42c0.67-0.61,2.79-0.56,2.79-2.04
		C16.82,16.16,14.7,16.21,14.03,15.61z M13.69,18.58c-0.27,0.24-0.29,0.57-0.29,0.65v-0.19l0,0.01v0.19c0-0.02,0-0.05-0.01-0.08
		l0,0.03l-0.01-0.09c-0.02-0.14-0.09-0.35-0.28-0.52c-0.31-0.28-1.29-0.26-1.29-0.94c0-0.68,0.98-0.66,1.29-0.94
		c0.27-0.24,0.29-0.57,0.29-0.65v0l0,0c0,0.08,0.02,0.41,0.29,0.65c0.31,0.28,1.29,0.26,1.29,0.94C14.98,18.33,14,18.3,13.69,18.58z
		"/>
	<path class="st2" d="M22.35,15.61c-0.58-0.53-0.63-1.23-0.64-1.42l0,0.01v-0.01c0,0.18-0.05,0.89-0.64,1.42
		c-0.67,0.61-2.79,0.56-2.79,2.04c0,1.48,2.12,1.43,2.79,2.04c0.41,0.37,0.55,0.82,0.6,1.12l0.02,0.19l0-0.07
		c0.01,0.07,0.01,0.14,0.01,0.18v-0.4l0-0.01v0.41c0-0.18,0.05-0.89,0.64-1.42c0.67-0.61,2.79-0.56,2.79-2.04
		C25.15,16.16,23.03,16.21,22.35,15.61z M22.01,18.58c-0.27,0.24-0.29,0.57-0.29,0.65l0-0.19l0,0.01v0.19c0-0.02,0-0.05-0.01-0.08
		l0,0.03L21.7,19.1c-0.02-0.14-0.09-0.35-0.28-0.52c-0.31-0.28-1.29-0.26-1.29-0.94c0-0.68,0.98-0.66,1.29-0.94
		c0.27-0.24,0.29-0.57,0.29-0.65v0l0,0c0,0.08,0.02,0.41,0.29,0.65c0.31,0.28,1.29,0.26,1.29,0.94
		C23.3,18.33,22.32,18.3,22.01,18.58z"/>
	<g>
		<path class="st1" d="M25.58,22.4c-0.31-0.28-1.29-0.26-1.29-0.94s0.98-0.66,1.29-0.94c0.12-0.11,0.18-0.24,0.23-0.35
			c0-0.08,0.02-0.15,0.02-0.22c0-0.41-0.08-0.81-0.12-1.21c-0.09,0.23-0.23,0.47-0.47,0.69c-0.67,0.61-2.79,0.56-2.79,2.04
			c0,1.48,2.12,1.43,2.79,2.04c0.01,0.01,0.01,0.02,0.02,0.03C25.37,23.15,25.51,22.79,25.58,22.4
			C25.58,22.41,25.58,22.41,25.58,22.4z"/>
		<path class="st1" d="M18.19,19.43c-0.58-0.53-0.63-1.23-0.64-1.42l0,0.01v-0.01c0,0.18-0.05,0.89-0.64,1.42
			c-0.67,0.61-2.79,0.56-2.79,2.04c0,1.48,2.12,1.43,2.79,2.04c0.41,0.37,0.55,0.82,0.6,1.12l0.02,0.19l0-0.07
			c0.01,0.07,0.01,0.14,0.01,0.18v-0.4l0-0.01l0,0.41c0-0.18,0.05-0.89,0.64-1.42c0.67-0.61,2.79-0.56,2.79-2.04
			C20.98,19.99,18.87,20.04,18.19,19.43z M17.85,22.4c-0.27,0.24-0.29,0.57-0.29,0.65v-0.19l0,0.01v0.19c0-0.02,0-0.05-0.01-0.08
			l0,0.03l-0.01-0.09c-0.02-0.14-0.09-0.35-0.28-0.52c-0.31-0.28-1.29-0.26-1.29-0.94s0.98-0.66,1.29-0.94
			c0.27-0.24,0.29-0.57,0.29-0.65v0l0,0c0,0.08,0.02,0.41,0.29,0.65c0.31,0.28,1.29,0.26,1.29,0.94S18.16,22.12,17.85,22.4z"/>
		<path class="st1" d="M4.34,21.46c0-1.48-2.12-1.43-2.79-2.04c-0.58-0.53-0.63-1.23-0.64-1.42l0,0.01v-0.01
			c0,0.18-0.05,0.89-0.64,1.42c-0.01,0.01-0.04,0.02-0.05,0.04c-0.01,0.16-0.05,0.32-0.05,0.49c0,0.26,0.06,0.5,0.08,0.76
			c0.15-0.05,0.29-0.11,0.37-0.18c0.27-0.24,0.29-0.57,0.29-0.65v0l0,0c0,0.08,0.02,0.41,0.29,0.65c0.31,0.28,1.29,0.26,1.29,0.94
			S1.51,22.12,1.2,22.4c-0.27,0.24-0.29,0.57-0.29,0.65v-0.19l0,0.01v0.19c0-0.02,0-0.05-0.01-0.08l0,0.03l-0.01-0.09
			c-0.02-0.14-0.09-0.35-0.28-0.52c-0.05-0.04-0.13-0.07-0.21-0.11c0.13,0.72,0.35,1.4,0.6,2.08c0.08-0.27,0.24-0.6,0.54-0.87
			C2.22,22.89,4.34,22.94,4.34,21.46z"/>
		<path class="st1" d="M9.87,19.43c-0.58-0.53-0.63-1.23-0.64-1.42l0,0.01v-0.01c0,0.18-0.05,0.89-0.64,1.42
			c-0.67,0.61-2.79,0.56-2.79,2.04c0,1.48,2.12,1.43,2.79,2.04c0.41,0.37,0.55,0.82,0.6,1.12l0.02,0.19l0-0.07
			c0.01,0.07,0.01,0.14,0.01,0.18v-0.4l0-0.01v0.41c0-0.18,0.05-0.89,0.64-1.42c0.67-0.61,2.79-0.56,2.79-2.04
			C12.66,19.99,10.54,20.04,9.87,19.43z M9.53,22.4c-0.27,0.24-0.29,0.57-0.29,0.65v-0.19l0,0.01l0,0.19c0-0.02,0-0.05-0.01-0.08
			l0,0.03l-0.01-0.09c-0.02-0.14-0.09-0.35-0.28-0.52c-0.31-0.28-1.29-0.26-1.29-0.94s0.98-0.66,1.29-0.94
			c0.27-0.24,0.29-0.57,0.29-0.65v0l0,0c0,0.08,0.02,0.41,0.29,0.65c0.31,0.28,1.29,0.26,1.29,0.94S9.84,22.12,9.53,22.4z"/>
	</g>
	<g>
		<path class="st1" d="M14.31,29.8c0.37,0,0.67-0.3,0.67-0.67c0-0.37-0.3-0.67-0.67-0.67c-0.37,0-0.67,0.3-0.67,0.67
			C13.64,29.51,13.94,29.8,14.31,29.8z"/>
		<path class="st1" d="M22.43,28.59c-0.09-0.05-0.17-0.11-0.27-0.11c-0.37,0-0.67,0.3-0.67,0.67c0,0.11,0.07,0.18,0.11,0.27
			C21.89,29.15,22.17,28.87,22.43,28.59z"/>
		<path class="st1" d="M18.88,29.14c0,0.37,0.3,0.67,0.67,0.67c0.37,0,0.67-0.3,0.67-0.67c0-0.37-0.3-0.67-0.67-0.67
			C19.17,28.47,18.88,28.77,18.88,29.14z"/>
		<path class="st1" d="M16.26,29.14c0,0.37,0.3,0.67,0.67,0.67c0.37,0,0.67-0.3,0.67-0.67c0-0.37-0.3-0.67-0.67-0.67
			C16.56,28.47,16.26,28.77,16.26,29.14z"/>
		<path class="st1" d="M7.13,29.14c0-0.37-0.3-0.67-0.67-0.67c-0.37,0-0.67,0.3-0.67,0.67c0,0.37,0.3,0.67,0.67,0.67
			C6.83,29.8,7.13,29.51,7.13,29.14z"/>
		<path class="st1" d="M3.84,28.47c-0.11,0-0.19,0.07-0.27,0.11c0.26,0.29,0.54,0.56,0.83,0.82c0.04-0.09,0.11-0.16,0.11-0.27
			C4.51,28.77,4.21,28.47,3.84,28.47z"/>
		<path class="st1" d="M11.69,28.47c-0.37,0-0.67,0.3-0.67,0.67c0,0.37,0.3,0.67,0.67,0.67c0.37,0,0.67-0.3,0.67-0.67
			C12.36,28.77,12.06,28.47,11.69,28.47z"/>
		<path class="st1" d="M9.74,29.14c0-0.37-0.3-0.67-0.67-0.67c-0.37,0-0.67,0.3-0.67,0.67c0,0.37,0.3,0.67,0.67,0.67
			C9.44,29.8,9.74,29.51,9.74,29.14z"/>
	</g>
</g>
</svg>
