<svg xmlns="http://www.w3.org/2000/svg" width="153.651" height="275.594" viewBox="0 0 153.651 275.594">
  <g id="Grupo_1" data-name="Grupo 1" transform="translate(-883.851 -403.406)">
    <rect id="Retângulo_1" data-name="Retângulo 1" width="84" height="123" transform="translate(926 556)" fill="#73262f"/>
    <g id="Grupo_1-2" data-name="Grupo 1" transform="translate(-774.298 -275.188)">
      <path id="Caminho_1" data-name="Caminho 1" d="M1600.958,631.56s-20.135,9.7-20.049,21.819,6.072,38.618,20.049,39.344,32.626,2.178,46.351,0,25.267-11.979,27.573-19.783-1.483-28.313-7.756-34.665S1618.923,627.023,1600.958,631.56Z" transform="translate(109 127.152)" fill="#73262f"/>
      <path id="Caminho_2" data-name="Caminho 2" d="M1665.072,647.513a37.576,37.576,0,1,1-37.572-37.569,37.578,37.578,0,0,1,37.572,37.569" transform="translate(109 127.119)" fill="#f29669"/>
      <rect id="Retângulo_1-2" data-name="Retângulo 1" width="72.818" height="14.476" transform="translate(1700.086 727.17)" fill="#73262f"/>
      <rect id="Retângulo_2" data-name="Retângulo 2" width="72.818" height="9.344" transform="translate(1700.086 717.75)" fill="#e6334c"/>
      <rect id="Retângulo_3" data-name="Retângulo 3" width="79.273" height="12.734" rx="3.434" transform="translate(1696.858 707.436)" fill="#dfaa72"/>
      <path id="Caminho_3" data-name="Caminho 3" d="M1665.469,806.31h-75.152V695a11.291,11.291,0,0,1,11.294-11.294h52.577A11.288,11.288,0,0,1,1665.469,695Z" transform="translate(109 127.409)" fill="#e7344c"/>
      <rect id="Retângulo_4" data-name="Retângulo 4" width="89.411" height="18.633" rx="9.316" transform="translate(1691.793 737.028)" fill="#dfaa72"/>
      <path id="Caminho_4" data-name="Caminho 4" d="M1620.9,644.01" transform="translate(109 127.137)" fill="none" stroke="#fff" stroke-miterlimit="10" stroke-width="0.839"/>
      <path id="Caminho_5" data-name="Caminho 5" d="M1634.1,644.01" transform="translate(109 127.137)" fill="none" stroke="#fff" stroke-miterlimit="10" stroke-width="0.839"/>
      <path id="Caminho_6" data-name="Caminho 6" d="M1642.341,711.277a3.244,3.244,0,0,0-3.146,2.876h-23.388a3.257,3.257,0,0,0-3.158-2.876,3.353,3.353,0,1,0,0,6.706,3.268,3.268,0,0,0,3.158-2.876h23.388a3.255,3.255,0,0,0,3.146,2.875,3.353,3.353,0,1,0,0-6.706" transform="translate(109 127.243)" fill="#fff"/>
      <path id="Caminho_7" data-name="Caminho 7" d="M1642.341,725.254a3.244,3.244,0,0,0-3.146,2.875h-23.388a3.256,3.256,0,0,0-3.158-2.875,3.353,3.353,0,0,0,0,6.7,3.268,3.268,0,0,0,3.158-2.875h23.388a3.255,3.255,0,0,0,3.146,2.875,3.352,3.352,0,0,0,0-6.7" transform="translate(109 127.265)" fill="#fff"/>
      <path id="Caminho_8" data-name="Caminho 8" d="M1587.859,737.749h-13.9V701.778a13.893,13.893,0,0,1,13.9-13.885Z" transform="translate(109 127.247)" fill="#e6334c"/>
      <path id="Caminho_9" data-name="Caminho 9" d="M1667.932,826.779H1702.8l-20.973-125a13.893,13.893,0,0,0-13.9-13.885Z" transform="translate(109 127.409)" fill="#e7344c"/>
      <path id="Caminho_10" data-name="Caminho 10" d="M1593.423,628.568s-1.723,22.118,1.927,28.746c4.357,7.913,10.314,8.654,15.414,8.042,0,0,.921,10.806,7.227,11.216,5.7.371,5.653-3.843,5.653-3.843h3.848v18.429s-12.372-3.265-16.143-7.455c0,0-.5,2.284-4.738-2a88.646,88.646,0,0,1-6.595-7.344s-.293,3.672-2.537,1.02-6.995-11.165-7.162-17.437c0,0-2.492.915-2.458-2.756s3.231-26.619,3.231-26.619Z" transform="translate(109 127.148)" fill="#cfcfcf"/>
      <path id="Caminho_11" data-name="Caminho 11" d="M1661.561,628.568s1.723,22.118-1.927,28.746c-4.357,7.913-10.314,8.654-15.414,8.042,0,0-.921,10.806-7.227,11.216-5.7.371-5.653-3.843-5.653-3.843h-3.848v18.429s12.372-3.265,16.142-7.455c0,0,.5,2.284,4.739-2a88.846,88.846,0,0,0,6.595-7.344s.293,3.672,2.537,1.02,6.995-11.165,7.162-17.437c0,0,2.492.915,2.458-2.756s-3.231-26.619-3.231-26.619Z" transform="translate(109 127.148)" fill="#cfcfcf"/>
      <path id="Caminho_12" data-name="Caminho 12" d="M1661.931,556.371s-.855,20.358-5.474,20.358-6.159-20.358-6.159-20.358h-2.989s-2.148,20.358-8.473,20.358-9.239-20.358-9.239-20.358h-4.211s-2.912,20.358-9.238,20.358-8.473-20.358-8.473-20.358h-2.989s-1.54,20.358-6.159,20.358-5.474-20.358-5.474-20.358h-1.967v29.6H1663.9v-29.6Z" transform="translate(109 127)" fill="#dfaa72"/>
      <ellipse id="Elipse_1" data-name="Elipse 1" cx="2.169" cy="3.105" rx="2.169" ry="3.105" transform="translate(1698.818 678.594)" fill="#dfaa72"/>
      <ellipse id="Elipse_2" data-name="Elipse 2" cx="2.169" cy="3.105" rx="2.169" ry="3.105" transform="translate(1769.733 678.594)" fill="#dfaa72"/>
      <ellipse id="Elipse_3" data-name="Elipse 3" cx="2.776" cy="3.105" rx="2.776" ry="3.105" transform="translate(1712.408 678.594)" fill="#dfaa72"/>
      <ellipse id="Elipse_4" data-name="Elipse 4" cx="2.776" cy="3.105" rx="2.776" ry="3.105" transform="translate(1755.041 678.617)" fill="#dfaa72"/>
      <circle id="Elipse_5" data-name="Elipse 5" cx="3.105" cy="3.105" r="3.105" transform="translate(1733.387 678.594)" fill="#dfaa72"/>
      <path id="Caminho_13" data-name="Caminho 13" d="M1614.04,628.568l15.276-18.633h-11.781l-15.276,18.633Z" transform="translate(109 127.093)" fill="#e6334c"/>
      <path id="Caminho_14" data-name="Caminho 14" d="M1590.713,628.452l15.181-18.517h-11.782l-10.594,12.923A9.321,9.321,0,0,0,1590.713,628.452Z" transform="translate(109 127.093)" fill="#e6334c"/>
      <path id="Caminho_15" data-name="Caminho 15" d="M1652.738,609.935h-11.781l-15.276,18.633h11.781Z" transform="translate(109 127.093)" fill="#e6334c"/>
      <path id="Caminho_16" data-name="Caminho 16" d="M1684.374,703.5s0-12.651-7.591-18.415-24.842-7.16-24.842-7.16-5.884,9.49-24.449,11.478-28.673-3.073-28.926-7.591,3.568-4.817-6.73-11.5-5.08-24.231.18-28.982c8-7.225,14.279-9.037,35.476-9.037v-3.834h-36.779s-16.59,26.192-13.336,41.853-1.266,12.827-4.519,17.588-6.326,22.833-11.025,35.3c-3.61,9.581-12.684,88.453-12.684,88.453l47.618-14.505S1685.262,751.862,1684.374,703.5Z" transform="translate(109 127.409)" fill="#fce8e5"/>
      <path id="Caminho_17" data-name="Caminho 17" d="M1656.418,681.809c.253-4.519-3.568-4.817,6.73-11.5s5.079-24.231-.181-28.982c-8-7.225-14.278-9.037-35.475-9.037v-3.834h36.4s18.375,25.424,14.563,41.853-11.326,19.7-11.326,19.7Z" transform="translate(109 127.147)" fill="#fce8e5"/>
      <path id="Caminho_18" data-name="Caminho 18" d="M1627.492,664.678h-11.7a13.464,13.464,0,0,0,23.41,0Z" transform="translate(109 127.172)" fill="#73262f"/>
      <path id="Caminho_19" data-name="Caminho 19" d="M1652.729,663.536c.9-1.018,2-2.72.735-3.532-.593-.374-2.1.748-3.571,1.3a6.606,6.606,0,0,1-2.553.374s.439-1.3-2.978-.954c-2.4.258-3.133-.039-7.181-2.7-2.814-1.855-5.043-1.82-6.649-1.211a6.963,6.963,0,0,1-3.034,2.406s-3.985-.261-5.6-2.758a8.836,8.836,0,0,0-4.09,1.563c-4.035,2.656-4.77,2.953-7.168,2.7-3.417-.348-2.978.954-2.978.954a6.6,6.6,0,0,1-2.553-.374c-1.47-.554-2.978-1.676-3.571-1.3-1.264.812-.181,2.514.734,3.532,0,0-1.07.155.142,2.037s5.918,3.262,8.883,3.017c0,0-.838.426-.477.916s4.719,2.05,10.817-1.212c0,0-.361,1.083,1.277,1.328.954.142,3.352-1.29,4.589-4.216,1.238,2.926,3.636,4.358,4.59,4.216,1.638-.245,1.277-1.328,1.277-1.328,6.1,3.262,10.456,1.689,10.817,1.212s-.477-.916-.477-.916c2.952.245,7.671-1.147,8.883-3.017s.141-2.037.141-2.037" transform="translate(109 127.164)" fill="#cfcfcf"/>
      <path id="Caminho_20" data-name="Caminho 20" d="M1587.858,697.352s13.872,15,41.458,7.23c18.181-5.122,32.186-16.287,39.624-23.306a67.9,67.9,0,0,0-8.649-2.174c-.007.009-14.058,16.806-32.4,22.227S1591.653,701.329,1587.858,697.352Z" transform="translate(109 127.211)" fill="#ccb076"/>
      <path id="Caminho_21" data-name="Caminho 21" d="M1680.375,689.039a15.333,15.333,0,0,0-3.592-3.957,20.077,20.077,0,0,0-3.288-1.982s-14.244,33.728-40.812,42.155-47.535-8.564-47.535-8.564,22.5,20.989,49.025,12.393C1657.485,721.528,1670.359,705.953,1680.375,689.039Z" transform="translate(109 127.237)" fill="#ccb076"/>
      <path id="Caminho_22" data-name="Caminho 22" d="M1664.427,639.714c-6.243-5.64-11.58-8.14-22.135-9.093,0,0-6.121-.478-14.794-.478s-14.812.478-14.812.478c-10.555.953-15.891,3.453-22.135,9.093-3.737,3.374-7.374,12-6.735,20.042.436,5.474,2.8,9.751,6.827,12.368,3.32,2.157,5.277,3.725,5.98,4.8.33.5.314.658.085,1.743a11.78,11.78,0,0,0-.319,3.267c.332,5.937,9.845,10.083,23.132,10.083a77.428,77.428,0,0,0,8.19-.456c15.752-1.688,22.934-8.593,25.218-11.356.175-.148,1.531-2.006,1.531-2.006l-2.531-.273s-5.884,9.49-24.449,11.478-28.673-3.073-28.926-7.591,3.568-4.817-6.73-11.5-5.08-24.231.18-28.982c8-7.225,14.279-9.037,35.494-9.037,21.2,0,27.476,1.812,35.476,9.037,5.26,4.751,10.479,22.295.181,28.982-6.977,4.53-7.472,6.129-7.145,8.093.7.1,1.462.215,2.278.349l-.018-.084c-.228-1.085-.245-1.242.085-1.743.7-1.071,2.66-2.639,5.981-4.8,4.03-2.617,6.39-6.894,6.826-12.368C1671.8,651.711,1668.164,643.088,1664.427,639.714Z" transform="translate(109 127.151)" fill="#dfaa72"/>
      <path id="Caminho_23" data-name="Caminho 23" d="M1610.913,641.406c-2.309,0-3.883,2.1-3.883,5.72,0,3.124,1.074,5.72,3.62,5.72,3.056,0,3.622-3.413,3.622-5.333C1614.272,644.01,1613.052,641.406,1610.913,641.406Z" transform="translate(109 127.139)" fill="#73262f"/>
      <path id="Caminho_24" data-name="Caminho 24" d="M1643.95,641.406c-2.309,0-3.885,1.574-3.883,5.923,0,3.125,1.6,5.517,3.62,5.517,3.056,0,3.622-3.23,3.622-5.15C1647.309,644.01,1646.089,641.406,1643.95,641.406Z" transform="translate(109 127.139)" fill="#73262f"/>
      <path id="Caminho_25" data-name="Caminho 25" d="M1622.734,647.8l-.885,2.261a9.652,9.652,0,0,0-.8,2.925,5.378,5.378,0,0,0,2.7,4.8,6.6,6.6,0,0,0,5.592.349c.82-.314,3.771-2.4,4.111-3.213" transform="translate(109 127.149)" fill="none" stroke="#692131" stroke-miterlimit="10" stroke-width="0.376"/>
      <path id="Caminho_26" data-name="Caminho 26" d="M1623.321,637.762c0-1.275.206-7.314-5.879-8.694s-6.279,1.767-6.279,1.767-6.291-2.875-7.658,1.315c0,0-9.231,2.191-7.465,9.256a41.624,41.624,0,0,1,13.529-4.146C1614.969,636.656,1620.519,636.815,1623.321,637.762Z" transform="translate(109 127.12)" fill="#cfcfcf"/>
      <path id="Caminho_27" data-name="Caminho 27" d="M1632.091,637.762c0-1.275-.206-7.314,5.879-8.694s6.279,1.767,6.279,1.767,6.291-2.875,7.658,1.315c0,0,9.231,2.191,7.465,9.256a41.624,41.624,0,0,0-13.529-4.146C1640.444,636.656,1634.893,636.815,1632.091,637.762Z" transform="translate(109 127.12)" fill="#cfcfcf"/>
    </g>
  </g>
</svg>
