<svg xmlns="http://www.w3.org/2000/svg" width="191.823" height="200.286" viewBox="0 0 191.823 200.286">
  <g id="Grupo_11" data-name="Grupo 11" transform="translate(-2710.44 -494.794)">
    <path id="Caminho_1" data-name="Caminho 1" d="M2721.681,695.08h14.356l70.306-127.969,70.321,127.969h14.358l-77.5-141.034.065-.118-.187-.1-3.269-5.949-3.789,2.078-3.789-2.078-3.268,5.948-.187.1.066.12Z" fill="#ececec"/>
    <g id="Grupo_1" data-name="Grupo 1">
      <path id="Caminho_2" data-name="Caminho 2" d="M2814.048,510.34a.775.775,0,0,0-.775-.775H2809.1a.775.775,0,0,0-.775.775v3.325a.775.775,0,0,1-.776.775h-2.4a.775.775,0,0,1-.776-.775V510.34a.775.775,0,0,0-.775-.775h-4.173a.775.775,0,0,0-.775.775V513.6a10.731,10.731,0,0,0,15.393,0Z" fill="#dfaa72"/>
      <rect id="Retângulo_1" data-name="Retângulo 1" width="0.916" height="14.87" transform="translate(2805.894 500.822)" fill="#dfaa72"/>
      <path id="Caminho_3" data-name="Caminho 3" d="M2815.413,503.967a12.634,12.634,0,0,0-18.123,0Z" fill="#e7344c"/>
    </g>
    <g id="Grupo_2" data-name="Grupo 2">
      <path id="Caminho_4" data-name="Caminho 4" d="M2814.048,684.039a.775.775,0,0,0-.775-.774H2809.1a.775.775,0,0,0-.775.774v3.326a.775.775,0,0,1-.776.775h-2.4a.775.775,0,0,1-.776-.775v-3.326a.775.775,0,0,0-.775-.774h-4.173a.775.775,0,0,0-.775.774v3.26a10.731,10.731,0,0,0,15.393,0Z" fill="#dfaa72"/>
      <rect id="Retângulo_2" data-name="Retângulo 2" width="0.916" height="14.87" transform="translate(2805.894 674.521)" fill="#dfaa72"/>
      <path id="Caminho_5" data-name="Caminho 5" d="M2815.413,677.666a12.637,12.637,0,0,0-18.123,0Z" fill="#e7344c"/>
    </g>
    <g id="Grupo_3" data-name="Grupo 3">
      <path id="Caminho_6" data-name="Caminho 6" d="M2727.2,597.19a.775.775,0,0,0-.775-.775h-4.173a.775.775,0,0,0-.775.775v3.325a.775.775,0,0,1-.775.775h-2.4a.775.775,0,0,1-.776-.775V597.19a.775.775,0,0,0-.775-.775h-4.173a.775.775,0,0,0-.775.775v3.259a10.731,10.731,0,0,0,15.393,0Z" fill="#dfaa72"/>
      <rect id="Retângulo_3" data-name="Retângulo 3" width="0.916" height="14.87" transform="translate(2719.044 587.671)" fill="#dfaa72"/>
      <path id="Caminho_7" data-name="Caminho 7" d="M2728.563,590.817a12.634,12.634,0,0,0-18.123,0Z" fill="#e7344c"/>
    </g>
    <g id="Grupo_4" data-name="Grupo 4">
      <path id="Caminho_8" data-name="Caminho 8" d="M2900.9,597.19a.775.775,0,0,0-.775-.775h-4.173a.775.775,0,0,0-.775.775v3.325a.775.775,0,0,1-.776.775H2892a.775.775,0,0,1-.775-.775V597.19a.775.775,0,0,0-.775-.775h-4.173a.775.775,0,0,0-.775.775v3.259a10.731,10.731,0,0,0,15.393,0Z" fill="#dfaa72"/>
      <rect id="Retângulo_4" data-name="Retângulo 4" width="0.916" height="14.87" transform="translate(2892.743 587.671)" fill="#dfaa72"/>
      <path id="Caminho_9" data-name="Caminho 9" d="M2902.263,590.817a12.634,12.634,0,0,0-18.123,0Z" fill="#e7344c"/>
    </g>
    <g id="Grupo_5" data-name="Grupo 5">
      <path id="Caminho_10" data-name="Caminho 10" d="M2752.636,535.778a.775.775,0,0,0-.775-.775h-4.173a.775.775,0,0,0-.775.775V539.1a.775.775,0,0,1-.776.775h-2.4a.775.775,0,0,1-.776-.775v-3.325a.775.775,0,0,0-.775-.775h-4.173a.775.775,0,0,0-.775.775v3.259a10.731,10.731,0,0,0,15.393,0Z" fill="#dfaa72"/>
      <rect id="Retângulo_5" data-name="Retângulo 5" width="0.916" height="14.87" transform="translate(2744.481 526.259)" fill="#dfaa72"/>
      <path id="Caminho_11" data-name="Caminho 11" d="M2754,529.405a12.634,12.634,0,0,0-18.123,0Z" fill="#e7344c"/>
    </g>
    <g id="Grupo_6" data-name="Grupo 6">
      <path id="Caminho_12" data-name="Caminho 12" d="M2875.46,658.6a.775.775,0,0,0-.775-.775h-4.173a.775.775,0,0,0-.775.775v3.325a.775.775,0,0,1-.776.775h-2.4a.775.775,0,0,1-.776-.775V658.6a.775.775,0,0,0-.775-.775h-4.173a.775.775,0,0,0-.775.775v3.259a10.731,10.731,0,0,0,15.393,0Z" fill="#dfaa72"/>
      <rect id="Retângulo_6" data-name="Retângulo 6" width="0.916" height="14.87" transform="translate(2867.306 649.083)" fill="#dfaa72"/>
      <path id="Caminho_13" data-name="Caminho 13" d="M2876.825,652.229a12.634,12.634,0,0,0-18.123,0Z" fill="#e7344c"/>
    </g>
    <g id="Grupo_7" data-name="Grupo 7">
      <path id="Caminho_14" data-name="Caminho 14" d="M2752.636,658.6a.775.775,0,0,0-.775-.775h-4.173a.775.775,0,0,0-.775.775v3.325a.775.775,0,0,1-.776.775h-2.4a.775.775,0,0,1-.776-.775V658.6a.775.775,0,0,0-.775-.775h-4.173a.775.775,0,0,0-.775.775v3.259a10.731,10.731,0,0,0,15.393,0Z" fill="#dfaa72"/>
      <rect id="Retângulo_7" data-name="Retângulo 7" width="0.916" height="14.87" transform="translate(2744.481 649.083)" fill="#dfaa72"/>
      <path id="Caminho_15" data-name="Caminho 15" d="M2754,652.229a12.634,12.634,0,0,0-18.123,0Z" fill="#e7344c"/>
    </g>
    <g id="Grupo_8" data-name="Grupo 8">
      <path id="Caminho_16" data-name="Caminho 16" d="M2875.46,535.778a.775.775,0,0,0-.775-.775h-4.173a.775.775,0,0,0-.775.775V539.1a.775.775,0,0,1-.776.775h-2.4a.775.775,0,0,1-.776-.775v-3.325a.775.775,0,0,0-.775-.775h-4.173a.775.775,0,0,0-.775.775v3.259a10.731,10.731,0,0,0,15.393,0Z" fill="#dfaa72"/>
      <rect id="Retângulo_8" data-name="Retângulo 8" width="0.916" height="14.87" transform="translate(2867.306 526.259)" fill="#dfaa72"/>
      <path id="Caminho_17" data-name="Caminho 17" d="M2876.825,529.405a12.634,12.634,0,0,0-18.123,0Z" fill="#e7344c"/>
    </g>
    <path id="Caminho_18" data-name="Caminho 18" d="M2806.347,494.794a89.02,89.02,0,1,0,89.02,89.019A89.02,89.02,0,0,0,2806.347,494.794Zm85.038,89.019a84.818,84.818,0,0,1-6.036,31.52l-76.4-31.647,76.313-31.61A84.792,84.792,0,0,1,2891.385,583.813Zm-6.889-33.571-76.31,31.609,31.585-76.251A85.335,85.335,0,0,1,2884.5,550.242Zm-46.56-45.4-31.584,76.25-31.586-76.254a85.3,85.3,0,0,1,63.17,0Zm-65.005.755,31.586,76.255L2728.2,550.239A85.334,85.334,0,0,1,2772.931,505.6Zm-45.495,46.476,76.322,31.614-76.412,31.65a85.288,85.288,0,0,1,.09-63.264Zm.667,65.1,76.414-31.652-31.676,76.473A85.339,85.339,0,0,1,2728.1,617.172Zm46.572,45.581,31.677-76.473,31.675,76.47a85.287,85.287,0,0,1-63.352,0Zm65.186-.764-31.675-76.469,76.405,31.648A85.335,85.335,0,0,1,2839.861,661.989Z" fill="#fff"/>
    <g id="Grupo_10" data-name="Grupo 10">
      <circle id="Elipse_1" data-name="Elipse 1" cx="45.259" cy="45.259" r="45.259" transform="translate(2751.899 550.164) rotate(-13.283)" fill="#e7344c"/>
      <circle id="Elipse_2" data-name="Elipse 2" cx="33.376" cy="33.376" r="33.376" transform="translate(2766.196 558.999) rotate(-13.283)" fill="#dfaa72"/>
      <circle id="Elipse_3" data-name="Elipse 3" cx="29.766" cy="29.766" r="29.766" transform="matrix(0.973, -0.23, 0.23, 0.973, 2770.538, 561.683)" fill="#e7344c"/>
      <g id="Grupo_9" data-name="Grupo 9">
        <path id="Caminho_19" data-name="Caminho 19" d="M2806.347,578.742l14.345-10.288L2810.4,582.8l10.287,14.345-14.345-10.288L2792,597.144l10.288-14.345L2792,568.455Z" fill="#dfaa72"/>
        <path id="Caminho_20" data-name="Caminho 20" d="M2809.216,579.931l17.418,2.869-17.418,2.869-2.869,25.532-2.869-25.532L2786.06,582.8l17.418-2.869,2.869-23.5Z" fill="#fff"/>
      </g>
    </g>
  </g>
</svg>
