<svg xmlns="http://www.w3.org/2000/svg" width="159.279" height="149.767" viewBox="0 0 159.279 149.767">
  <g id="Grupo_13" data-name="Grupo 13" transform="translate(-981.53 -538.405)">
    <path id="Caminho_1" data-name="Caminho 1" d="M1128.285,585.284a11.944,11.944,0,0,1-8.113-3.324,15.76,15.76,0,0,1-2.861-3.388l-.186-.322h-5.838V560.6h.7v-1.888h1.321V557.8h.7v-1.854h-2.443a1.68,1.68,0,0,0-1.1-1.467l-.041-.245s.409-.164.866-1.024.157-2.251.157-2.9a1.408,1.408,0,0,1,.778-1.36c.45-.163.45-.368.45-.368-.041-.655-1.8-.819-3.234-.819s-3.193.164-3.234.819c0,0,0,.205.45.368a1.406,1.406,0,0,1,.778,1.36c0,.647-.3,2.038.157,2.9s.867,1.024.867,1.024l-.041.245a1.681,1.681,0,0,0-1.106,1.467h-2.6l-43.542-17.007h0l-43.543,17.007h-2.6a1.681,1.681,0,0,0-1.106-1.467l-.041-.245s.41-.164.867-1.024.157-2.251.157-2.9a1.406,1.406,0,0,1,.778-1.36c.45-.163.45-.368.45-.368-.041-.655-1.8-.819-3.234-.819s-3.193.164-3.234.819c0,0,0,.205.45.368a1.408,1.408,0,0,1,.778,1.36c0,.647-.3,2.038.157,2.9s.866,1.024.866,1.024l-.041.245a1.68,1.68,0,0,0-1.105,1.467h-2.443V557.8h.7v.914h1.321V560.6h.7v17.644h-5.838l-.186.322a15.761,15.761,0,0,1-2.861,3.388,11.942,11.942,0,0,1-8.113,3.324H982.03v33.235h0v3.265h0v66.388h71.763V671.279h0V668.7h0V641.132a7.377,7.377,0,0,1,14.753,0v47.04h71.763V585.284Zm-86.7-7.031V608h-17.867V578.253Zm16.826-27.607a2.763,2.763,0,0,1,2.76-2.759h0a2.759,2.759,0,0,1,0,5.519h0A2.763,2.763,0,0,1,1058.41,550.646Zm-6.189,27.607h17.9v40.266h-17.9Zm46.4,0V608h-17.867V578.253Zm-16.31,62.879a7.376,7.376,0,0,1,14.753,0V668.7h-14.753Zm28.519,0a7.376,7.376,0,0,1,14.753,0V668.7h-14.753Zm-114.076,0a7.376,7.376,0,0,1,14.753,0V668.7H996.755Zm28.519,0a7.376,7.376,0,0,1,14.753,0V668.7h-14.753Z" fill="#73202c"/>
    <g id="Grupo_12" data-name="Grupo 12">
      <path id="Caminho_2" data-name="Caminho 2" d="M1061.17,553.406h0a2.759,2.759,0,1,1,0-5.519h0a2.759,2.759,0,0,1,0,5.519Z" fill="none" stroke="#dfaa72" stroke-linecap="round" stroke-miterlimit="10" stroke-width="1" stroke-dasharray="0.1 1.5"/>
      <rect id="Retângulo_1" data-name="Retângulo 1" width="71.763" height="2.576" transform="translate(982.03 668.703)" fill="none" stroke="#dfaa72" stroke-linecap="round" stroke-miterlimit="10" stroke-width="1" stroke-dasharray="0.1 1.5"/>
      <rect id="Retângulo_2" data-name="Retângulo 2" width="21.981" height="8.465" transform="translate(1021.6 610.055)" fill="none" stroke="#dfaa72" stroke-linecap="round" stroke-miterlimit="10" stroke-width="1" stroke-dasharray="0.1 1.5"/>
      <path id="Caminho_3" data-name="Caminho 3" d="M1023.02,610.055v8.465h19.261v-8.465" fill="none" stroke="#dfaa72" stroke-linecap="round" stroke-miterlimit="10" stroke-width="1" stroke-dasharray="0.1 1.5"/>
      <rect id="Retângulo_3" data-name="Retângulo 3" width="2.74" height="16.496" transform="translate(1040.838 612.917) rotate(90)" fill="none" stroke="#dfaa72" stroke-linecap="round" stroke-miterlimit="10" stroke-width="1" stroke-dasharray="0.1 1.5"/>
      <rect id="Retângulo_4" data-name="Retângulo 4" width="25.194" height="1.727" transform="translate(1020.053 570.744)" fill="none" stroke="#dfaa72" stroke-linecap="round" stroke-miterlimit="10" stroke-width="1" stroke-dasharray="0.1 1.5"/>
      <rect id="Retângulo_5" data-name="Retângulo 5" width="20.263" height="1.505" transform="translate(1022.519 573.432)" fill="none" stroke="#dfaa72" stroke-linecap="round" stroke-miterlimit="10" stroke-width="1" stroke-dasharray="0.1 1.5"/>
      <g id="Grupo_1" data-name="Grupo 1">
        <path id="Caminho_4" data-name="Caminho 4" d="M1024.172,570.744a12.168,12.168,0,0,1,16.957,0h3.053a14.465,14.465,0,0,0-23.064,0Z" fill="none" stroke="#dfaa72" stroke-linecap="round" stroke-miterlimit="10" stroke-width="1" stroke-dasharray="0.1 1.5"/>
      </g>
      <path id="Caminho_5" data-name="Caminho 5" d="M994.054,586.574H982.03v-1.29h12.024a11.937,11.937,0,0,0,8.113-3.324,15.761,15.761,0,0,0,2.861-3.388l.186-.322h5.838v1.29h-5.106a17.522,17.522,0,0,1-2.884,3.351A13.376,13.376,0,0,1,994.054,586.574Z" fill="none" stroke="#dfaa72" stroke-linecap="round" stroke-miterlimit="10" stroke-width="1" stroke-dasharray="0.1 1.5"/>
      <path id="Caminho_6" data-name="Caminho 6" d="M1011.052,581.139h-4.267a19.471,19.471,0,0,1-2.651,2.938,15.006,15.006,0,0,1-9.73,4.092v28.174h16.648Z" fill="none" stroke="#dfaa72" stroke-linecap="round" stroke-miterlimit="10" stroke-width="1" stroke-dasharray="0.1 1.5"/>
      <g id="Grupo_2" data-name="Grupo 2">
        <path id="Caminho_7" data-name="Caminho 7" d="M1011.052,579.539h-5.106a17.522,17.522,0,0,1-2.884,3.351,13.376,13.376,0,0,1-9.008,3.684h-.407v31.945h17.405Z" fill="none" stroke="#dfaa72" stroke-linecap="round" stroke-miterlimit="10" stroke-width="1" stroke-dasharray="0.1 1.5"/>
      </g>
      <rect id="Retângulo_6" data-name="Retângulo 6" width="17.286" height="5.321" transform="translate(1024.007 672.568)" fill="none" stroke="#dfaa72" stroke-linecap="round" stroke-miterlimit="10" stroke-width="1" stroke-dasharray="0.1 1.5"/>
      <rect id="Retângulo_7" data-name="Retângulo 7" width="17.286" height="5.321" transform="translate(995.488 672.568)" fill="none" stroke="#dfaa72" stroke-linecap="round" stroke-miterlimit="10" stroke-width="1" stroke-dasharray="0.1 1.5"/>
      <g id="Grupo_3" data-name="Grupo 3">
        <path id="Caminho_8" data-name="Caminho 8" d="M1045.6,639.673h2.61a13.034,13.034,0,0,1,5.329-9.108h-13.268A13.033,13.033,0,0,1,1045.6,639.673Z" fill="none" stroke="#dfaa72" stroke-linecap="round" stroke-miterlimit="10" stroke-width="1" stroke-dasharray="0.1 1.5"/>
      </g>
      <path id="Caminho_9" data-name="Caminho 9" d="M1073.758,640.076" fill="none" stroke="#dfaa72" stroke-linecap="round" stroke-miterlimit="10" stroke-width="1" stroke-dasharray="0.1 1.5"/>
      <g id="Grupo_4" data-name="Grupo 4">
        <path id="Caminho_10" data-name="Caminho 10" d="M1017.086,639.673h2.61a13.034,13.034,0,0,1,5.329-9.108h-13.268A13.036,13.036,0,0,1,1017.086,639.673Z" fill="none" stroke="#dfaa72" stroke-linecap="round" stroke-miterlimit="10" stroke-width="1" stroke-dasharray="0.1 1.5"/>
      </g>
      <g id="Grupo_5" data-name="Grupo 5">
        <path id="Caminho_11" data-name="Caminho 11" d="M986.291,640.021l4.886-.348a13.036,13.036,0,0,1,5.328-9.108l-10.214.347Z" fill="none" stroke="#dfaa72" stroke-linecap="round" stroke-miterlimit="10" stroke-width="1" stroke-dasharray="0.1 1.5"/>
      </g>
      <rect id="Retângulo_8" data-name="Retângulo 8" width="10.942" height="1.411" transform="translate(1041.439 667.292)" fill="none" stroke="#dfaa72" stroke-linecap="round" stroke-miterlimit="10" stroke-width="1" stroke-dasharray="0.1 1.5"/>
      <path id="Caminho_12" data-name="Caminho 12" d="M1051.279,667.292V642.134h-8.739v25.158" fill="none" stroke="#dfaa72" stroke-linecap="round" stroke-miterlimit="10" stroke-width="1" stroke-dasharray="0.1 1.5"/>
      <rect id="Retângulo_9" data-name="Retângulo 9" width="10.942" height="1.411" transform="translate(1012.92 667.292)" fill="none" stroke="#dfaa72" stroke-linecap="round" stroke-miterlimit="10" stroke-width="1" stroke-dasharray="0.1 1.5"/>
      <path id="Caminho_13" data-name="Caminho 13" d="M1022.76,667.292V642.134h-8.739v25.158" fill="none" stroke="#dfaa72" stroke-linecap="round" stroke-miterlimit="10" stroke-width="1" stroke-dasharray="0.1 1.5"/>
      <rect id="Retângulo_10" data-name="Retângulo 10" width="10.942" height="1.411" transform="translate(984.401 667.292)" fill="none" stroke="#dfaa72" stroke-linecap="round" stroke-miterlimit="10" stroke-width="1" stroke-dasharray="0.1 1.5"/>
      <path id="Caminho_14" data-name="Caminho 14" d="M994.241,667.292V642.134H985.5v25.158" fill="none" stroke="#dfaa72" stroke-linecap="round" stroke-miterlimit="10" stroke-width="1" stroke-dasharray="0.1 1.5"/>
      <rect id="Retângulo_11" data-name="Retângulo 11" width="7.162" height="7.29" transform="translate(1043.329 672.004)" fill="none" stroke="#dfaa72" stroke-linecap="round" stroke-miterlimit="10" stroke-width="1" stroke-dasharray="0.1 1.5"/>
      <rect id="Retângulo_12" data-name="Retângulo 12" width="7.162" height="7.29" transform="translate(1014.81 672.004)" fill="none" stroke="#dfaa72" stroke-linecap="round" stroke-miterlimit="10" stroke-width="1" stroke-dasharray="0.1 1.5"/>
      <rect id="Retângulo_13" data-name="Retângulo 13" width="7.162" height="7.29" transform="translate(986.291 672.004)" fill="none" stroke="#dfaa72" stroke-linecap="round" stroke-miterlimit="10" stroke-width="1" stroke-dasharray="0.1 1.5"/>
      <path id="Caminho_15" data-name="Caminho 15" d="M1041.439,642.134v-1.411h10.943v1.411" fill="none" stroke="#dfaa72" stroke-linecap="round" stroke-miterlimit="10" stroke-width="1" stroke-dasharray="0.1 1.5"/>
      <path id="Caminho_16" data-name="Caminho 16" d="M1012.92,642.134v-1.411h10.942v1.411" fill="none" stroke="#dfaa72" stroke-linecap="round" stroke-miterlimit="10" stroke-width="1" stroke-dasharray="0.1 1.5"/>
      <path id="Caminho_17" data-name="Caminho 17" d="M1032.65,629.871a11.275,11.275,0,0,0-11.253,10.852h1.372a9.889,9.889,0,0,1,19.762,0h1.373A11.275,11.275,0,0,0,1032.65,629.871Z" fill="none" stroke="#dfaa72" stroke-linecap="round" stroke-miterlimit="10" stroke-width="1" stroke-dasharray="0.1 1.5"/>
      <path id="Caminho_18" data-name="Caminho 18" d="M983.9,642.134v-1.411h10.942v1.411" fill="none" stroke="#dfaa72" stroke-linecap="round" stroke-miterlimit="10" stroke-width="1" stroke-dasharray="0.1 1.5"/>
      <path id="Caminho_19" data-name="Caminho 19" d="M1004.131,629.871a11.274,11.274,0,0,0-11.253,10.852h1.372a9.889,9.889,0,0,1,19.762,0h1.372A11.273,11.273,0,0,0,1004.131,629.871Z" fill="none" stroke="#dfaa72" stroke-linecap="round" stroke-miterlimit="10" stroke-width="1" stroke-dasharray="0.1 1.5"/>
      <circle id="Elipse_1" data-name="Elipse 1" cx="4.019" cy="4.019" r="4.019" transform="translate(998.33 593.774)" fill="none" stroke="#dfaa72" stroke-linecap="round" stroke-miterlimit="10" stroke-width="1" stroke-dasharray="0.1 1.5"/>
      <circle id="Elipse_2" data-name="Elipse 2" cx="2.49" cy="2.49" r="2.49" transform="translate(999.859 595.303)" fill="none" stroke="#dfaa72" stroke-linecap="round" stroke-miterlimit="10" stroke-width="1" stroke-dasharray="0.1 1.5"/>
      <path id="Caminho_20" data-name="Caminho 20" d="M1061.17,544.317h0l-32.394,12.615h64.787Zm0,11.406h-25.956l25.956-10.109h0l25.955,10.109Z" fill="none" stroke="#dfaa72" stroke-linecap="round" stroke-miterlimit="10" stroke-width="1" stroke-dasharray="0.1 1.5"/>
      <path id="Caminho_21" data-name="Caminho 21" d="M1061.17,546.677h0a3.969,3.969,0,1,0,0,7.938h0a3.969,3.969,0,0,0,0-7.938Zm0,6.729h0a2.759,2.759,0,1,1,0-5.519h0a2.759,2.759,0,0,1,0,5.519Z" fill="none" stroke="#dfaa72" stroke-linecap="round" stroke-miterlimit="10" stroke-width="1" stroke-dasharray="0.1 1.5"/>
      <path id="Caminho_22" data-name="Caminho 22" d="M1061.17,558.717h-50.817V560.6h101.633v-1.888Z" fill="none" stroke="#dfaa72" stroke-linecap="round" stroke-miterlimit="10" stroke-width="1" stroke-dasharray="0.1 1.5"/>
      <path id="Caminho_23" data-name="Caminho 23" d="M1104.712,555.948l-43.542-17.007h0l-43.542,17.007h-9.3V557.8h9.647l43.193-16.87h0l43.193,16.87h9.647v-1.854Z" fill="none" stroke="#dfaa72" stroke-linecap="round" stroke-miterlimit="10" stroke-width="1" stroke-dasharray="0.1 1.5"/>
      <rect id="Retângulo_14" data-name="Retângulo 14" width="158.279" height="2.576" transform="translate(982.03 626.145)" fill="none" stroke="#dfaa72" stroke-linecap="round" stroke-miterlimit="10" stroke-width="1" stroke-dasharray="0.1 1.5"/>
      <rect id="Retângulo_15" data-name="Retângulo 15" width="71.763" height="2.576" transform="translate(1140.309 671.279) rotate(180)" fill="none" stroke="#dfaa72" stroke-linecap="round" stroke-miterlimit="10" stroke-width="1" stroke-dasharray="0.1 1.5"/>
      <rect id="Retângulo_16" data-name="Retângulo 16" width="21.981" height="8.465" transform="translate(1100.739 618.519) rotate(180)" fill="none" stroke="#dfaa72" stroke-linecap="round" stroke-miterlimit="10" stroke-width="1" stroke-dasharray="0.1 1.5"/>
      <path id="Caminho_24" data-name="Caminho 24" d="M1099.319,610.055v8.465h-19.261v-8.465" fill="none" stroke="#dfaa72" stroke-linecap="round" stroke-miterlimit="10" stroke-width="1" stroke-dasharray="0.1 1.5"/>
      <rect id="Retângulo_17" data-name="Retângulo 17" width="2.74" height="16.496" transform="translate(1097.997 612.917) rotate(90)" fill="none" stroke="#dfaa72" stroke-linecap="round" stroke-miterlimit="10" stroke-width="1" stroke-dasharray="0.1 1.5"/>
      <rect id="Retângulo_18" data-name="Retângulo 18" width="25.194" height="1.727" transform="translate(1102.286 572.471) rotate(180)" fill="none" stroke="#dfaa72" stroke-linecap="round" stroke-miterlimit="10" stroke-width="1" stroke-dasharray="0.1 1.5"/>
      <rect id="Retângulo_19" data-name="Retângulo 19" width="20.263" height="1.505" transform="translate(1099.82 574.937) rotate(180)" fill="none" stroke="#dfaa72" stroke-linecap="round" stroke-miterlimit="10" stroke-width="1" stroke-dasharray="0.1 1.5"/>
      <g id="Grupo_6" data-name="Grupo 6">
        <path id="Caminho_25" data-name="Caminho 25" d="M1098.167,570.744a12.168,12.168,0,0,0-16.957,0h-3.053a14.465,14.465,0,0,1,23.064,0Z" fill="none" stroke="#dfaa72" stroke-linecap="round" stroke-miterlimit="10" stroke-width="1" stroke-dasharray="0.1 1.5"/>
      </g>
      <g id="Grupo_7" data-name="Grupo 7">
        <path id="Caminho_26" data-name="Caminho 26" d="M1100.679,610.055V576.2H1078.7v33.859m2.057-31.8h17.867V608h-17.867Z" fill="none" stroke="#dfaa72" stroke-linecap="round" stroke-miterlimit="10" stroke-width="1" stroke-dasharray="0.1 1.5"/>
        <path id="Caminho_27" data-name="Caminho 27" d="M1050.164,576.2v42.324h2.057V578.252h17.9v40.267h2.057V576.2Z" fill="none" stroke="#dfaa72" stroke-linecap="round" stroke-miterlimit="10" stroke-width="1" stroke-dasharray="0.1 1.5"/>
        <path id="Caminho_28" data-name="Caminho 28" d="M1043.641,610.055V576.2H1021.66v33.859m2.057-31.8h17.867V608h-17.867Z" fill="none" stroke="#dfaa72" stroke-linecap="round" stroke-miterlimit="10" stroke-width="1" stroke-dasharray="0.1 1.5"/>
      </g>
      <path id="Caminho_29" data-name="Caminho 29" d="M1061.17,570.744h-12.613v1.727h25.225v-1.727Z" fill="none" stroke="#dfaa72" stroke-linecap="round" stroke-miterlimit="10" stroke-width="1" stroke-dasharray="0.1 1.5"/>
      <path id="Caminho_30" data-name="Caminho 30" d="M1051.023,573.432v1.5h20.293v-1.5Z" fill="none" stroke="#dfaa72" stroke-linecap="round" stroke-miterlimit="10" stroke-width="1" stroke-dasharray="0.1 1.5"/>
      <path id="Caminho_31" data-name="Caminho 31" d="M1061.17,565.011a14.449,14.449,0,0,0-11.548,5.733h3.054a12.205,12.205,0,0,1,16.987,0h3.054A14.449,14.449,0,0,0,1061.17,565.011Z" fill="none" stroke="#dfaa72" stroke-linecap="round" stroke-miterlimit="10" stroke-width="1" stroke-dasharray="0.1 1.5"/>
      <path id="Caminho_32" data-name="Caminho 32" d="M1128.285,586.574h12.024v-1.29h-12.024a11.939,11.939,0,0,1-8.113-3.324,15.76,15.76,0,0,1-2.861-3.388l-.186-.322h-5.838v1.29h5.107a17.468,17.468,0,0,0,2.883,3.351A13.376,13.376,0,0,0,1128.285,586.574Z" fill="none" stroke="#dfaa72" stroke-linecap="round" stroke-miterlimit="10" stroke-width="1" stroke-dasharray="0.1 1.5"/>
      <path id="Caminho_33" data-name="Caminho 33" d="M1111.287,581.139h4.267a19.485,19.485,0,0,0,2.651,2.938,15.007,15.007,0,0,0,9.73,4.092v28.174h-16.648Z" fill="none" stroke="#dfaa72" stroke-linecap="round" stroke-miterlimit="10" stroke-width="1" stroke-dasharray="0.1 1.5"/>
      <g id="Grupo_8" data-name="Grupo 8">
        <path id="Caminho_34" data-name="Caminho 34" d="M1111.287,579.539h5.107a17.468,17.468,0,0,0,2.883,3.351,13.376,13.376,0,0,0,9.008,3.684h.407v31.945h-17.405Z" fill="none" stroke="#dfaa72" stroke-linecap="round" stroke-miterlimit="10" stroke-width="1" stroke-dasharray="0.1 1.5"/>
      </g>
      <path id="Caminho_35" data-name="Caminho 35" d="M1049.71,605.92v12.6h22.92v-12.6Z" fill="none" stroke="#dfaa72" stroke-linecap="round" stroke-miterlimit="10" stroke-width="1" stroke-dasharray="0.1 1.5"/>
      <rect id="Retângulo_20" data-name="Retângulo 20" width="17.286" height="5.321" transform="translate(1098.332 677.889) rotate(180)" fill="none" stroke="#dfaa72" stroke-linecap="round" stroke-miterlimit="10" stroke-width="1" stroke-dasharray="0.1 1.5"/>
      <rect id="Retângulo_21" data-name="Retângulo 21" width="17.286" height="5.321" transform="translate(1126.851 677.889) rotate(180)" fill="none" stroke="#dfaa72" stroke-linecap="round" stroke-miterlimit="10" stroke-width="1" stroke-dasharray="0.1 1.5"/>
      <g id="Grupo_9" data-name="Grupo 9">
        <path id="Caminho_36" data-name="Caminho 36" d="M1074.124,639.673h2.61a13.033,13.033,0,0,1,5.329-9.108H1068.8A13.034,13.034,0,0,1,1074.124,639.673Z" fill="none" stroke="#dfaa72" stroke-linecap="round" stroke-miterlimit="10" stroke-width="1" stroke-dasharray="0.1 1.5"/>
      </g>
      <g id="Grupo_10" data-name="Grupo 10">
        <path id="Caminho_37" data-name="Caminho 37" d="M1102.643,639.673h2.61a13.035,13.035,0,0,1,5.329-9.108h-13.267A13.035,13.035,0,0,1,1102.643,639.673Z" fill="none" stroke="#dfaa72" stroke-linecap="round" stroke-miterlimit="10" stroke-width="1" stroke-dasharray="0.1 1.5"/>
      </g>
      <g id="Grupo_11" data-name="Grupo 11">
        <path id="Caminho_38" data-name="Caminho 38" d="M1131.162,639.673h5.388v-9.108h-10.716A13.036,13.036,0,0,1,1131.162,639.673Z" fill="none" stroke="#dfaa72" stroke-linecap="round" stroke-miterlimit="10" stroke-width="1" stroke-dasharray="0.1 1.5"/>
      </g>
      <rect id="Retângulo_22" data-name="Retângulo 22" width="10.942" height="1.411" transform="translate(1080.9 668.703) rotate(180)" fill="none" stroke="#dfaa72" stroke-linecap="round" stroke-miterlimit="10" stroke-width="1" stroke-dasharray="0.1 1.5"/>
      <path id="Caminho_39" data-name="Caminho 39" d="M1071.06,667.292V642.134h8.739v25.158" fill="none" stroke="#dfaa72" stroke-linecap="round" stroke-miterlimit="10" stroke-width="1" stroke-dasharray="0.1 1.5"/>
      <rect id="Retângulo_23" data-name="Retângulo 23" width="10.942" height="1.411" transform="translate(1109.419 668.703) rotate(180)" fill="none" stroke="#dfaa72" stroke-linecap="round" stroke-miterlimit="10" stroke-width="1" stroke-dasharray="0.1 1.5"/>
      <path id="Caminho_40" data-name="Caminho 40" d="M1099.579,667.292V642.134h8.739v25.158" fill="none" stroke="#dfaa72" stroke-linecap="round" stroke-miterlimit="10" stroke-width="1" stroke-dasharray="0.1 1.5"/>
      <rect id="Retângulo_24" data-name="Retângulo 24" width="10.942" height="1.411" transform="translate(1137.939 668.703) rotate(180)" fill="none" stroke="#dfaa72" stroke-linecap="round" stroke-miterlimit="10" stroke-width="1" stroke-dasharray="0.1 1.5"/>
      <path id="Caminho_41" data-name="Caminho 41" d="M1128.1,667.292V642.134h8.739v25.158" fill="none" stroke="#dfaa72" stroke-linecap="round" stroke-miterlimit="10" stroke-width="1" stroke-dasharray="0.1 1.5"/>
      <rect id="Retângulo_25" data-name="Retângulo 25" width="7.162" height="7.29" transform="translate(1079.01 679.293) rotate(180)" fill="none" stroke="#dfaa72" stroke-linecap="round" stroke-miterlimit="10" stroke-width="1" stroke-dasharray="0.1 1.5"/>
      <rect id="Retângulo_26" data-name="Retângulo 26" width="7.162" height="7.29" transform="translate(1107.529 679.293) rotate(180)" fill="none" stroke="#dfaa72" stroke-linecap="round" stroke-miterlimit="10" stroke-width="1" stroke-dasharray="0.1 1.5"/>
      <rect id="Retângulo_27" data-name="Retângulo 27" width="7.162" height="7.29" transform="translate(1136.048 679.293) rotate(180)" fill="none" stroke="#dfaa72" stroke-linecap="round" stroke-miterlimit="10" stroke-width="1" stroke-dasharray="0.1 1.5"/>
      <path id="Caminho_42" data-name="Caminho 42" d="M1080.9,642.134v-1.411h-10.943v1.411" fill="none" stroke="#dfaa72" stroke-linecap="round" stroke-miterlimit="10" stroke-width="1" stroke-dasharray="0.1 1.5"/>
      <path id="Caminho_43" data-name="Caminho 43" d="M1109.419,642.134v-1.411h-10.942v1.411" fill="none" stroke="#dfaa72" stroke-linecap="round" stroke-miterlimit="10" stroke-width="1" stroke-dasharray="0.1 1.5"/>
      <path id="Caminho_44" data-name="Caminho 44" d="M1061.17,629.871h0a11.275,11.275,0,0,0-11.254,10.852h1.372a9.9,9.9,0,0,1,9.882-9.481h0a9.9,9.9,0,0,1,9.881,9.481h1.372A11.275,11.275,0,0,0,1061.17,629.871Z" fill="none" stroke="#dfaa72" stroke-linecap="round" stroke-miterlimit="10" stroke-width="1" stroke-dasharray="0.1 1.5"/>
      <path id="Caminho_45" data-name="Caminho 45" d="M1089.689,629.871a11.274,11.274,0,0,1,11.253,10.852h-1.372a9.889,9.889,0,0,0-19.762,0h-1.372A11.273,11.273,0,0,1,1089.689,629.871Z" fill="none" stroke="#dfaa72" stroke-linecap="round" stroke-miterlimit="10" stroke-width="1" stroke-dasharray="0.1 1.5"/>
      <path id="Caminho_46" data-name="Caminho 46" d="M1138.443,642.134v-1.411H1127.5v1.411" fill="none" stroke="#dfaa72" stroke-linecap="round" stroke-miterlimit="10" stroke-width="1" stroke-dasharray="0.1 1.5"/>
      <path id="Caminho_47" data-name="Caminho 47" d="M1118.208,629.871a11.274,11.274,0,0,1,11.253,10.852h-1.372a9.889,9.889,0,0,0-19.762,0h-1.372A11.274,11.274,0,0,1,1118.208,629.871Z" fill="none" stroke="#dfaa72" stroke-linecap="round" stroke-miterlimit="10" stroke-width="1" stroke-dasharray="0.1 1.5"/>
      <circle id="Elipse_3" data-name="Elipse 3" cx="4.019" cy="4.019" r="4.019" transform="translate(1115.97 593.774)" fill="none" stroke="#dfaa72" stroke-linecap="round" stroke-miterlimit="10" stroke-width="1" stroke-dasharray="0.1 1.5"/>
      <circle id="Elipse_4" data-name="Elipse 4" cx="2.49" cy="2.49" r="2.49" transform="translate(1117.499 595.303)" fill="none" stroke="#dfaa72" stroke-linecap="round" stroke-miterlimit="10" stroke-width="1" stroke-dasharray="0.1 1.5"/>
      <rect id="Retângulo_28" data-name="Retângulo 28" width="158.279" height="3.265" transform="translate(982.03 618.519)" fill="none" stroke="#dfaa72" stroke-linecap="round" stroke-miterlimit="10" stroke-width="1" stroke-dasharray="0.1 1.5"/>
    </g>
  </g>
</svg>
